<!-- Sleeve 2: Keyhole Neck backline: back curved seam full zipper color: navy blue-->
<svg xmlns="http://www.w3.org/2000/svg" xmlns:xlink= "http://www.w3.org/1999/xlink" viewBox="25 50 250 300" preserveAspectRatio="xMidYMid meet" class="main-area"><g class="front-view"><g transform="translate(61,50)" class="area1-34"><g class="back" style="transform: translate(99px, 0px) scale(-1, 1);"><g><!----> <path d="M68.88 57.07 L68.88 57.07 L68.70834409380628 58.056884943152035 L68.49057856705407 59.02571313485725 L68.23953618893763 60.00084840726828 L67.44868035916039 62.886922901058526 L67.19989287144254 63.85731331326808 L66.96924697644604 64.83092474658902 L66.76026761496175 65.8072782549074 L66.57513413039368 66.78573805679193 L66.41079733113193 67.79357829889459 L66.27668400443514 68.77477260392901 L66.16768875149958 69.75716076241171 L66.08155094590296 70.76462625045596 L66.02071969038118 71.76807870618508 L65.98445599806597 72.74723162319182 L65.9698820271404 73.75850116998154 L65.9872710323947 74.75665927223305 L66.04570871745504 75.77440915734057 L66.13132620953353 76.73929439484844 L66.2476351689913 77.75810752128555 L66.37939642933257 78.73220360601547 L66.69490020392367 80.70540386345134 L67.06109482303935 82.6866240688198 L67.45872401040249 84.65008855497322 L68.09065423433313 87.56434534063752 L69.18931767126774 92.44964842443954 L69.78974611380792 95.38753518900177 L70.14159503213006 97.35651023494232 L70.4412146886879 99.3355882395033 L70.67424472290311 101.32400129271169 L70.76038841579881 102.32059215762555 L70.82291153472192 103.31765746835927 L70.92136651442821 106.31718324544106 L70.9836314012049 109.33432070077517 L71.02288919574674 112.30905377674047 L71.05141379091174 116.33148942289736 L71.05870835291948 120.30281004073396 L71.02302360326394 128.3204709833629 L70.34687030232097 128.64 L28.346870302320966 128.64 L27.91453127417589 128.0826813061073 L27.88305628841261 123.07984353732952 L27.87736759487929 118.05690765592372 L27.893928090683037 114.09115334556027 L27.935844552441928 110.07865549178862 L27.991038917761962 107.058558035471 L28.076816896650644 104.06802404039951 L28.121091964812884 103.0720350902806 L28.188155815688557 102.07473174660562 L28.275993226325085 101.07798876831133 L28.382584283811703 100.08264170580595 L28.645098733633105 98.0981620431328 L28.79806602177569 97.10951305652551 L29.141314540605435 95.13944754296728 L29.735041088349956 92.20008666951645 L30.831641374276426 87.31201947201089 L31.459542943513007 84.39547834024363 L31.85365951110646 82.4296169248116 L32.2146920877089 80.44623899660564 L32.52242190334506 78.47131511940414 L32.64899420714961 77.4959516327307 L32.75533348891813 76.50889863394613 L32.83575051355987 75.5113927116074 L32.88293357096291 74.49802574664851 L32.888549074651536 73.5128351694055 L32.86634008132013 72.50187688712727 L32.81802097273634 71.49820697299718 L32.742244737701874 70.49214890706985 L32.640980891049416 69.51047855690797 L32.5124810649079 68.53232789286862 L32.35150834345765 67.52881061356334 L32.16695997830301 66.55480223866584 L31.955573089221787 65.58308524646158 L31.712973389066057 64.59058218961735 L31.17740594307087 62.665477410404414 L30.321806555489417 59.818573400016064 L30.058545624186557 58.85318172116974 L29.831113037534735 57.86284574012295L29.796577919503328 56.66025968711414 L 30.037580465932173 55.65038970812437 L 30.224363381781167 54.67562852278378 L 30.374257817294875 53.71351102412012 L 30.501101628369547 52.704788672557754 L 30.601321187023906 51.69651106963932 L 30.674744844475462 50.73882116027862 L 30.731215010950127 49.73035314761801 L 30.76828261115198 48.70288889939754 L 30.785042786698707 46.73319145026288 L 30.73048147076459 44.71712971272472 L 30.675834560814728 43.71299252160403 L 30.51163060129417 41.74064189743405 L 30.395534241946375 40.73036725682753 L 30.261847880548824 39.76620829278526 L 30.09375217993583 38.75134814257824 L 29.90265869509944 37.782119984397525 L 29.674815131438155 36.81028701203604 L 29.40216106379578 35.841818511288245 L 29.074638075112034 34.89028083437634 L 28.68 33.98 L 28.68 33.98 L28.771652003709853 33.90387056437142 L 39.99206353152071 29.649183132071684 L 40.95 29.71 L 40.95 29.71 L41.16857451320409 29.7956915617438 L 42.14739847605616 30.017806155912574 L 43.13999934423637 30.2029591368318 L 44.12138779850296 30.351636772462257 L 45.10045234799922 30.46949485830934 L 46.10555750186709 30.56144225261819 L 47.11212101038679 30.625880686094483 L 48.11819101002607 30.663887905343827 L 49.122506473114946 30.676252070892147 L 50.10009183917676 30.664067316325067 L 51.12329736768815 30.62569986367705 L 52.11926854283708 30.56283252701695 L 53.11219856853482 30.47440682246847 L 54.102004889999044 30.359643209335378 L 55.08844155888744 30.21743140190751 L 56.07097430350128 30.046327424984874 L 57.04865573391673 29.84455319215711 L 58.02 29.61 L 58.02 29.61 L58.80935911562757 29.749048618637083 L 70.05 33.95 L 70.05 33.95 L69.67309441311792 34.37739808675934 L 69.32954724694355 35.30199973340275 L 69.04552216387569 36.24268240817137 L 68.80256548962092 37.2116038719758 L 68.58953375433794 38.22671212119121 L 68.41817231098106 39.196347623580934 L 68.27393523920307 40.16138137138322 L 68.14716764818053 41.174346720396464 L 68.04339573117598 42.18272702572888 L 67.89847316322061 44.15288454409421 L 67.85192584469534 45.15544875875151 L 67.81119661039826 47.16103369491518 L 67.84034237686797 49.1631134179164 L 67.9433087677451 51.15473127676795 L 68.02441651245103 52.1360440188541 L 68.13193617817835 53.14642069786194 L 68.2671874051751 54.15497461438507 L 68.42722934145776 55.117434812015915 L 68.62746385494435 56.09129665872539 L 68.88 57.07 L 68.88 57.07 Z" fill="#000080" data-connection="1" class="" style="stroke-width: 0.65px; stroke: rgb(78, 94, 97);"></path><!----> <path d="M47.26 30.63146724486536 L47.26 128.64 L51.94 128.64 L51.94 30.63146724486536 " fill="none" data-connection="2" class="" style="stroke-width: 0.35px; stroke: rgb(78, 94, 97);"></path><!----> <path d="M50 128.64 L49.53 128.44 L49.06 128.24 L48.86 127.94 L49.06 127.64 L49.53 127.44 L50 127.24 L50.2 126.93 L50 126.63 L49.53 126.43 L49.06 126.23 L48.86 125.93 L49.06 125.63 L49.53 125.43 L50 125.23 L50.2 124.93 L50 124.63 L49.53 124.43 L49.06 124.23 L48.86 123.93 L49.06 123.63 L49.53 123.43 L50 123.23 L50.2 122.93 L50 122.62 L49.53 122.42 L49.06 122.22 L48.86 121.92 L49.06 121.59 L49.53 121.29 L50 120.99 L50.2 120.65 L50 120.35 L49.53 120.15 L49.06 119.95 L48.86 119.65 L49.06 119.35 L49.53 119.15 L50 118.95 L50.2 118.65 L50 118.35 L49.53 118.15 L49.06 117.95 L48.86 117.65 L49.06 117.35 L49.53 117.15 L50 116.94 L50.2 116.64 L50 116.34 L49.53 116.14 L49.06 115.94 L48.86 115.64 L49.06 115.34 L49.53 115.14 L50 114.94 L50.2 114.64 L50 114.34 L49.53 114.14 L49.06 113.94 L48.86 113.64 L49.06 113.34 L49.53 113.14 L50 112.94 L50.2 112.63 L50 112.33 L49.53 112.13 L49.06 111.93 L48.86 111.63 L49.06 111.33 L49.53 111.13 L50 110.93 L50.2 110.63 L50 110.33 L49.53 110.13 L49.06 109.93 L48.86 109.63 L49.06 109.33 L49.53 109.13 L50 108.93 L50.2 108.63 L50 108.32 L49.53 108.12 L49.06 107.92 L48.86 107.62 L49.06 107.32 L49.53 107.12 L50 106.92 L50.2 106.62 L50 106.32 L49.53 106.12 L49.06 105.92 L48.86 105.62 L49.06 105.32 L49.53 105.12 L50 104.92 L50.2 104.62 L50 104.32 L49.53 104.11 L49.06 103.91 L48.86 103.61 L49.06 103.31 L49.53 103.11 L50 102.91 L50.2 102.61 L50 102.31 L49.53 102.11 L49.06 101.91 L48.86 101.61 L49.06 101.31 L49.53 101.11 L50 100.91 L50.2 100.61 L50 100.31 L49.53 100.11 L49.06 99.9 L48.86 99.6 L49.06 99.3 L49.53 99.1 L50 98.9 L50.2 98.6 L50 98.3 L49.53 98.1 L49.06 97.9 L48.86 97.6 L49.06 97.3 L49.53 97.1 L50 96.9 L50.2 96.6 L50 96.3 L49.53 96.1 L49.06 95.9 L48.86 95.59 L49.06 95.29 L49.53 95.09 L50 94.89 L50.2 94.59 L50 94.29 L49.53 94.09 L49.06 93.89 L48.86 93.59 L49.06 93.29 L49.53 93.09 L50 92.89 L50.2 92.59 L50 92.29 L49.53 92.09 L49.06 91.89 L48.86 91.59 L49.06 91.28 L49.53 91.08 L50 90.88 L50.2 90.58 L50 90.28 L49.53 90.08 L49.06 89.88 L48.86 89.58 L49.06 89.28 L49.53 89.08 L50 88.88 L50.2 88.58 L50 88.28 L49.53 88.08 L49.06 87.88 L48.86 87.58 L49.06 87.28 L49.53 87.07 L50 86.87 L50.2 86.57 L50 86.27 L49.53 86.07 L49.06 85.87 L48.86 85.57 L49.06 85.27 L49.53 85.07 L50 84.87 L50.2 84.57 L50 84.3 L49.53 84.1 L49.06 83.9 L48.86 83.6 L49.06 83.3 L49.53 83.1 L50 82.9 L50.2 82.6 L50 82.3 L49.53 82.1 L49.06 81.9 L48.86 81.6 L49.06 81.29 L49.53 81.09 L50 80.89 L50.2 80.59 L50 80.29 L49.53 80.09 L49.06 79.89 L48.86 79.59 L49.06 79.29 L49.53 79.09 L50 78.89 L50.2 78.59 L50 78.32 L49.53 78.12 L49.06 77.92 L48.86 77.62 L49.06 77.32 L49.53 77.12 L50 76.92 L50.2 76.62 L50 76.32 L49.53 76.12 L49.06 75.92 L48.86 75.61 L49.06 75.31 L49.53 75.11 L50 74.91 L50.2 74.61 L50 74.31 L49.53 74.11 L49.06 73.91 L48.86 73.61 L49.06 73.31 L49.53 73.11 L50 72.91 L50.2 72.61 L50 72.34 L49.53 72.14 L49.06 71.94 L48.86 71.64 L49.06 71.34 L49.53 71.14 L50 70.94 L50.2 70.64 L50 70.34 L49.53 70.13 L49.06 69.93 L48.86 69.63 L49.06 69.33 L49.53 69.13 L50 68.93 L50.2 68.63 L50 68.36 L49.53 68.16 L49.06 67.96 L48.86 67.66 L49.06 67.36 L49.53 67.16 L50 66.96 L50.2 66.66 L50 66.36 L49.53 66.16 L49.06 65.96 L48.86 65.66 L49.06 65.36 L49.53 65.16 L50 64.96 L50.2 64.66 L50 64.39 L49.53 64.19 L49.06 63.99 L48.86 63.69 L49.06 63.39 L49.53 63.19 L50 62.98 L50.2 62.68 L50 62.38 L49.53 62.18 L49.06 61.98 L48.86 61.68 L49.06 61.38 L49.53 61.18 L50 60.98 L50.2 60.68 L50 60.41 L49.53 60.21 L49.06 60.01 L48.86 59.71 L49.06 59.41 L49.53 59.21 L50 59.01 L50.2 58.71 L50 58.44 L49.53 58.24 L49.06 58.04 L48.86 57.74 L49.06 57.44 L49.53 57.24 L50 57.04 L50.2 56.74 L50 56.47 L49.53 56.27 L49.06 56.07 L48.86 55.77 L49.06 55.47 L49.53 55.27 L50 55.07 L50.2 54.77 L50 54.46 L49.53 54.26 L49.06 54.06 L48.86 53.76 L49.06 53.46 L49.53 53.26 L50 53.06 L50.2 52.76 L50 52.46 L49.53 52.26 L49.06 52.06 L48.86 51.76 L49.06 51.46 L49.53 51.26 L50 51.06 L50.2 50.76 L50 50.49 L49.53 50.29 L49.06 50.09 L48.86 49.79 L49.06 49.49 L49.53 49.29 L50 49.09 L50.2 48.78 L50 48.48 L49.53 48.28 L49.06 48.08 L48.86 47.78 L49.06 47.48 L49.53 47.28 L50 47.08 L50.2 46.78 L50 46.51 L49.53 46.31 L49.06 46.11 L48.86 45.81 L49.06 45.51 L49.53 45.31 L50 45.11 L50.2 44.81 L50 44.54 L49.53 44.34 L49.06 44.14 L48.86 43.84 L49.06 43.54 L49.53 43.34 L50 43.14 L50.2 42.84 L50 42.54 L49.53 42.34 L49.06 42.14 L48.86 41.84 L49.06 41.53 L49.53 41.33 L50 41.13 L50.2 40.83 L50 40.57 L49.53 40.37 L49.06 40.16 L48.86 39.86 L49.06 39.56 L49.53 39.36 L50 39.16 L50.2 38.86 L50 38.59 L49.53 38.39 L49.06 38.19 L48.86 37.89 L49.06 37.59 L49.53 37.39 L50 37.19 L50.2 36.89 L50 36.62 L49.53 36.42 L49.06 36.22 L48.86 35.92 L49.06 35.62 L49.53 35.42 L50 35.22 L50.2 34.92 L50 34.65 L49.53 34.45 L49.06 34.25 L48.86 33.95 L49.06 33.65 L49.53 33.45 L50 33.25 L50.2 32.95 L50 32.68 L49.53 32.48 L49.06 32.28 L48.86 31.98 L49.06 31.68 L49.53 31.48 L50 31.28 L50.2 30.98 L50 30.68 L49.96647201344564 30.665732771678996 " fill="none" data-connection="3" class="" style="stroke-width: 0.35px; stroke: rgb(78, 94, 97);"></path><!----> <path d="M69.91 33.98C72.49 34.35 76.06 43.14 78.67 51.52 82.68 64.42 94.61 90.62 95.11 92.22 92.7 94.69 90.7 95.46 87.25 96.7 87.32 97.3 68.98 57 68.98 57 67.24 51.09 67.51 38.9 69.91 33.98Z" fill="#000080" data-connection="4" class="" style="stroke-width: 0.65px; stroke: rgb(78, 94, 97);"></path><!----> <path d="M28.68 33.98C26.11 34.35 22.54 43.14 19.93 51.52 15.92 64.42 3.99 90.28 3.49 91.89 5.9 94.36 7.9 95.46 11.34 96.7 11.28 97.3 29.62 57 29.62 57 31.32 51.12 31.09 38.9 28.68 33.98Z" fill="#000080" data-connection="5" class="" style="stroke-width: 0.65px; stroke: rgb(78, 94, 97);"></path><!----> <path d="M49.43 128.64 L49.43 120.49 L49.43 117.15 L49.43 110.46 L49.43 103.78 L49.43 97.1 L49.43 90.42 L49.43 83.73 L49.43 77.05 L49.43 70.37 L49.43 60.35 L49.43 50.32 L49.43 43.64 L49.43 36.96 L49.43 30.67241943050479 " fill="none" data-connection="6" class="" style="stroke-width: 0.35px; stroke: rgb(78, 94, 97);"></path><!----> <path d="M58.82 58.67 L58.82 58.67 L58.688404427996446 59.663654869011225 L58.48117813254795 61.6571508711278 L58.32687674799582 63.65189111770059 L58.217213921443445 65.66401669540211 L58.13348424675031 68.63175591513313 L58.12793929771084 70.65515974853372 L58.16237690430502 72.62671807691508 L58.19585154757857 73.65090973524059 L58.29135717026526 75.63510942305838 L58.3561765338941 76.65201118488272 L58.511686800662645 78.60783021732014 L58.71704738167392 80.63764490730918 L58.962265193532076 82.61976694480431 L59.10072632281701 83.60243120393673 L59.21212753508794 84.58520441336242 L59.55016657983142 88.57107114911383 L59.69547857538022 90.56801196281232 " fill="none" data-connection="7" class="" style="stroke-width: 0.35px; stroke: rgb(78, 94, 97);"></path><!----> <path d="M39.28 91.15 L39.28 91.15 L39.33083622386581 90.15723687653181 L39.404044195347 89.1552991982873 L39.82509995685855 84.16635598459607 L40.219233162032864 81.1890892005116 L40.43055801052363 79.22620805627771 L40.524072582650106 78.20065499197179 L40.671486967411056 76.23857135239813 L40.73226770090371 75.21493508443264 L40.81973955809493 73.21394337276776 L40.874320933923684 70.23350867404511 L40.86031124443084 68.22036370809923 L40.80605853470363 66.23688237942268 L40.70837290247141 64.21649487730366 L40.569576850949616 62.24816663250695 L40.3759350248143 60.22259788152515 L40.26200447083226 59.26471504286032 " fill="none" data-connection="8" class="" style="stroke-width: 0.35px; stroke: rgb(78, 94, 97);"></path><!----> <path d="M63.7 40.53 L63.7 40.53 L64.22448000322042 38.60240461764339 L64.71300988357213 36.66165135463551 L65.15794367601924 34.70849051304732 L65.55329459717046 32.748544503833536 " fill="none" data-connection="9" class="" style="stroke-width: 0.35px; stroke: rgb(78, 94, 97);"></path><!----> <path d="M33.19 32.28 L33.19 32.28 L33.57172510251304 34.24032979174378 L34.00928933949248 36.19491689474133 L34.49361013680381 38.13739545407171 L35.01321421480294 40.06735611545618 " fill="none" data-connection="10" class="" style="stroke-width: 0.35px; stroke: rgb(78, 94, 97);"></path><!----> <path d="M63.43 41.43C63.53 41.13 63.6 40.83 63.7 40.53" fill="none" data-connection="11" class="" style="stroke-width: 0.35px; stroke: rgb(78, 94, 97);"></path><!----> <path d="M35.17 40.63C35.2 40.73 35.23 40.87 35.27 40.97" fill="none" data-connection="12" class="" style="stroke-width: 0.35px; stroke: rgb(78, 94, 97);"></path></g></g> <g class="front"><g><!----> <path d="M68.88 57.07 L68.88 57.07 L68.70834409380628 58.056884943152035 L68.49057856705407 59.02571313485725 L68.23953618893763 60.00084840726828 L67.44868035916039 62.886922901058526 L67.19989287144254 63.85731331326808 L66.96924697644604 64.83092474658902 L66.76026761496175 65.8072782549074 L66.57513413039368 66.78573805679193 L66.41079733113193 67.79357829889459 L66.27668400443514 68.77477260392901 L66.16768875149958 69.75716076241171 L66.08155094590296 70.76462625045596 L66.02071969038118 71.76807870618508 L65.98445599806597 72.74723162319182 L65.9698820271404 73.75850116998154 L65.9872710323947 74.75665927223305 L66.04570871745504 75.77440915734057 L66.13132620953353 76.73929439484844 L66.2476351689913 77.75810752128555 L66.37939642933257 78.73220360601547 L66.69490020392367 80.70540386345134 L67.06109482303935 82.6866240688198 L67.45872401040249 84.65008855497322 L68.09065423433313 87.56434534063752 L69.18931767126774 92.44964842443954 L69.78974611380792 95.38753518900177 L70.14159503213006 97.35651023494232 L70.4412146886879 99.3355882395033 L70.67424472290311 101.32400129271169 L70.76038841579881 102.32059215762555 L70.82291153472192 103.31765746835927 L70.92136651442821 106.31718324544106 L70.9836314012049 109.33432070077517 L71.02288919574674 112.30905377674047 L71.05141379091174 116.33148942289736 L71.05870835291948 120.30281004073396 L71.02302360326394 128.3204709833629 L70.34687030232097 128.64 L28.346870302320966 128.64 L27.91453127417589 128.0826813061073 L27.88305628841261 123.07984353732952 L27.87736759487929 118.05690765592372 L27.893928090683037 114.09115334556027 L27.935844552441928 110.07865549178862 L27.991038917761962 107.058558035471 L28.076816896650644 104.06802404039951 L28.121091964812884 103.0720350902806 L28.188155815688557 102.07473174660562 L28.275993226325085 101.07798876831133 L28.382584283811703 100.08264170580595 L28.645098733633105 98.0981620431328 L28.79806602177569 97.10951305652551 L29.141314540605435 95.13944754296728 L29.735041088349956 92.20008666951645 L30.831641374276426 87.31201947201089 L31.459542943513007 84.39547834024363 L31.85365951110646 82.4296169248116 L32.2146920877089 80.44623899660564 L32.52242190334506 78.47131511940414 L32.64899420714961 77.4959516327307 L32.75533348891813 76.50889863394613 L32.83575051355987 75.5113927116074 L32.88293357096291 74.49802574664851 L32.88854093920181 73.51275325026786 L32.866108156895116 72.50161814820498 L32.81725684877949 71.49785887962977 L32.74063408119245 70.49185034702278 L32.63823608984754 69.51032932134754 L32.50830961408703 68.5324890624279 L32.345578345698 67.529501406525 L32.15903052314759 66.55612024669084 L31.94537492179474 65.58516399700774 L31.700183141959506 64.59354905479952 L31.158818888847037 62.670301327980546 L30.287937625522858 59.80818750055643 L30.026270597344755 58.861419675740905 L29.795204588013945 57.871617093687256L29.796577919503328 56.66025968711414 L 30.037580465932173 55.65038970812437 L 30.224363381781167 54.67562852278378 L 30.374257817294875 53.71351102412012 L 30.501101628369547 52.704788672557754 L 30.601321187023906 51.69651106963932 L 30.674744844475462 50.73882116027862 L 30.731215010950127 49.73035314761801 L 30.76828261115198 48.70288889939754 L 30.785042786698707 46.73319145026288 L 30.73048147076459 44.71712971272472 L 30.675834560814728 43.71299252160403 L 30.51163060129417 41.74064189743405 L 30.395534241946375 40.73036725682753 L 30.261847880548824 39.76620829278526 L 30.09375217993583 38.75134814257824 L 29.90265869509944 37.782119984397525 L 29.674815131438155 36.81028701203604 L 29.40216106379578 35.841818511288245 L 29.074638075112034 34.89028083437634 L 28.68 33.98 L 28.68 33.98 L29.53972453080348 33.595379875438 L 39.83056916285461 29.709698885060067 L 40.65353191682908 29.888844266058392 L 42.056853430075485 31.31386662744779 L 42.72316058745352 32.05854103436993 L 43.27833462442928 32.88923207619972 L 43.70305598216682 33.79344768926298 L 43.99 34.75 L 43.99 34.75 L44.05079212029691 35.06253057478149 L 44.18748947540988 36.05295459630488 L 44.25733500205166 37.05032396905612 L 44.25983123242934 38.050127835797 L 44.194701539093224 39.0478099427337 L 44.061905010912106 40.0387610876633 L 43.86166672468044 41.018315858725366 L 43.60111169163455 41.983528296993875 L 42.718466087226695 45.884902453528476 L 42.536948728850405 46.86158364501367 L 42.58304506575896 47.853940971497614 L 42.83352039396287 48.82035926974339 L 43.25465015999828 49.73088205836842 L 43.813070088462666 50.566411096570405 L 44.481130842948005 51.31547828750798 L 45.23814904835187 51.97043941221086 L 46.069221002098146 52.52407266028796 L 46.96274685746069 52.96702695704901 L 47.90731972264308 53.28643775715291 L 48.888415643333765 53.4661703642723 L 49.573726371948084 53.5 L 49.286149765541005 53.49884853501687 L 50.278795956595644 53.39731366145293 L 51.24368335977073 53.14481010399913 L 52.16342145215819 52.760209235025265 L 53.02589272873893 52.259453025740065 L 53.82078950572701 51.65420017644173 L 54.53611356911575 50.952551720468485 L 55.15507917823371 50.161197756483645 L 55.6539021773001 49.288599276427945 L 56.00134366128616 48.348885348136285 L 56.161516709020546 47.36583310700706 L 56.10188645532743 46.37549646197055 L 55.21082930398857 42.47855625541612 L 54.730421073868435 40.53784743051253 L 54.56202840144722 39.552316840383455 L 54.461206461284746 38.55760733201795 L 54.428571545217494 37.55833931860192 L 54.46448678455452 36.559182724134644 L 54.569045237713034 35.56486034235527 L 54.74 34.58 L 54.74 34.58 L55.01852309908453 33.7299045217254 L 55.45451508276348 32.83095758626498 L 56.018465925398864 32.006138920346935 L 56.69008717418806 31.26620013755131 L 58.09340868743446 29.841177776161913 L 58.93116368775621 29.74104299850485 L 70.18 33.92 L 70.18 33.92 L69.67309441311792 34.37739808675934 L 69.32954724694355 35.30199973340275 L 69.04552216387569 36.24268240817137 L 68.80256548962092 37.2116038719758 L 68.58953375433794 38.22671212119121 L 68.41817231098106 39.196347623580934 L 68.27393523920307 40.16138137138322 L 68.14716764818053 41.174346720396464 L 68.04339573117598 42.18272702572888 L 67.89847316322061 44.15288454409421 L 67.85192584469534 45.15544875875151 L 67.81119661039826 47.16103369491518 L 67.84034237686797 49.1631134179164 L 67.9433087677451 51.15473127676795 L 68.02441651245103 52.1360440188541 L 68.13193617817835 53.14642069786194 L 68.2671874051751 54.15497461438507 L 68.42722934145776 55.117434812015915 L 68.62746385494435 56.09129665872539 L 68.88 57.07 L 68.88 57.07 Z" fill="#000080" data-connection="1" class="" style="stroke-width: 0.65px; stroke: rgb(78, 94, 97);"></path><!----> <path d="M69.91 33.98C72.49 34.35 76.06 43.14 78.67 51.52 82.68 64.42 94.61 90.62 95.11 92.22 93.1 93.12 89.89 94.16 87.25 96.7 87.32 97.3 68.98 57 68.98 57 67.24 51.09 67.51 38.9 69.91 33.98Z" fill="#000080" data-connection="2" class="" style="stroke-width: 0.65px; stroke: rgb(78, 94, 97);"></path><!----> <path d="M28.68 33.98C26.11 34.35 22.54 43.14 19.93 51.52 15.92 64.42 3.99 90.28 3.49 91.89 5.7 93.02 7.97 94.39 11.34 96.7 11.28 97.3 29.62 57 29.62 57 31.32 51.12 31.09 38.9 28.68 33.98Z" fill="#000080" data-connection="3" class="" style="stroke-width: 0.65px; stroke: rgb(78, 94, 97);"></path><!----> <path d="M59.16 62.68 L59.16 62.68 L58.97233030367083 63.678807408485405 L58.83486846050127 64.63380568521457 L58.71975651169028 65.63655069099298 L58.62892604874507 66.64180586724433 L58.559527641999935 67.64621647476554 L58.50978641061606 68.63934096411033 L58.46063714106969 70.6503276650438 L58.459697658464485 71.64575114124457 L58.500292396748875 73.63639998635132 L58.593747837153856 75.6303804353476 L58.65798159855368 76.61202900990261 L58.82369648209057 78.60773723491978 L59.03663734614947 80.62322014170877 L59.15688184689661 81.60989188357341 L59.426903745721226 83.57756100050409 L59.542322802969906 84.57703891416351 L59.88668029895127 88.56548078212519 L60.0346268313858 90.56117055386432 " fill="none" data-connection="4" class="" style="stroke-width: 0.35px; stroke: rgb(78, 94, 97);"></path><!----> <path d="M39.61 91.15 L39.61 91.15 L39.66173868952294 90.157314001844 L39.73624696513797 89.1554564205205 L40.16470608327837 84.16776186573439 L40.698154853744754 81.22011072141561 L40.98891121165848 79.25320777086363 L41.21645537079791 77.27468444541167 L41.30581882999062 76.27866711621894 L41.434236581092094 74.24958034822073 L41.48776701221521 72.26696731781016 L41.48658140289906 71.2638447657255 L41.466056489531105 70.27605714572337 L41.424912887145354 69.27550910149836 L41.3617026696147 68.26663822846537 L41.27826819867123 67.2873195839743 L41.167496085049756 66.2751749382465 L41.031382198896594 65.2766700613011 L40.86970263229391 64.30469410201458 L40.67109179709333 63.32641263452277 " fill="none" data-connection="5" class="" style="stroke-width: 0.35px; stroke: rgb(78, 94, 97);"></path><!----> <path d="M68.61 57.84L59.12 56.4" fill="none" data-connection="6" class="" style="stroke-width: 0.35px; stroke: rgb(78, 94, 97);"></path><!----> <path d="M39.68 56.34L30.19 57.77" fill="none" data-connection="7" class="" style="stroke-width: 0.35px; stroke: rgb(78, 94, 97);"></path></g></g></g></g> <g transform="translate(140, 75) scale(0.7,0.7)" class="back-view"><g transform="translate(61,50)" class="area1-34"><g class="front" style="transform: translate(99px, 0px) scale(-1, 1);"><g><!----> <path d="M68.88 57.07 L68.88 57.07 L68.70834409380628 58.056884943152035 L68.49057856705407 59.02571313485725 L68.23953618893763 60.00084840726828 L67.44868035916039 62.886922901058526 L67.19989287144254 63.85731331326808 L66.96924697644604 64.83092474658902 L66.76026761496175 65.8072782549074 L66.57513413039368 66.78573805679193 L66.41079733113193 67.79357829889459 L66.27668400443514 68.77477260392901 L66.16768875149958 69.75716076241171 L66.08155094590296 70.76462625045596 L66.02071969038118 71.76807870618508 L65.98445599806597 72.74723162319182 L65.9698820271404 73.75850116998154 L65.9872710323947 74.75665927223305 L66.04570871745504 75.77440915734057 L66.13132620953353 76.73929439484844 L66.2476351689913 77.75810752128555 L66.37939642933257 78.73220360601547 L66.69490020392367 80.70540386345134 L67.06109482303935 82.6866240688198 L67.45872401040249 84.65008855497322 L68.09065423433313 87.56434534063752 L69.18931767126774 92.44964842443954 L69.78974611380792 95.38753518900177 L70.14159503213006 97.35651023494232 L70.4412146886879 99.3355882395033 L70.67424472290311 101.32400129271169 L70.76038841579881 102.32059215762555 L70.82291153472192 103.31765746835927 L70.92136651442821 106.31718324544106 L70.9836314012049 109.33432070077517 L71.02288919574674 112.30905377674047 L71.05141379091174 116.33148942289736 L71.05870835291948 120.30281004073396 L71.02302360326394 128.3204709833629 L70.34687030232097 128.64 L28.346870302320966 128.64 L27.91453127417589 128.0826813061073 L27.88305628841261 123.07984353732952 L27.87736759487929 118.05690765592372 L27.893928090683037 114.09115334556027 L27.935844552441928 110.07865549178862 L27.991038917761962 107.058558035471 L28.076816896650644 104.06802404039951 L28.121091964812884 103.0720350902806 L28.188155815688557 102.07473174660562 L28.275993226325085 101.07798876831133 L28.382584283811703 100.08264170580595 L28.645098733633105 98.0981620431328 L28.79806602177569 97.10951305652551 L29.141314540605435 95.13944754296728 L29.735041088349956 92.20008666951645 L30.831641374276426 87.31201947201089 L31.459542943513007 84.39547834024363 L31.85365951110646 82.4296169248116 L32.2146920877089 80.44623899660564 L32.52242190334506 78.47131511940414 L32.64899420714961 77.4959516327307 L32.75533348891813 76.50889863394613 L32.83575051355987 75.5113927116074 L32.88293357096291 74.49802574664851 L32.88854093920181 73.51275325026786 L32.866108156895116 72.50161814820498 L32.81725684877949 71.49785887962977 L32.74063408119245 70.49185034702278 L32.63823608984754 69.51032932134754 L32.50830961408703 68.5324890624279 L32.345578345698 67.529501406525 L32.15903052314759 66.55612024669084 L31.94537492179474 65.58516399700774 L31.700183141959506 64.59354905479952 L31.158818888847037 62.670301327980546 L30.287937625522858 59.80818750055643 L30.026270597344755 58.861419675740905 L29.795204588013945 57.871617093687256L29.796577919503328 56.66025968711414 L 30.037580465932173 55.65038970812437 L 30.224363381781167 54.67562852278378 L 30.374257817294875 53.71351102412012 L 30.501101628369547 52.704788672557754 L 30.601321187023906 51.69651106963932 L 30.674744844475462 50.73882116027862 L 30.731215010950127 49.73035314761801 L 30.76828261115198 48.70288889939754 L 30.785042786698707 46.73319145026288 L 30.73048147076459 44.71712971272472 L 30.675834560814728 43.71299252160403 L 30.51163060129417 41.74064189743405 L 30.395534241946375 40.73036725682753 L 30.261847880548824 39.76620829278526 L 30.09375217993583 38.75134814257824 L 29.90265869509944 37.782119984397525 L 29.674815131438155 36.81028701203604 L 29.40216106379578 35.841818511288245 L 29.074638075112034 34.89028083437634 L 28.68 33.98 L 28.68 33.98 L29.53972453080348 33.595379875438 L 39.83056916285461 29.709698885060067 L 40.65353191682908 29.888844266058392 L 42.056853430075485 31.31386662744779 L 42.72316058745352 32.05854103436993 L 43.27833462442928 32.88923207619972 L 43.70305598216682 33.79344768926298 L 43.99 34.75 L 43.99 34.75 L44.05079212029691 35.06253057478149 L 44.18748947540988 36.05295459630488 L 44.25733500205166 37.05032396905612 L 44.25983123242934 38.050127835797 L 44.194701539093224 39.0478099427337 L 44.061905010912106 40.0387610876633 L 43.86166672468044 41.018315858725366 L 43.60111169163455 41.983528296993875 L 42.718466087226695 45.884902453528476 L 42.536948728850405 46.86158364501367 L 42.58304506575896 47.853940971497614 L 42.83352039396287 48.82035926974339 L 43.25465015999828 49.73088205836842 L 43.813070088462666 50.566411096570405 L 44.481130842948005 51.31547828750798 L 45.23814904835187 51.97043941221086 L 46.069221002098146 52.52407266028796 L 46.96274685746069 52.96702695704901 L 47.90731972264308 53.28643775715291 L 48.888415643333765 53.4661703642723 L 49.573726371948084 53.5 L 49.286149765541005 53.49884853501687 L 50.278795956595644 53.39731366145293 L 51.24368335977073 53.14481010399913 L 52.16342145215819 52.760209235025265 L 53.02589272873893 52.259453025740065 L 53.82078950572701 51.65420017644173 L 54.53611356911575 50.952551720468485 L 55.15507917823371 50.161197756483645 L 55.6539021773001 49.288599276427945 L 56.00134366128616 48.348885348136285 L 56.161516709020546 47.36583310700706 L 56.10188645532743 46.37549646197055 L 55.21082930398857 42.47855625541612 L 54.730421073868435 40.53784743051253 L 54.56202840144722 39.552316840383455 L 54.461206461284746 38.55760733201795 L 54.428571545217494 37.55833931860192 L 54.46448678455452 36.559182724134644 L 54.569045237713034 35.56486034235527 L 54.74 34.58 L 54.74 34.58 L55.01852309908453 33.7299045217254 L 55.45451508276348 32.83095758626498 L 56.018465925398864 32.006138920346935 L 56.69008717418806 31.26620013755131 L 58.09340868743446 29.841177776161913 L 58.93116368775621 29.74104299850485 L 70.18 33.92 L 70.18 33.92 L69.67309441311792 34.37739808675934 L 69.32954724694355 35.30199973340275 L 69.04552216387569 36.24268240817137 L 68.80256548962092 37.2116038719758 L 68.58953375433794 38.22671212119121 L 68.41817231098106 39.196347623580934 L 68.27393523920307 40.16138137138322 L 68.14716764818053 41.174346720396464 L 68.04339573117598 42.18272702572888 L 67.89847316322061 44.15288454409421 L 67.85192584469534 45.15544875875151 L 67.81119661039826 47.16103369491518 L 67.84034237686797 49.1631134179164 L 67.9433087677451 51.15473127676795 L 68.02441651245103 52.1360440188541 L 68.13193617817835 53.14642069786194 L 68.2671874051751 54.15497461438507 L 68.42722934145776 55.117434812015915 L 68.62746385494435 56.09129665872539 L 68.88 57.07 L 68.88 57.07 Z" fill="#000080" data-connection="1" class="" style="stroke-width: 0.65px; stroke: rgb(78, 94, 97);"></path><!----> <path d="M69.91 33.98C72.49 34.35 76.06 43.14 78.67 51.52 82.68 64.42 94.61 90.62 95.11 92.22 93.1 93.12 89.89 94.16 87.25 96.7 87.32 97.3 68.98 57 68.98 57 67.24 51.09 67.51 38.9 69.91 33.98Z" fill="#000080" data-connection="2" class="" style="stroke-width: 0.65px; stroke: rgb(78, 94, 97);"></path><!----> <path d="M28.68 33.98C26.11 34.35 22.54 43.14 19.93 51.52 15.92 64.42 3.99 90.28 3.49 91.89 5.7 93.02 7.97 94.39 11.34 96.7 11.28 97.3 29.62 57 29.62 57 31.32 51.12 31.09 38.9 28.68 33.98Z" fill="#000080" data-connection="3" class="" style="stroke-width: 0.65px; stroke: rgb(78, 94, 97);"></path><!----> <path d="M59.16 62.68 L59.16 62.68 L58.97233030367083 63.678807408485405 L58.83486846050127 64.63380568521457 L58.71975651169028 65.63655069099298 L58.62892604874507 66.64180586724433 L58.559527641999935 67.64621647476554 L58.50978641061606 68.63934096411033 L58.46063714106969 70.6503276650438 L58.459697658464485 71.64575114124457 L58.500292396748875 73.63639998635132 L58.593747837153856 75.6303804353476 L58.65798159855368 76.61202900990261 L58.82369648209057 78.60773723491978 L59.03663734614947 80.62322014170877 L59.15688184689661 81.60989188357341 L59.426903745721226 83.57756100050409 L59.542322802969906 84.57703891416351 L59.88668029895127 88.56548078212519 L60.0346268313858 90.56117055386432 " fill="none" data-connection="4" class="" style="stroke-width: 0.35px; stroke: rgb(78, 94, 97);"></path><!----> <path d="M39.61 91.15 L39.61 91.15 L39.66173868952294 90.157314001844 L39.73624696513797 89.1554564205205 L40.16470608327837 84.16776186573439 L40.698154853744754 81.22011072141561 L40.98891121165848 79.25320777086363 L41.21645537079791 77.27468444541167 L41.30581882999062 76.27866711621894 L41.434236581092094 74.24958034822073 L41.48776701221521 72.26696731781016 L41.48658140289906 71.2638447657255 L41.466056489531105 70.27605714572337 L41.424912887145354 69.27550910149836 L41.3617026696147 68.26663822846537 L41.27826819867123 67.2873195839743 L41.167496085049756 66.2751749382465 L41.031382198896594 65.2766700613011 L40.86970263229391 64.30469410201458 L40.67109179709333 63.32641263452277 " fill="none" data-connection="5" class="" style="stroke-width: 0.35px; stroke: rgb(78, 94, 97);"></path><!----> <path d="M68.61 57.84L59.12 56.4" fill="none" data-connection="6" class="" style="stroke-width: 0.35px; stroke: rgb(78, 94, 97);"></path><!----> <path d="M39.68 56.34L30.19 57.77" fill="none" data-connection="7" class="" style="stroke-width: 0.35px; stroke: rgb(78, 94, 97);"></path></g></g> <g class="back"><g><!----> <path d="M68.88 57.07 L68.88 57.07 L68.70834409380628 58.056884943152035 L68.49057856705407 59.02571313485725 L68.23953618893763 60.00084840726828 L67.44868035916039 62.886922901058526 L67.19989287144254 63.85731331326808 L66.96924697644604 64.83092474658902 L66.76026761496175 65.8072782549074 L66.57513413039368 66.78573805679193 L66.41079733113193 67.79357829889459 L66.27668400443514 68.77477260392901 L66.16768875149958 69.75716076241171 L66.08155094590296 70.76462625045596 L66.02071969038118 71.76807870618508 L65.98445599806597 72.74723162319182 L65.9698820271404 73.75850116998154 L65.9872710323947 74.75665927223305 L66.04570871745504 75.77440915734057 L66.13132620953353 76.73929439484844 L66.2476351689913 77.75810752128555 L66.37939642933257 78.73220360601547 L66.69490020392367 80.70540386345134 L67.06109482303935 82.6866240688198 L67.45872401040249 84.65008855497322 L68.09065423433313 87.56434534063752 L69.18931767126774 92.44964842443954 L69.78974611380792 95.38753518900177 L70.14159503213006 97.35651023494232 L70.4412146886879 99.3355882395033 L70.67424472290311 101.32400129271169 L70.76038841579881 102.32059215762555 L70.82291153472192 103.31765746835927 L70.92136651442821 106.31718324544106 L70.9836314012049 109.33432070077517 L71.02288919574674 112.30905377674047 L71.05141379091174 116.33148942289736 L71.05870835291948 120.30281004073396 L71.02302360326394 128.3204709833629 L70.34687030232097 128.64 L28.346870302320966 128.64 L27.91453127417589 128.0826813061073 L27.88305628841261 123.07984353732952 L27.87736759487929 118.05690765592372 L27.893928090683037 114.09115334556027 L27.935844552441928 110.07865549178862 L27.991038917761962 107.058558035471 L28.076816896650644 104.06802404039951 L28.121091964812884 103.0720350902806 L28.188155815688557 102.07473174660562 L28.275993226325085 101.07798876831133 L28.382584283811703 100.08264170580595 L28.645098733633105 98.0981620431328 L28.79806602177569 97.10951305652551 L29.141314540605435 95.13944754296728 L29.735041088349956 92.20008666951645 L30.831641374276426 87.31201947201089 L31.459542943513007 84.39547834024363 L31.85365951110646 82.4296169248116 L32.2146920877089 80.44623899660564 L32.52242190334506 78.47131511940414 L32.64899420714961 77.4959516327307 L32.75533348891813 76.50889863394613 L32.83575051355987 75.5113927116074 L32.88293357096291 74.49802574664851 L32.888549074651536 73.5128351694055 L32.86634008132013 72.50187688712727 L32.81802097273634 71.49820697299718 L32.742244737701874 70.49214890706985 L32.640980891049416 69.51047855690797 L32.5124810649079 68.53232789286862 L32.35150834345765 67.52881061356334 L32.16695997830301 66.55480223866584 L31.955573089221787 65.58308524646158 L31.712973389066057 64.59058218961735 L31.17740594307087 62.665477410404414 L30.321806555489417 59.818573400016064 L30.058545624186557 58.85318172116974 L29.831113037534735 57.86284574012295L29.796577919503328 56.66025968711414 L 30.037580465932173 55.65038970812437 L 30.224363381781167 54.67562852278378 L 30.374257817294875 53.71351102412012 L 30.501101628369547 52.704788672557754 L 30.601321187023906 51.69651106963932 L 30.674744844475462 50.73882116027862 L 30.731215010950127 49.73035314761801 L 30.76828261115198 48.70288889939754 L 30.785042786698707 46.73319145026288 L 30.73048147076459 44.71712971272472 L 30.675834560814728 43.71299252160403 L 30.51163060129417 41.74064189743405 L 30.395534241946375 40.73036725682753 L 30.261847880548824 39.76620829278526 L 30.09375217993583 38.75134814257824 L 29.90265869509944 37.782119984397525 L 29.674815131438155 36.81028701203604 L 29.40216106379578 35.841818511288245 L 29.074638075112034 34.89028083437634 L 28.68 33.98 L 28.68 33.98 L28.771652003709853 33.90387056437142 L 39.99206353152071 29.649183132071684 L 40.95 29.71 L 40.95 29.71 L41.16857451320409 29.7956915617438 L 42.14739847605616 30.017806155912574 L 43.13999934423637 30.2029591368318 L 44.12138779850296 30.351636772462257 L 45.10045234799922 30.46949485830934 L 46.10555750186709 30.56144225261819 L 47.11212101038679 30.625880686094483 L 48.11819101002607 30.663887905343827 L 49.122506473114946 30.676252070892147 L 50.10009183917676 30.664067316325067 L 51.12329736768815 30.62569986367705 L 52.11926854283708 30.56283252701695 L 53.11219856853482 30.47440682246847 L 54.102004889999044 30.359643209335378 L 55.08844155888744 30.21743140190751 L 56.07097430350128 30.046327424984874 L 57.04865573391673 29.84455319215711 L 58.02 29.61 L 58.02 29.61 L58.80935911562757 29.749048618637083 L 70.05 33.95 L 70.05 33.95 L69.67309441311792 34.37739808675934 L 69.32954724694355 35.30199973340275 L 69.04552216387569 36.24268240817137 L 68.80256548962092 37.2116038719758 L 68.58953375433794 38.22671212119121 L 68.41817231098106 39.196347623580934 L 68.27393523920307 40.16138137138322 L 68.14716764818053 41.174346720396464 L 68.04339573117598 42.18272702572888 L 67.89847316322061 44.15288454409421 L 67.85192584469534 45.15544875875151 L 67.81119661039826 47.16103369491518 L 67.84034237686797 49.1631134179164 L 67.9433087677451 51.15473127676795 L 68.02441651245103 52.1360440188541 L 68.13193617817835 53.14642069786194 L 68.2671874051751 54.15497461438507 L 68.42722934145776 55.117434812015915 L 68.62746385494435 56.09129665872539 L 68.88 57.07 L 68.88 57.07 Z" fill="#000080" data-connection="1" class="" style="stroke-width: 0.65px; stroke: rgb(78, 94, 97);"></path><!----> <path d="M47.26 30.63146724486536 L47.26 128.64 L51.94 128.64 L51.94 30.63146724486536 " fill="none" data-connection="2" class="" style="stroke-width: 0.35px; stroke: rgb(78, 94, 97);"></path><!----> <path d="M50 128.64 L49.53 128.44 L49.06 128.24 L48.86 127.94 L49.06 127.64 L49.53 127.44 L50 127.24 L50.2 126.93 L50 126.63 L49.53 126.43 L49.06 126.23 L48.86 125.93 L49.06 125.63 L49.53 125.43 L50 125.23 L50.2 124.93 L50 124.63 L49.53 124.43 L49.06 124.23 L48.86 123.93 L49.06 123.63 L49.53 123.43 L50 123.23 L50.2 122.93 L50 122.62 L49.53 122.42 L49.06 122.22 L48.86 121.92 L49.06 121.59 L49.53 121.29 L50 120.99 L50.2 120.65 L50 120.35 L49.53 120.15 L49.06 119.95 L48.86 119.65 L49.06 119.35 L49.53 119.15 L50 118.95 L50.2 118.65 L50 118.35 L49.53 118.15 L49.06 117.95 L48.86 117.65 L49.06 117.35 L49.53 117.15 L50 116.94 L50.2 116.64 L50 116.34 L49.53 116.14 L49.06 115.94 L48.86 115.64 L49.06 115.34 L49.53 115.14 L50 114.94 L50.2 114.64 L50 114.34 L49.53 114.14 L49.06 113.94 L48.86 113.64 L49.06 113.34 L49.53 113.14 L50 112.94 L50.2 112.63 L50 112.33 L49.53 112.13 L49.06 111.93 L48.86 111.63 L49.06 111.33 L49.53 111.13 L50 110.93 L50.2 110.63 L50 110.33 L49.53 110.13 L49.06 109.93 L48.86 109.63 L49.06 109.33 L49.53 109.13 L50 108.93 L50.2 108.63 L50 108.32 L49.53 108.12 L49.06 107.92 L48.86 107.62 L49.06 107.32 L49.53 107.12 L50 106.92 L50.2 106.62 L50 106.32 L49.53 106.12 L49.06 105.92 L48.86 105.62 L49.06 105.32 L49.53 105.12 L50 104.92 L50.2 104.62 L50 104.32 L49.53 104.11 L49.06 103.91 L48.86 103.61 L49.06 103.31 L49.53 103.11 L50 102.91 L50.2 102.61 L50 102.31 L49.53 102.11 L49.06 101.91 L48.86 101.61 L49.06 101.31 L49.53 101.11 L50 100.91 L50.2 100.61 L50 100.31 L49.53 100.11 L49.06 99.9 L48.86 99.6 L49.06 99.3 L49.53 99.1 L50 98.9 L50.2 98.6 L50 98.3 L49.53 98.1 L49.06 97.9 L48.86 97.6 L49.06 97.3 L49.53 97.1 L50 96.9 L50.2 96.6 L50 96.3 L49.53 96.1 L49.06 95.9 L48.86 95.59 L49.06 95.29 L49.53 95.09 L50 94.89 L50.2 94.59 L50 94.29 L49.53 94.09 L49.06 93.89 L48.86 93.59 L49.06 93.29 L49.53 93.09 L50 92.89 L50.2 92.59 L50 92.29 L49.53 92.09 L49.06 91.89 L48.86 91.59 L49.06 91.28 L49.53 91.08 L50 90.88 L50.2 90.58 L50 90.28 L49.53 90.08 L49.06 89.88 L48.86 89.58 L49.06 89.28 L49.53 89.08 L50 88.88 L50.2 88.58 L50 88.28 L49.53 88.08 L49.06 87.88 L48.86 87.58 L49.06 87.28 L49.53 87.07 L50 86.87 L50.2 86.57 L50 86.27 L49.53 86.07 L49.06 85.87 L48.86 85.57 L49.06 85.27 L49.53 85.07 L50 84.87 L50.2 84.57 L50 84.3 L49.53 84.1 L49.06 83.9 L48.86 83.6 L49.06 83.3 L49.53 83.1 L50 82.9 L50.2 82.6 L50 82.3 L49.53 82.1 L49.06 81.9 L48.86 81.6 L49.06 81.29 L49.53 81.09 L50 80.89 L50.2 80.59 L50 80.29 L49.53 80.09 L49.06 79.89 L48.86 79.59 L49.06 79.29 L49.53 79.09 L50 78.89 L50.2 78.59 L50 78.32 L49.53 78.12 L49.06 77.92 L48.86 77.62 L49.06 77.32 L49.53 77.12 L50 76.92 L50.2 76.62 L50 76.32 L49.53 76.12 L49.06 75.92 L48.86 75.61 L49.06 75.31 L49.53 75.11 L50 74.91 L50.2 74.61 L50 74.31 L49.53 74.11 L49.06 73.91 L48.86 73.61 L49.06 73.31 L49.53 73.11 L50 72.91 L50.2 72.61 L50 72.34 L49.53 72.14 L49.06 71.94 L48.86 71.64 L49.06 71.34 L49.53 71.14 L50 70.94 L50.2 70.64 L50 70.34 L49.53 70.13 L49.06 69.93 L48.86 69.63 L49.06 69.33 L49.53 69.13 L50 68.93 L50.2 68.63 L50 68.36 L49.53 68.16 L49.06 67.96 L48.86 67.66 L49.06 67.36 L49.53 67.16 L50 66.96 L50.2 66.66 L50 66.36 L49.53 66.16 L49.06 65.96 L48.86 65.66 L49.06 65.36 L49.53 65.16 L50 64.96 L50.2 64.66 L50 64.39 L49.53 64.19 L49.06 63.99 L48.86 63.69 L49.06 63.39 L49.53 63.19 L50 62.98 L50.2 62.68 L50 62.38 L49.53 62.18 L49.06 61.98 L48.86 61.68 L49.06 61.38 L49.53 61.18 L50 60.98 L50.2 60.68 L50 60.41 L49.53 60.21 L49.06 60.01 L48.86 59.71 L49.06 59.41 L49.53 59.21 L50 59.01 L50.2 58.71 L50 58.44 L49.53 58.24 L49.06 58.04 L48.86 57.74 L49.06 57.44 L49.53 57.24 L50 57.04 L50.2 56.74 L50 56.47 L49.53 56.27 L49.06 56.07 L48.86 55.77 L49.06 55.47 L49.53 55.27 L50 55.07 L50.2 54.77 L50 54.46 L49.53 54.26 L49.06 54.06 L48.86 53.76 L49.06 53.46 L49.53 53.26 L50 53.06 L50.2 52.76 L50 52.46 L49.53 52.26 L49.06 52.06 L48.86 51.76 L49.06 51.46 L49.53 51.26 L50 51.06 L50.2 50.76 L50 50.49 L49.53 50.29 L49.06 50.09 L48.86 49.79 L49.06 49.49 L49.53 49.29 L50 49.09 L50.2 48.78 L50 48.48 L49.53 48.28 L49.06 48.08 L48.86 47.78 L49.06 47.48 L49.53 47.28 L50 47.08 L50.2 46.78 L50 46.51 L49.53 46.31 L49.06 46.11 L48.86 45.81 L49.06 45.51 L49.53 45.31 L50 45.11 L50.2 44.81 L50 44.54 L49.53 44.34 L49.06 44.14 L48.86 43.84 L49.06 43.54 L49.53 43.34 L50 43.14 L50.2 42.84 L50 42.54 L49.53 42.34 L49.06 42.14 L48.86 41.84 L49.06 41.53 L49.53 41.33 L50 41.13 L50.2 40.83 L50 40.57 L49.53 40.37 L49.06 40.16 L48.86 39.86 L49.06 39.56 L49.53 39.36 L50 39.16 L50.2 38.86 L50 38.59 L49.53 38.39 L49.06 38.19 L48.86 37.89 L49.06 37.59 L49.53 37.39 L50 37.19 L50.2 36.89 L50 36.62 L49.53 36.42 L49.06 36.22 L48.86 35.92 L49.06 35.62 L49.53 35.42 L50 35.22 L50.2 34.92 L50 34.65 L49.53 34.45 L49.06 34.25 L48.86 33.95 L49.06 33.65 L49.53 33.45 L50 33.25 L50.2 32.95 L50 32.68 L49.53 32.48 L49.06 32.28 L48.86 31.98 L49.06 31.68 L49.53 31.48 L50 31.28 L50.2 30.98 L50 30.68 L49.96647201344564 30.665732771678996 " fill="none" data-connection="3" class="" style="stroke-width: 0.35px; stroke: rgb(78, 94, 97);"></path><!----> <path d="M69.91 33.98C72.49 34.35 76.06 43.14 78.67 51.52 82.68 64.42 94.61 90.62 95.11 92.22 92.7 94.69 90.7 95.46 87.25 96.7 87.32 97.3 68.98 57 68.98 57 67.24 51.09 67.51 38.9 69.91 33.98Z" fill="#000080" data-connection="4" class="" style="stroke-width: 0.65px; stroke: rgb(78, 94, 97);"></path><!----> <path d="M28.68 33.98C26.11 34.35 22.54 43.14 19.93 51.52 15.92 64.42 3.99 90.28 3.49 91.89 5.9 94.36 7.9 95.46 11.34 96.7 11.28 97.3 29.62 57 29.62 57 31.32 51.12 31.09 38.9 28.68 33.98Z" fill="#000080" data-connection="5" class="" style="stroke-width: 0.65px; stroke: rgb(78, 94, 97);"></path><!----> <path d="M49.43 128.64 L49.43 120.49 L49.43 117.15 L49.43 110.46 L49.43 103.78 L49.43 97.1 L49.43 90.42 L49.43 83.73 L49.43 77.05 L49.43 70.37 L49.43 60.35 L49.43 50.32 L49.43 43.64 L49.43 36.96 L49.43 30.67241943050479 " fill="none" data-connection="6" class="" style="stroke-width: 0.35px; stroke: rgb(78, 94, 97);"></path><!----> <path d="M58.82 58.67 L58.82 58.67 L58.688404427996446 59.663654869011225 L58.48117813254795 61.6571508711278 L58.32687674799582 63.65189111770059 L58.217213921443445 65.66401669540211 L58.13348424675031 68.63175591513313 L58.12793929771084 70.65515974853372 L58.16237690430502 72.62671807691508 L58.19585154757857 73.65090973524059 L58.29135717026526 75.63510942305838 L58.3561765338941 76.65201118488272 L58.511686800662645 78.60783021732014 L58.71704738167392 80.63764490730918 L58.962265193532076 82.61976694480431 L59.10072632281701 83.60243120393673 L59.21212753508794 84.58520441336242 L59.55016657983142 88.57107114911383 L59.69547857538022 90.56801196281232 " fill="none" data-connection="7" class="" style="stroke-width: 0.35px; stroke: rgb(78, 94, 97);"></path><!----> <path d="M39.28 91.15 L39.28 91.15 L39.33083622386581 90.15723687653181 L39.404044195347 89.1552991982873 L39.82509995685855 84.16635598459607 L40.219233162032864 81.1890892005116 L40.43055801052363 79.22620805627771 L40.524072582650106 78.20065499197179 L40.671486967411056 76.23857135239813 L40.73226770090371 75.21493508443264 L40.81973955809493 73.21394337276776 L40.874320933923684 70.23350867404511 L40.86031124443084 68.22036370809923 L40.80605853470363 66.23688237942268 L40.70837290247141 64.21649487730366 L40.569576850949616 62.24816663250695 L40.3759350248143 60.22259788152515 L40.26200447083226 59.26471504286032 " fill="none" data-connection="8" class="" style="stroke-width: 0.35px; stroke: rgb(78, 94, 97);"></path><!----> <path d="M63.7 40.53 L63.7 40.53 L64.22448000322042 38.60240461764339 L64.71300988357213 36.66165135463551 L65.15794367601924 34.70849051304732 L65.55329459717046 32.748544503833536 " fill="none" data-connection="9" class="" style="stroke-width: 0.35px; stroke: rgb(78, 94, 97);"></path><!----> <path d="M33.19 32.28 L33.19 32.28 L33.57172510251304 34.24032979174378 L34.00928933949248 36.19491689474133 L34.49361013680381 38.13739545407171 L35.01321421480294 40.06735611545618 " fill="none" data-connection="10" class="" style="stroke-width: 0.35px; stroke: rgb(78, 94, 97);"></path><!----> <path d="M63.43 41.43C63.53 41.13 63.6 40.83 63.7 40.53" fill="none" data-connection="11" class="" style="stroke-width: 0.35px; stroke: rgb(78, 94, 97);"></path><!----> <path d="M35.17 40.63C35.2 40.73 35.23 40.87 35.27 40.97" fill="none" data-connection="12" class="" style="stroke-width: 0.35px; stroke: rgb(78, 94, 97);"></path></g></g></g> </g> </svg>
