<!-- SLEEVE3: Scoop Neck backline: back curved seam full zipper Color: black -->
<svg xmlns="http://www.w3.org/2000/svg" xmlns:xlink= "http://www.w3.org/1999/xlink" viewBox="25 50 250 300" preserveAspectRatio="xMidYMid meet" class="main-area"><g class="front-view"><g transform="translate(61,50)" class="area1-34"><g class="back" style="transform: translate(99px, 0px) scale(-1, 1);"><g><!----> <path d="M60.33068052601272 128.26248815553646 M60.33463650533554 128.64 L38.552352395429686 128.64 L38.68318681719495 117.01881347167459 L38.80276904830048 108.83155778711205 L38.9301471895158 101.809869063846 L39.10422518632119 94.96215988469763 L39.176265731912494 93.0301234214265 L39.286706933292095 90.92404687790444 L39.43708693194914 88.92661525821404 L39.71019924366281 85.94307185644364 L39.80611086160586 84.94665102243479 L40.0704928211018 82.97080131035557 L40.290334960080585 80.96170343933562 L40.46666821743989 78.98946938384103 L40.61867911248325 76.9832579067296 L40.80515961753269 73.9941576173283 L40.943258249615376 71.00020310140962 L40.97950848704328 68.99284307004183 L40.96829216590787 67.9796790252807 L40.93778067060175 67.00254300820504 L40.88430165254845 65.97814472548545 L40.81211905948825 65.00181023059403 L40.71834457555714 64.02442476350079 L40.60166897368131 63.04285169163317 L40.45494039086296 62.018882617617784 L40.29301089909339 61.05789146835069 L40.097132963871815 60.05141925394416 L39.8880109309238 59.10813970328867 L39.64004418396135 58.11589885028859 L39.36859755587613 57.14636316015577 L39.07296240994159 56.195853679351906 L38.751555171500534 55.25963025811966 L38.38970494834126 54.30159976538437 L38.00792546039506 53.379628507674056 L37.60243031698269 52.48208957381291 L37.16743591881355 51.59701504635845 L36.6953606209275 50.71308222989778 L36.199516886955976 49.857657962303826 L35.64473607542506 48.97663038148062 L35.07587012494482 48.145644567511674 L34.49355867732149 47.361794832860014 L33.87488697571077 46.59515802967781 L33.21441754109158 45.845154949989855 L32.521315997745475 45.12892898162244 L31.76812611176989 44.43087544620758 L30.99 43.81 L30.99 43.81 L30.675834560814728 43.71299252160403 L30.51163060129417 41.74064189743405 L30.395534241946375 40.73036725682753 L30.261847880548824 39.76620829278526 L30.09375217993583 38.75134814257824 L29.90265869509944 37.782119984397525 L29.674815131438155 36.81028701203604 L29.40216106379578 35.841818511288245 L29.074638075112034 34.89028083437634 L28.68 33.98 L28.68 33.98 L28.778347141218383 33.901331823493294 L39.998758669029236 29.646644391193558 L40.95 29.74 L40.95 29.74 L41.16857451320409 29.7956915617438 L42.14739847605616 30.017806155912574 L43.13999934423637 30.2029591368318 L44.12138779850296 30.351636772462257 L45.10045234799922 30.46949485830934 L46.10555750186709 30.56144225261819 L47.11212101038679 30.625880686094483 L48.11819101002607 30.663887905343827 L49.122506473114946 30.676252070892147 L50.10009183917676 30.664067316325067 L51.12329736768815 30.62569986367705 L52.11926854283708 30.56283252701695 L53.11219856853482 30.47440682246847 L54.102004889999044 30.359643209335378 L55.08844155888744 30.21743140190751 L56.07097430350128 30.046327424984874 L57.04865573391673 29.84455319215711 L58.02 29.61 L58.02 29.61 L58.80935911562757 29.749048618637083 L70.05 33.95 L70.05 33.95 L69.67309441311792 34.37739808675934 L69.32954724694355 35.30199973340275 L69.04552216387569 36.24268240817137 L68.80256548962092 37.2116038719758 L68.58953375433794 38.22671212119121 L68.41817231098106 39.196347623580934 L68.27393523920307 40.16138137138322 L68.14716764818053 41.174346720396464 L68.04339573117598 42.18272702572888 L67.31567032941622 44.44260980252539 L67.31567032941622 44.44260980252538 L66.67761809594458 45.22769409261838 L66.05607488887613 46.05161774613279 L65.48162295231703 46.86426678320564 L64.93662132790269 47.682449780171524 L64.39951236873338 48.53674917984373 L63.907725202881956 49.36423744999357 L63.39284851627084 50.281623119908936 L62.94851250923742 51.11993354821436 L62.478743819657055 52.05905933156663 L62.06042903597009 52.947081658032005 L61.66505323773665 53.83768495830465 L61.26300540875849 54.80231743752962 L60.92173661993504 55.675422021153004 L60.5670442986776 56.645158858003775 L60.244050377919464 57.59392322678204 L59.950019335817004 58.523312478548476 L59.66252523582502 59.5060777407542 L59.40177283448704 60.47607746562527 L59.165891435817755 61.435137214278164 L58.945732327721814 62.42053084804733 L58.74901569802838 63.39844231207732 L58.56889158501147 64.40401124811788 L58.421094733771376 65.3396050403574 L58.28412941369781 66.33730207225375 L58.16842769505755 67.33196078780938 L58.069029441907354 68.3756090392322 L57.94132008702731 70.35034852946856 L57.90643621183173 71.34043717346552 L57.89393142133668 73.33486336063622 L57.956671186561394 75.33752360345468 L58.09027216890186 77.33210404249193 L58.18057981111608 78.3313600952535 L58.400967206968424 80.32720577034726 L58.666264843450534 82.31316850622136 L58.968368498435424 84.28420777507019 L59.087162580925906 85.27780047526548 L59.370097910381986 88.25559659131378 L59.53957463028926 90.25146433115708 L59.655716529104645 92.21717422380402 L59.74194394318849 94.2548525869627 L59.83581319446073 97.30563063224321 L59.929900676303845 101.24670299282391 L60.06127559632852 108.25444417826957 L60.19516132171091 117.23654446876952 L60.33068052601272 128.26248815553646 L60.33463650533554 128.64 Z" fill="#000000" data-connection="1" class="" style="stroke-width: 0.65px; stroke: rgb(78, 94, 97);"></path><!----> <path d="M47.26 30.63146724486536 L47.26 128.64 L51.94 128.64 L51.94 30.63146724486536 " fill="none" data-connection="2" class="" style="stroke-width: 0.35px; stroke: rgb(78, 94, 97);"></path><!----> <path d="M38.68318681719495 117.01881347167459 M38.552352395429686 128.64 L28.346870302320966 128.64 L27.91453127417589 128.0826813061073 L27.88305628841261 123.07984353732952 L27.87736759487929 118.05690765592372 L27.893928090683037 114.09115334556027 L27.935844552441928 110.07865549178862 L27.991038917761962 107.058558035471 L28.076816896650644 104.06802404039951 L28.121091964812884 103.0720350902806 L28.188155815688557 102.07473174660562 L28.275993226325085 101.07798876831133 L28.382584283811703 100.08264170580595 L28.645098733633105 98.0981620431328 L28.79806602177569 97.10951305652551 L29.141314540605435 95.13944754296728 L29.735041088349956 92.20008666951645 L30.831641374276426 87.31201947201089 L31.459542943513007 84.39547834024363 L31.85365951110646 82.4296169248116 L32.2146920877089 80.44623899660564 L32.52242190334506 78.47131511940414 L32.64899420714961 77.4959516327307 L32.75533348891813 76.50889863394613 L32.83575051355987 75.5113927116074 L32.88293357096291 74.49802574664851 L32.888549074651536 73.5128351694055 L32.86634008132013 72.50187688712727 L32.81802097273634 71.49820697299718 L32.742244737701874 70.49214890706985 L32.640980891049416 69.51047855690797 L32.5124810649079 68.53232789286862 L32.35150834345765 67.52881061356334 L32.16695997830301 66.55480223866584 L31.955573089221787 65.58308524646158 L31.712973389066057 64.59058218961735 L31.17740594307087 62.665477410404414 L30.321806555489417 59.818573400016064 L30.058545624186557 58.85318172116974 L29.831113037534735 57.86284574012295 L29.796577919503328 56.66025968711414 L30.037580465932173 55.65038970812437 L30.224363381781167 54.67562852278378 L30.374257817294875 53.71351102412012 L30.501101628369547 52.704788672557754 L30.601321187023906 51.69651106963932 L30.674744844475462 50.73882116027862 L30.731215010950127 49.73035314761801 L30.76828261115198 48.70288889939754 L30.785042786698707 46.73319145026288 L30.99 43.81 L30.99 43.81 L31.76812611176989 44.43087544620758 L32.521315997745475 45.12892898162244 L33.21441754109158 45.845154949989855 L33.87488697571077 46.59515802967781 L34.49355867732149 47.361794832860014 L35.07587012494482 48.145644567511674 L35.64473607542506 48.97663038148062 L36.199516886955976 49.857657962303826 L36.6953606209275 50.71308222989778 L37.16743591881355 51.59701504635845 L37.60243031698269 52.48208957381291 L38.00792546039506 53.379628507674056 L38.38970494834126 54.30159976538437 L38.751555171500534 55.25963025811966 L39.07296240994159 56.195853679351906 L39.36859755587613 57.14636316015577 L39.64004418396135 58.11589885028859 L39.8880109309238 59.10813970328867 L40.097132963871815 60.05141925394416 L40.29301089909339 61.05789146835069 L40.45494039086296 62.018882617617784 L40.60166897368131 63.04285169163317 L40.71834457555714 64.02442476350079 L40.81211905948825 65.00181023059403 L40.88430165254845 65.97814472548545 L40.93778067060175 67.00254300820504 L40.96829216590787 67.9796790252807 L40.97950848704328 68.99284307004183 L40.943258249615376 71.00020310140962 L40.80515961753269 73.9941576173283 L40.61867911248325 76.9832579067296 L40.46666821743989 78.98946938384103 L40.290334960080585 80.96170343933562 L40.0704928211018 82.97080131035557 L39.80611086160586 84.94665102243479 L39.71019924366281 85.94307185644364 L39.43708693194914 88.92661525821404 L39.286706933292095 90.92404687790444 L39.176265731912494 93.0301234214265 L39.10422518632119 94.96215988469763 L38.9301471895158 101.809869063846 L38.80276904830048 108.83155778711205 L38.68318681719495 117.01881347167459 L38.552352395429686 128.64 Z" fill="#000000" data-connection="3" class="" style="stroke-width: 0.65px; stroke: rgb(78, 94, 97);"></path><!----> <path d="M68.88 57.07 M68.88 57.07 M68.88 57.07 L68.88 57.07 L68.70834409380628 58.056884943152035 L68.49057856705407 59.02571313485725 L68.23953618893763 60.00084840726828 L67.44868035916039 62.886922901058526 L67.19989287144254 63.85731331326808 L66.96924697644604 64.83092474658902 L66.76026761496175 65.8072782549074 L66.57513413039368 66.78573805679193 L66.41079733113193 67.79357829889459 L66.27668400443514 68.77477260392901 L66.16768875149958 69.75716076241171 L66.08155094590296 70.76462625045596 L66.02071969038118 71.76807870618508 L65.98445599806597 72.74723162319182 L65.9698820271404 73.75850116998154 L65.9872710323947 74.75665927223305 L66.04570871745504 75.77440915734057 L66.13132620953353 76.73929439484844 L66.2476351689913 77.75810752128555 L66.37939642933257 78.73220360601547 L66.69490020392367 80.70540386345134 L67.06109482303935 82.6866240688198 L67.45872401040249 84.65008855497322 L68.09065423433313 87.56434534063752 L69.18931767126774 92.44964842443954 L69.78974611380792 95.38753518900177 L70.14159503213006 97.35651023494232 L70.4412146886879 99.3355882395033 L70.67424472290311 101.32400129271169 L70.76038841579881 102.32059215762555 L70.82291153472192 103.31765746835927 L70.92136651442821 106.31718324544106 L70.9836314012049 109.33432070077517 L71.02288919574674 112.30905377674047 L71.05141379091174 116.33148942289736 L71.05870835291948 120.30281004073396 L71.02302360326394 128.3204709833629 L70.34687030232097 128.64 L60.33463650533554 128.64 L60.33068052601272 128.26248815553646 L60.19516132171091 117.23654446876952 L60.06127559632852 108.25444417826957 L59.929900676303845 101.24670299282391 L59.83581319446073 97.30563063224321 L59.74194394318849 94.2548525869627 L59.655716529104645 92.21717422380402 L59.53957463028926 90.25146433115708 L59.370097910381986 88.25559659131378 L59.087162580925906 85.27780047526548 L58.968368498435424 84.28420777507019 L58.666264843450534 82.31316850622136 L58.400967206968424 80.32720577034726 L58.18057981111608 78.3313600952535 L58.09027216890186 77.33210404249193 L57.956671186561394 75.33752360345468 L57.89393142133668 73.33486336063622 L57.90643621183173 71.34043717346552 L57.94132008702731 70.35034852946856 L58.069029441907354 68.3756090392322 L58.16842769505755 67.33196078780938 L58.28412941369781 66.33730207225375 L58.421094733771376 65.3396050403574 L58.56889158501147 64.40401124811788 L58.74901569802838 63.39844231207732 L58.945732327721814 62.42053084804733 L59.165891435817755 61.435137214278164 L59.40177283448704 60.47607746562527 L59.66252523582502 59.5060777407542 L59.950019335817004 58.523312478548476 L60.244050377919464 57.59392322678204 L60.5670442986776 56.645158858003775 L60.92173661993504 55.675422021153004 L61.26300540875849 54.80231743752962 L61.66505323773665 53.83768495830465 L62.06042903597009 52.947081658032005 L62.478743819657055 52.05905933156663 L62.94851250923742 51.11993354821436 L63.39284851627084 50.281623119908936 L63.907725202881956 49.36423744999357 L64.39951236873338 48.53674917984373 L64.93662132790269 47.682449780171524 L65.48162295231703 46.86426678320564 L66.05607488887613 46.05161774613279 L66.67761809594458 45.22769409261838 L67.31567032941622 44.44260980252538 L67.31567032941622 44.44260980252539 L67.85192584469534 45.15544875875151 L67.81119661039826 47.16103369491518 L67.84034237686797 49.1631134179164 L67.9433087677451 51.15473127676795 L68.02441651245103 52.1360440188541 L68.13193617817835 53.14642069786194 L68.2671874051751 54.15497461438507 L68.42722934145776 55.117434812015915 L68.62746385494435 56.09129665872539 L68.88 57.07 L68.88 57.07 Z" fill="#000000" data-connection="4" class="" style="stroke-width: 0.65px; stroke: rgb(78, 94, 97);"></path><!----> <path d="M50 128.64 L49.53 128.44 L49.06 128.24 L48.86 127.94 L49.06 127.64 L49.53 127.44 L50 127.24 L50.2 126.93 L50 126.63 L49.53 126.43 L49.06 126.23 L48.86 125.93 L49.06 125.63 L49.53 125.43 L50 125.23 L50.2 124.93 L50 124.63 L49.53 124.43 L49.06 124.23 L48.86 123.93 L49.06 123.63 L49.53 123.43 L50 123.23 L50.2 122.93 L50 122.62 L49.53 122.42 L49.06 122.22 L48.86 121.92 L49.06 121.59 L49.53 121.29 L50 120.99 L50.2 120.65 L50 120.35 L49.53 120.15 L49.06 119.95 L48.86 119.65 L49.06 119.35 L49.53 119.15 L50 118.95 L50.2 118.65 L50 118.35 L49.53 118.15 L49.06 117.95 L48.86 117.65 L49.06 117.35 L49.53 117.15 L50 116.94 L50.2 116.64 L50 116.34 L49.53 116.14 L49.06 115.94 L48.86 115.64 L49.06 115.34 L49.53 115.14 L50 114.94 L50.2 114.64 L50 114.34 L49.53 114.14 L49.06 113.94 L48.86 113.64 L49.06 113.34 L49.53 113.14 L50 112.94 L50.2 112.63 L50 112.33 L49.53 112.13 L49.06 111.93 L48.86 111.63 L49.06 111.33 L49.53 111.13 L50 110.93 L50.2 110.63 L50 110.33 L49.53 110.13 L49.06 109.93 L48.86 109.63 L49.06 109.33 L49.53 109.13 L50 108.93 L50.2 108.63 L50 108.32 L49.53 108.12 L49.06 107.92 L48.86 107.62 L49.06 107.32 L49.53 107.12 L50 106.92 L50.2 106.62 L50 106.32 L49.53 106.12 L49.06 105.92 L48.86 105.62 L49.06 105.32 L49.53 105.12 L50 104.92 L50.2 104.62 L50 104.32 L49.53 104.11 L49.06 103.91 L48.86 103.61 L49.06 103.31 L49.53 103.11 L50 102.91 L50.2 102.61 L50 102.31 L49.53 102.11 L49.06 101.91 L48.86 101.61 L49.06 101.31 L49.53 101.11 L50 100.91 L50.2 100.61 L50 100.31 L49.53 100.11 L49.06 99.9 L48.86 99.6 L49.06 99.3 L49.53 99.1 L50 98.9 L50.2 98.6 L50 98.3 L49.53 98.1 L49.06 97.9 L48.86 97.6 L49.06 97.3 L49.53 97.1 L50 96.9 L50.2 96.6 L50 96.3 L49.53 96.1 L49.06 95.9 L48.86 95.59 L49.06 95.29 L49.53 95.09 L50 94.89 L50.2 94.59 L50 94.29 L49.53 94.09 L49.06 93.89 L48.86 93.59 L49.06 93.29 L49.53 93.09 L50 92.89 L50.2 92.59 L50 92.29 L49.53 92.09 L49.06 91.89 L48.86 91.59 L49.06 91.28 L49.53 91.08 L50 90.88 L50.2 90.58 L50 90.28 L49.53 90.08 L49.06 89.88 L48.86 89.58 L49.06 89.28 L49.53 89.08 L50 88.88 L50.2 88.58 L50 88.28 L49.53 88.08 L49.06 87.88 L48.86 87.58 L49.06 87.28 L49.53 87.07 L50 86.87 L50.2 86.57 L50 86.27 L49.53 86.07 L49.06 85.87 L48.86 85.57 L49.06 85.27 L49.53 85.07 L50 84.87 L50.2 84.57 L50 84.3 L49.53 84.1 L49.06 83.9 L48.86 83.6 L49.06 83.3 L49.53 83.1 L50 82.9 L50.2 82.6 L50 82.3 L49.53 82.1 L49.06 81.9 L48.86 81.6 L49.06 81.29 L49.53 81.09 L50 80.89 L50.2 80.59 L50 80.29 L49.53 80.09 L49.06 79.89 L48.86 79.59 L49.06 79.29 L49.53 79.09 L50 78.89 L50.2 78.59 L50 78.32 L49.53 78.12 L49.06 77.92 L48.86 77.62 L49.06 77.32 L49.53 77.12 L50 76.92 L50.2 76.62 L50 76.32 L49.53 76.12 L49.06 75.92 L48.86 75.61 L49.06 75.31 L49.53 75.11 L50 74.91 L50.2 74.61 L50 74.31 L49.53 74.11 L49.06 73.91 L48.86 73.61 L49.06 73.31 L49.53 73.11 L50 72.91 L50.2 72.61 L50 72.34 L49.53 72.14 L49.06 71.94 L48.86 71.64 L49.06 71.34 L49.53 71.14 L50 70.94 L50.2 70.64 L50 70.34 L49.53 70.13 L49.06 69.93 L48.86 69.63 L49.06 69.33 L49.53 69.13 L50 68.93 L50.2 68.63 L50 68.36 L49.53 68.16 L49.06 67.96 L48.86 67.66 L49.06 67.36 L49.53 67.16 L50 66.96 L50.2 66.66 L50 66.36 L49.53 66.16 L49.06 65.96 L48.86 65.66 L49.06 65.36 L49.53 65.16 L50 64.96 L50.2 64.66 L50 64.39 L49.53 64.19 L49.06 63.99 L48.86 63.69 L49.06 63.39 L49.53 63.19 L50 62.98 L50.2 62.68 L50 62.38 L49.53 62.18 L49.06 61.98 L48.86 61.68 L49.06 61.38 L49.53 61.18 L50 60.98 L50.2 60.68 L50 60.41 L49.53 60.21 L49.06 60.01 L48.86 59.71 L49.06 59.41 L49.53 59.21 L50 59.01 L50.2 58.71 L50 58.44 L49.53 58.24 L49.06 58.04 L48.86 57.74 L49.06 57.44 L49.53 57.24 L50 57.04 L50.2 56.74 L50 56.47 L49.53 56.27 L49.06 56.07 L48.86 55.77 L49.06 55.47 L49.53 55.27 L50 55.07 L50.2 54.77 L50 54.46 L49.53 54.26 L49.06 54.06 L48.86 53.76 L49.06 53.46 L49.53 53.26 L50 53.06 L50.2 52.76 L50 52.46 L49.53 52.26 L49.06 52.06 L48.86 51.76 L49.06 51.46 L49.53 51.26 L50 51.06 L50.2 50.76 L50 50.49 L49.53 50.29 L49.06 50.09 L48.86 49.79 L49.06 49.49 L49.53 49.29 L50 49.09 L50.2 48.78 L50 48.48 L49.53 48.28 L49.06 48.08 L48.86 47.78 L49.06 47.48 L49.53 47.28 L50 47.08 L50.2 46.78 L50 46.51 L49.53 46.31 L49.06 46.11 L48.86 45.81 L49.06 45.51 L49.53 45.31 L50 45.11 L50.2 44.81 L50 44.54 L49.53 44.34 L49.06 44.14 L48.86 43.84 L49.06 43.54 L49.53 43.34 L50 43.14 L50.2 42.84 L50 42.54 L49.53 42.34 L49.06 42.14 L48.86 41.84 L49.06 41.53 L49.53 41.33 L50 41.13 L50.2 40.83 L50 40.57 L49.53 40.37 L49.06 40.16 L48.86 39.86 L49.06 39.56 L49.53 39.36 L50 39.16 L50.2 38.86 L50 38.59 L49.53 38.39 L49.06 38.19 L48.86 37.89 L49.06 37.59 L49.53 37.39 L50 37.19 L50.2 36.89 L50 36.62 L49.53 36.42 L49.06 36.22 L48.86 35.92 L49.06 35.62 L49.53 35.42 L50 35.22 L50.2 34.92 L50 34.65 L49.53 34.45 L49.06 34.25 L48.86 33.95 L49.06 33.65 L49.53 33.45 L50 33.25 L50.2 32.95 L50 32.68 L49.53 32.48 L49.06 32.28 L48.86 31.98 L49.06 31.68 L49.53 31.48 L50 31.28 L50.2 30.98 L50 30.68 L49.96647201344564 30.665732771678996 " fill="none" data-connection="5" class="" style="stroke-width: 0.35px; stroke: rgb(78, 94, 97);"></path><!----> <path d="M89.76 79.62C87.35 70.37 81.74 61.28 78.7 51.52 76.09 43.14 72.52 34.35 69.95 33.98 67.54 38.9 67.31 51.12 69.01 57 69.01 57 77.73 75.92 81.47 83.83 81.47 83.83 86.29 83.33 89.76 79.62Z" fill="#000000" data-connection="6" class="" style="stroke-width: 0.65px; stroke: rgb(78, 94, 97);"></path><!----> <path d="M17.16 83.83C20.9 75.92 29.62 57 29.62 57 31.32 51.12 31.09 38.9 28.68 33.98 26.11 34.35 22.54 43.14 19.93 51.52 16.89 61.28 11.18 71.54 8.87 79.62 8.87 79.62 13.55 83.47 17.16 83.83Z" fill="#000000" data-connection="7" class="" style="stroke-width: 0.65px; stroke: rgb(78, 94, 97);"></path><!----> <path d="M49.43 128.64 L49.43 120.49 L49.43 117.15 L49.43 110.46 L49.43 103.78 L49.43 97.1 L49.43 90.42 L49.43 83.73 L49.43 77.05 L49.43 70.37 L49.43 60.35 L49.43 50.32 L49.43 43.64 L49.43 36.96 L49.43 30.67241943050479 " fill="none" data-connection="8" class="" style="stroke-width: 0.35px; stroke: rgb(78, 94, 97);"></path><!----> <path d="M81.47 83.83L81.67 95.26C81.67 95.26 85.78 94.73 87.39 94.29 88.99 93.86 91.43 92.59 91.36 92.42 90.93 91.48 93.7 90.55 94.57 90.25 95.77 89.81 98.78 87.61 98.78 87.61 98.78 87.61 90.46 80.56 89.79 79.62 89.79 79.62 85.78 83.6 81.47 83.83Z" fill="#000000" data-connection="9" class="" style="stroke-width: 0.65px; stroke: rgb(78, 94, 97);"></path><!----> <path d="M17.16 83.83L16.96 95.26C16.96 95.26 12.85 94.73 11.24 94.29 9.64 93.86 7.2 92.59 7.27 92.42 7.7 91.48 4.93 90.55 4.06 90.25 2.86 89.81-0.15 87.61-0.15 87.61-0.15 87.61 8.17 80.56 8.84 79.62 8.84 79.62 12.81 83.1 17.16 83.83Z" fill="#000000" data-connection="10" class="" style="stroke-width: 0.65px; stroke: rgb(78, 94, 97);"></path><!----> <path d="M91.2 89.48C91.3 87.61 89.39 83.37 89.06 83.33" fill="none" data-connection="11" class="" style="stroke-width: 0.35px; stroke: rgb(78, 94, 97);"></path><!----> <path d="M8.14 88.34C8.04 86.47 9.94 82.23 10.27 82.2" fill="none" data-connection="12" class="" style="stroke-width: 0.35px; stroke: rgb(78, 94, 97);"></path><!----> <path d="M91.3 92.42C91.06 91.42 88.42 87.04 88.82 86.44" fill="none" data-connection="13" class="" style="stroke-width: 0.35px; stroke: rgb(78, 94, 97);"></path><!----> <path d="M8.04 91.28C8.27 90.28 10.91 85.91 10.51 85.3" fill="none" data-connection="14" class="" style="stroke-width: 0.35px; stroke: rgb(78, 94, 97);"></path></g></g> <g class="front"><g><!----> <path d="M60.324129675329715 127.8877415390553 M60.3320206545967 128.64 M60.3320206545967 128.64 L60.3320206545967 128.64 L38.55451890517759 128.64 L38.68020791693575 117.38142170054535 L38.81102455704226 108.40828864340291 L38.939416367416 101.41043625996531 L39.03126235424594 97.47629764446921 L39.12782598854428 94.28076535333388 L39.20666409861534 92.37183692271566 L39.31941923730505 90.39178881623425 L39.57299165344241 87.40719170269473 L39.86826921126053 84.41894781255765 L40.16382419911872 82.44760500266196 L40.43256752694851 80.46277433685454 L40.66307539066625 78.46822220600939 L40.84108203426026 76.47098275713556 L40.9050305101363 75.47460391622624 L40.973584710075194 73.47623985257675 L40.979120905130216 72.47779843006059 L40.93327646206409 70.49706217898542 L40.88178356170614 69.51112792659139 L40.806823851767675 68.4760409054744 L40.71464758954283 67.48461458007881 L40.60201149374328 66.49156399595908 L40.46826673049971 65.49543727741636 L40.31262946959791 64.49488653281696 L40.147014276301 63.55705023604931 L39.94658308182921 62.54559716803453 L39.73751740490145 61.596553522166985 L39.49648804819084 60.60340053581233 L39.23905475996051 59.63499448220033 L38.965625627768034 58.68877591411268 L38.65392785608779 57.69310641523992 L38.33466398559649 56.74797093656511 L38.007761555229024 55.84507337979087 L37.64766330859966 54.914329876992824 L37.250954911847735 53.95466795580189 L36.86158072108464 53.070134661909194 L36.427202394295925 52.14133388925618 L35.9875178618908 51.25561810230849 L35.531439586292954 50.38789353195584 L35.02723266364106 49.48238048964986 L34.548111551833365 48.66899086899919 L33.997485884984094 47.78560671431843 L33.45230461973871 46.96078796689981 L32.891946129587275 46.16130114008989 L32.26964239749697 45.32842918904316 L31.664796293164255 44.5746097710961 L30.99 43.81 L30.990000000000002 43.81 L30.675834560814728 43.71299252160403 L30.51163060129417 41.74064189743405 L30.395534241946375 40.73036725682753 L30.261847880548824 39.76620829278526 L30.09375217993583 38.75134814257824 L29.90265869509944 37.782119984397525 L29.674815131438155 36.81028701203604 L29.40216106379578 35.841818511288245 L29.074638075112034 34.89028083437634 L28.68 33.98 L28.68 33.98 L28.58 34.05 L28.58 34.05 L39.79639775165977 29.78474250758975 L40.30495454358044 29.820414655901708 L39.92176819951542 30.74358213849808 L39.61682133397359 31.695792401341702 L39.390876516204344 32.66985132577975 L39.24383363133383 33.658877136434874 L39.175022847642715 34.65634642821447 L39.18344737104758 35.65607882693517 L39.26797166936112 36.652172561609405 L39.38 37.39 L39.38 37.39 L39.58099193306625 38.36466395308127 L39.85056467016702 39.323954920357544 L40.18763709082986 40.26329179612198 L40.59150024897179 41.17777584992826 L41.06173993719649 42.06190316775921 L41.59808968820604 42.90929801441023 L42.2002164977886 43.71248860477364 L42.86744079450965 44.46275400305338 L43.59839377488136 45.15008064981451 L44.390620435425625 45.76327799529375 L45.240146798106096 46.29031168519081 L46.14104566321768 46.718913692157464 L47.36 47.09354890362027 L47.36 47.093548903620274 L47.36 47.68 L47.36 49.35 L47.36 51.02 L47.36 52.69 L47.36 54.36 L47.36 56.04 L47.36 57.71 L47.36 59.38 L47.36 61.05 L47.36 62.72 L47.36 64.39 L47.36 66.06 L47.36 67.73 L47.36 69.4 L47.36 71.07 L47.36 72.74 L47.36 74.41 L47.36 76.08 L47.36 77.75 L47.36 79.42 L47.36 81.09 L47.36 82.76 L47.36 84.44 L47.36 86.11 L47.36 87.78 L47.36 89.45 L47.36 91.12 L47.36 92.79 L47.36 94.46 L47.36 96.13 L47.36 97.8 L47.36 99.47 L47.36 101.14 L47.36 102.81 L47.36 104.48 L47.36 106.15 L47.36 107.82 L47.36 109.49 L47.36 111.16 L47.36 112.84 L47.36 114.51 L47.36 116.18 L47.36 117.85 L47.36 119.52 L47.36 121.19 L47.36 122.86 L47.36 124.53 L47.36 126.2 L47.36 127.87 L47.36 128.64 L52.07 128.64 L52.07 127.87 L52.07 126.2 L52.07 124.53 L52.07 122.86 L52.07 121.19 L52.07 119.52 L52.07 117.85 L52.07 116.18 L52.07 114.51 L52.07 112.84 L52.07 111.16 L52.07 109.49 L52.07 107.82 L52.07 106.15 L52.07 104.48 L52.07 102.81 L52.07 101.14 L52.07 99.47 L52.07 97.8 L52.07 96.13 L52.07 94.46 L52.07 92.79 L52.07 91.12 L52.07 89.45 L52.07 87.78 L52.07 86.11 L52.07 84.44 L52.07 82.76 L52.07 81.09 L52.07 79.42 L52.07 77.75 L52.07 76.08 L52.07 74.41 L52.07 72.74 L52.07 71.07 L52.07 69.4 L52.07 67.73 L52.07 66.06 L52.07 64.39 L52.07 62.72 L52.07 61.05 L52.07 59.38 L52.07 57.71 L52.07 56.04 L52.07 54.36 L52.07 52.69 L52.07 51.02 L52.07 49.35 L52.07 47.68 L52.07 47.093548903620274 L52.07 47.093548903620274 L52.95828114883467 46.599370854351164 L53.85059173709265 46.15247288341444 L54.68891963926419 45.61038838156144 L55.46692906596331 44.98334321355791 L56.180230667900645 44.282012092992716 L56.826011683312714 43.516869350462706 L57.40265369945943 42.697759980417274 L57.90937236167852 41.83366386875259 L58.345900224593684 40.93261534792878 L58.712223903446564 40.001739359748825 L59.00838032115684 39.04736978725075 L59.23431362821656 38.07522150436901 L59.36 37.32 L59.36 37.32 L59.46375438806894 36.325989174417934 L59.49715714266963 35.326750527157856 L59.459039790930426 34.327525617657294 L59.34797495121969 33.33372466322576 L59.1624425358288 32.35112111418332 L58.901068775791856 31.385990969150342 L58.562942400917095 30.44517998379599 L58.15411124505924 29.541567347017512 L69.3669126683616 33.81627017196203 L69.67309441311792 34.37739808675934 L69.32954724694355 35.30199973340275 L69.04552216387569 36.24268240817137 L68.80256548962092 37.2116038719758 L68.58953375433794 38.22671212119121 L68.41817231098106 39.196347623580934 L68.27393523920307 40.16138137138322 L68.14716764818053 41.174346720396464 L68.04339573117598 42.18272702572888 L67.51556760053487 44.21048762239662 L67.51556760053487 44.21048762239661 L66.89672519633305 44.95095027140296 L66.26476639761418 45.76860604830922 L65.68210693032805 46.57498378091658 L65.13004435195272 47.38664381018323 L64.58270794961798 48.23978385642288 L64.05806714395345 49.10643596698801 L63.554060995938684 49.98843269454904 L63.08680373773353 50.85409064987922 L62.642220148871516 51.7256668568385 L62.20794860258962 52.627928070242255 L61.7981412775874 53.531894276458864 L61.40697833912353 54.44946132266902 L61.03008228650709 55.392320792826 L60.68792029551501 56.3068630029605 L60.35451699195734 57.26162912765888 L60.040174855013724 58.23091810785202 L59.75416384261264 59.18388516314559 L59.48481288163328 60.15792824944845 L59.24093596689536 61.12036872642761 L59.02076606778728 62.07334013106119 L58.80904578327457 63.08848792676082 L58.633560757907055 64.02847025406564 L58.46769928042117 65.03138213455141 L58.324167252727605 66.02925330801779 L58.20211783479755 67.02337151190959 L58.10083714059479 68.01513649856912 L58.01974786811641 69.0060432169888 L57.91653025666507 70.99168935840547 L57.89334166000045 72.03861606699549 L57.907059903686246 74.01571549716265 L57.941349385638894 75.0095642379574 L58.06371414930299 77.00239669360809 L58.24882483898989 79.00058511318424 L58.48527064674079 80.99385480305608 L59.05477934563717 84.94952985617036 L59.43020010712577 88.9276648313055 L59.58321995992817 90.92502850420152 L59.69354225519806 93.02557478388465 L59.765617018500535 94.95359337227517 L59.91934264350883 100.8010155356859 L60.05265394965943 107.82114784451018 L60.190137768109366 117.00176904739506 L60.324129675329715 127.8877415390553 L60.3320206545967 128.64 Z" fill="#000000" data-connection="1" class="" style="stroke-width: 0.65px; stroke: rgb(78, 94, 97);"></path><!----> <path d="M38.68020791693575 117.38142170054535 M38.55451890517759 128.64 L28.346870302320966 128.64 L27.91453127417589 128.0826813061073 L27.88305628841261 123.07984353732952 L27.87736759487929 118.05690765592372 L27.893928090683037 114.09115334556027 L27.935844552441928 110.07865549178862 L27.991038917761962 107.058558035471 L28.076816896650644 104.06802404039951 L28.121091964812884 103.0720350902806 L28.188155815688557 102.07473174660562 L28.275993226325085 101.07798876831133 L28.382584283811703 100.08264170580595 L28.645098733633105 98.0981620431328 L28.79806602177569 97.10951305652551 L29.141314540605435 95.13944754296728 L29.735041088349956 92.20008666951645 L30.831641374276426 87.31201947201089 L31.459542943513007 84.39547834024363 L31.85365951110646 82.4296169248116 L32.2146920877089 80.44623899660564 L32.52242190334506 78.47131511940414 L32.64899420714961 77.4959516327307 L32.75533348891813 76.50889863394613 L32.83575051355987 75.5113927116074 L32.88293357096291 74.49802574664851 L32.88854093920181 73.51275325026786 L32.866108156895116 72.50161814820498 L32.81725684877949 71.49785887962977 L32.74063408119245 70.49185034702278 L32.63823608984754 69.51032932134754 L32.50830961408703 68.5324890624279 L32.345578345698 67.529501406525 L32.15903052314759 66.55612024669084 L31.94537492179474 65.58516399700774 L31.700183141959506 64.59354905479952 L31.158818888847037 62.670301327980546 L30.287937625522858 59.80818750055643 L30.026270597344755 58.861419675740905 L29.795204588013945 57.871617093687256 L29.796577919503328 56.66025968711414 L30.037580465932173 55.65038970812437 L30.224363381781167 54.67562852278378 L30.374257817294875 53.71351102412012 L30.501101628369547 52.704788672557754 L30.601321187023906 51.69651106963932 L30.674744844475462 50.73882116027862 L30.731215010950127 49.73035314761801 L30.76828261115198 48.70288889939754 L30.785042786698707 46.73319145026288 L30.990000000000002 43.81 L30.99 43.81 L31.664796293164255 44.5746097710961 L32.26964239749697 45.32842918904316 L32.891946129587275 46.16130114008989 L33.45230461973871 46.96078796689981 L33.997485884984094 47.78560671431843 L34.548111551833365 48.66899086899919 L35.02723266364106 49.48238048964986 L35.531439586292954 50.38789353195584 L35.9875178618908 51.25561810230849 L36.427202394295925 52.14133388925618 L36.86158072108464 53.070134661909194 L37.250954911847735 53.95466795580189 L37.64766330859966 54.914329876992824 L38.007761555229024 55.84507337979087 L38.33466398559649 56.74797093656511 L38.65392785608779 57.69310641523992 L38.965625627768034 58.68877591411268 L39.23905475996051 59.63499448220033 L39.49648804819084 60.60340053581233 L39.73751740490145 61.596553522166985 L39.94658308182921 62.54559716803453 L40.147014276301 63.55705023604931 L40.31262946959791 64.49488653281696 L40.46826673049971 65.49543727741636 L40.60201149374328 66.49156399595908 L40.71464758954283 67.48461458007881 L40.806823851767675 68.4760409054744 L40.88178356170614 69.51112792659139 L40.93327646206409 70.49706217898542 L40.979120905130216 72.47779843006059 L40.973584710075194 73.47623985257675 L40.9050305101363 75.47460391622624 L40.84108203426026 76.47098275713556 L40.66307539066625 78.46822220600939 L40.43256752694851 80.46277433685454 L40.16382419911872 82.44760500266196 L39.86826921126053 84.41894781255765 L39.57299165344241 87.40719170269473 L39.31941923730505 90.39178881623425 L39.20666409861534 92.37183692271566 L39.12782598854428 94.28076535333388 L39.03126235424594 97.47629764446921 L38.939416367416 101.41043625996531 L38.81102455704226 108.40828864340291 L38.68020791693575 117.38142170054535 L38.55451890517759 128.64 Z" fill="#000000" data-connection="2" class="" style="stroke-width: 0.65px; stroke: rgb(78, 94, 97);"></path><!----> <path d="M68.88 57.07 M68.88 57.07 L68.88 57.07 L68.70834409380628 58.056884943152035 L68.49057856705407 59.02571313485725 L68.23953618893763 60.00084840726828 L67.44868035916039 62.886922901058526 L67.19989287144254 63.85731331326808 L66.96924697644604 64.83092474658902 L66.76026761496175 65.8072782549074 L66.57513413039368 66.78573805679193 L66.41079733113193 67.79357829889459 L66.27668400443514 68.77477260392901 L66.16768875149958 69.75716076241171 L66.08155094590296 70.76462625045596 L66.02071969038118 71.76807870618508 L65.98445599806597 72.74723162319182 L65.9698820271404 73.75850116998154 L65.9872710323947 74.75665927223305 L66.04570871745504 75.77440915734057 L66.13132620953353 76.73929439484844 L66.2476351689913 77.75810752128555 L66.37939642933257 78.73220360601547 L66.69490020392367 80.70540386345134 L67.06109482303935 82.6866240688198 L67.45872401040249 84.65008855497322 L68.09065423433313 87.56434534063752 L69.18931767126774 92.44964842443954 L69.78974611380792 95.38753518900177 L70.14159503213006 97.35651023494232 L70.4412146886879 99.3355882395033 L70.67424472290311 101.32400129271169 L70.76038841579881 102.32059215762555 L70.82291153472192 103.31765746835927 L70.92136651442821 106.31718324544106 L70.9836314012049 109.33432070077517 L71.02288919574674 112.30905377674047 L71.05141379091174 116.33148942289736 L71.05870835291948 120.30281004073396 L71.02302360326394 128.3204709833629 L70.34687030232097 128.64 L60.3320206545967 128.64 L60.324129675329715 127.8877415390553 L60.190137768109366 117.00176904739506 L60.05265394965943 107.82114784451018 L59.91934264350883 100.8010155356859 L59.765617018500535 94.95359337227517 L59.69354225519806 93.02557478388465 L59.58321995992817 90.92502850420152 L59.43020010712577 88.9276648313055 L59.05477934563717 84.94952985617036 L58.48527064674079 80.99385480305608 L58.24882483898989 79.00058511318424 L58.06371414930299 77.00239669360809 L57.941349385638894 75.0095642379574 L57.907059903686246 74.01571549716265 L57.89334166000045 72.03861606699549 L57.91653025666507 70.99168935840547 L58.01974786811641 69.0060432169888 L58.10083714059479 68.01513649856912 L58.20211783479755 67.02337151190959 L58.324167252727605 66.02925330801779 L58.46769928042117 65.03138213455141 L58.633560757907055 64.02847025406564 L58.80904578327457 63.08848792676082 L59.02076606778728 62.07334013106119 L59.24093596689536 61.12036872642761 L59.48481288163328 60.15792824944845 L59.75416384261264 59.18388516314559 L60.040174855013724 58.23091810785202 L60.35451699195734 57.26162912765888 L60.68792029551501 56.3068630029605 L61.03008228650709 55.392320792826 L61.40697833912353 54.44946132266902 L61.7981412775874 53.531894276458864 L62.20794860258962 52.627928070242255 L62.642220148871516 51.7256668568385 L63.08680373773353 50.85409064987922 L63.554060995938684 49.98843269454904 L64.05806714395345 49.10643596698801 L64.58270794961798 48.23978385642288 L65.13004435195272 47.38664381018323 L65.68210693032805 46.57498378091658 L66.26476639761418 45.76860604830922 L66.89672519633305 44.95095027140296 L67.51556760053487 44.21048762239661 L67.51556760053487 44.21048762239662 L67.85192584469534 45.15544875875151 L67.81119661039826 47.16103369491518 L67.84034237686797 49.1631134179164 L67.9433087677451 51.15473127676795 L68.02441651245103 52.1360440188541 L68.13193617817835 53.14642069786194 L68.2671874051751 54.15497461438507 L68.42722934145776 55.117434812015915 L68.62746385494435 56.09129665872539 L68.88 57.07 L68.88 57.07 Z" fill="#000000" data-connection="3" class="" style="stroke-width: 0.65px; stroke: rgb(78, 94, 97);"></path><!----> <path d="M47.36 47.68 M47.36 47.09354890362027 L47.36 47.09354890362027 L48.06132477448199 47.23648522122801 L49.056364779608195 47.30965419189354 L50.05563881387195 47.29289011856362 L51.04852799249424 47.17435641005202 L52.07 47.093548903620274 L52.07 47.68 L52.07 49.35 L52.07 51.02 L52.07 52.69 L52.07 54.36 L52.07 56.04 L52.07 57.71 L52.07 59.38 L52.07 61.05 L52.07 62.72 L52.07 64.39 L52.07 66.06 L52.07 67.73 L52.07 69.4 L52.07 71.07 L52.07 72.74 L52.07 74.41 L52.07 76.08 L52.07 77.75 L52.07 79.42 L52.07 81.09 L52.07 82.76 L52.07 84.44 L52.07 86.11 L52.07 87.78 L52.07 89.45 L52.07 91.12 L52.07 92.79 L52.07 94.46 L52.07 96.13 L52.07 97.8 L52.07 99.47 L52.07 101.14 L52.07 102.81 L52.07 104.48 L52.07 106.15 L52.07 107.82 L52.07 109.49 L52.07 111.16 L52.07 112.84 L52.07 114.51 L52.07 116.18 L52.07 117.85 L52.07 119.52 L52.07 121.19 L52.07 122.86 L52.07 124.53 L52.07 126.2 L52.07 127.87 L52.07 128.64 L47.36 128.64 L47.36 127.87 L47.36 126.2 L47.36 124.53 L47.36 122.86 L47.36 121.19 L47.36 119.52 L47.36 117.85 L47.36 116.18 L47.36 114.51 L47.36 112.84 L47.36 111.16 L47.36 109.49 L47.36 107.82 L47.36 106.15 L47.36 104.48 L47.36 102.81 L47.36 101.14 L47.36 99.47 L47.36 97.8 L47.36 96.13 L47.36 94.46 L47.36 92.79 L47.36 91.12 L47.36 89.45 L47.36 87.78 L47.36 86.11 L47.36 84.44 L47.36 82.76 L47.36 81.09 L47.36 79.42 L47.36 77.75 L47.36 76.08 L47.36 74.41 L47.36 72.74 L47.36 71.07 L47.36 69.4 L47.36 67.73 L47.36 66.06 L47.36 64.39 L47.36 62.72 L47.36 61.05 L47.36 59.38 L47.36 57.71 L47.36 56.04 L47.36 54.36 L47.36 52.69 L47.36 51.02 L47.36 49.35 L47.36 47.68 L47.36 47.093548903620274 Z" fill="#000000" data-connection="4" class="" style="stroke-width: 0.65px; stroke: rgb(78, 94, 97);"></path><!----> <path d="M89.76 79.62C87.35 70.37 81.74 61.28 78.7 51.52 76.09 43.14 72.52 34.35 69.95 33.98 67.54 38.9 67.31 51.12 69.01 57 69.01 57 77.73 75.92 81.47 83.83 81.47 83.83 86.29 83.33 89.76 79.62Z" fill="#000000" data-connection="5" class="" style="stroke-width: 0.65px; stroke: rgb(78, 94, 97);"></path><!----> <path d="M17.16 83.83C20.9 75.92 29.62 57 29.62 57 31.32 51.12 31.09 38.9 28.68 33.98 26.11 34.35 22.54 43.14 19.93 51.52 16.89 61.28 11.18 71.54 8.87 79.62 8.87 79.62 13.55 83.47 17.19 83.83Z" fill="#000000" data-connection="6" class="" style="stroke-width: 0.65px; stroke: rgb(78, 94, 97);"></path><!----> <path d="M81.47 83.83L81.67 95.26C81.67 95.26 85.78 94.73 87.39 94.29 88.99 93.86 91.43 92.59 91.36 92.42 90.93 91.48 93.7 90.55 94.57 90.25 95.77 89.81 98.78 87.61 98.78 87.61 98.78 87.61 90.46 80.56 89.79 79.62 89.79 79.62 85.78 83.6 81.47 83.83Z" fill="#000000" data-connection="7" class="" style="stroke-width: 0.65px; stroke: rgb(78, 94, 97);"></path><!----> <path d="M17.16 83.83L16.96 95.26C16.96 95.26 12.85 94.73 11.24 94.29 9.64 93.86 7.2 92.59 7.27 92.42 7.7 91.48 4.93 90.55 4.06 90.25 2.86 89.81-0.15 87.61-0.15 87.61-0.15 87.61 8.17 80.56 8.84 79.62 8.84 79.62 12.81 83.1 17.16 83.83Z" fill="#000000" data-connection="8" class="" style="stroke-width: 0.65px; stroke: rgb(78, 94, 97);"></path><!----> <path d="M50.67 126.5C50.67 126 50.27 125.56 49.73 125.56 49.23 125.56 48.8 125.97 48.8 126.5 48.8 127 49.2 127.44 49.73 127.44 50.27 127.44 50.67 127.03 50.67 126.5ZM49.43 126.3C49.43 126.23 49.47 126.2 49.53 126.2 49.6 126.2 49.63 126.23 49.63 126.3 49.63 126.37 49.6 126.4 49.53 126.4 49.5 126.4 49.43 126.37 49.43 126.3ZM49.83 126.3C49.83 126.23 49.87 126.2 49.93 126.2 50 126.2 50.03 126.23 50.03 126.3 50.03 126.37 50 126.4 49.93 126.4 49.87 126.4 49.83 126.37 49.83 126.3ZM49.43 126.73C49.43 126.67 49.47 126.63 49.53 126.63 49.6 126.63 49.63 126.67 49.63 126.73 49.63 126.8 49.6 126.83 49.53 126.83 49.5 126.83 49.43 126.77 49.43 126.73ZM49.83 126.73C49.83 126.67 49.87 126.63 49.93 126.63 50 126.63 50.03 126.67 50.03 126.73 50.03 126.8 50 126.83 49.93 126.83 49.87 126.83 49.83 126.77 49.83 126.73Z" fill="none" data-connection="9" class="" style="stroke-width: 0.35px; stroke: rgb(78, 94, 97);"></path><!----> <path d="M50.54 114.77C50.54 114.34 50.17 113.97 49.73 113.97 49.3 113.97 48.93 114.34 48.93 114.77 48.93 115.21 49.3 115.57 49.73 115.57 50.17 115.57 50.54 115.21 50.54 114.77ZM49.5 114.61C49.5 114.54 49.53 114.51 49.6 114.51 49.67 114.51 49.7 114.54 49.7 114.61 49.7 114.67 49.67 114.71 49.6 114.71 49.53 114.71 49.5 114.64 49.5 114.61ZM49.83 114.61C49.83 114.54 49.87 114.51 49.93 114.51 50 114.51 50.03 114.54 50.03 114.61 50.03 114.67 50 114.71 49.93 114.71 49.87 114.71 49.83 114.64 49.83 114.61ZM49.5 114.94C49.5 114.87 49.53 114.84 49.6 114.84 49.67 114.84 49.7 114.87 49.7 114.94 49.7 115.01 49.67 115.04 49.6 115.04 49.53 115.04 49.5 115.01 49.5 114.94ZM49.83 114.94C49.83 114.87 49.87 114.84 49.93 114.84 50 114.84 50.03 114.87 50.03 114.94 50.03 115.01 50 115.04 49.93 115.04 49.87 115.04 49.83 115.01 49.83 114.94Z" fill="none" data-connection="10" class="" style="stroke-width: 0.35px; stroke: rgb(78, 94, 97);"></path><!----> <path d="M50.54 56.3C50.54 55.87 50.17 55.5 49.73 55.5 49.3 55.5 48.93 55.87 48.93 56.3 48.93 56.74 49.3 57.1 49.73 57.1 50.17 57.07 50.54 56.74 50.54 56.3ZM49.5 56.1C49.5 56.04 49.53 56 49.6 56 49.67 56 49.7 56.04 49.7 56.1 49.7 56.17 49.67 56.2 49.6 56.2 49.53 56.2 49.5 56.17 49.5 56.1ZM49.83 56.1C49.83 56.04 49.87 56 49.93 56 50 56 50.03 56.04 50.03 56.1 50.03 56.17 50 56.2 49.93 56.2 49.87 56.2 49.83 56.17 49.83 56.1ZM49.5 56.47C49.5 56.4 49.53 56.37 49.6 56.37 49.67 56.37 49.7 56.4 49.7 56.47 49.7 56.54 49.67 56.57 49.6 56.57 49.53 56.57 49.5 56.5 49.5 56.47ZM49.83 56.47C49.83 56.4 49.87 56.37 49.93 56.37 50 56.37 50.03 56.4 50.03 56.47 50.03 56.54 50 56.57 49.93 56.57 49.87 56.57 49.83 56.5 49.83 56.47Z" fill="none" data-connection="11" class="" style="stroke-width: 0.35px; stroke: rgb(78, 94, 97);"></path><!----> <path d="M50.54 103.08C50.54 102.64 50.17 102.28 49.73 102.28 49.3 102.28 48.93 102.64 48.93 103.08 48.93 103.51 49.3 103.88 49.73 103.88 50.17 103.88 50.54 103.51 50.54 103.08ZM49.5 102.91C49.5 102.84 49.53 102.81 49.6 102.81 49.67 102.81 49.7 102.84 49.7 102.91 49.7 102.98 49.67 103.01 49.6 103.01 49.53 103.01 49.5 102.91 49.5 102.91ZM49.83 102.91C49.83 102.84 49.87 102.81 49.93 102.81 50 102.81 50.03 102.84 50.03 102.91 50.03 102.98 50 103.01 49.93 103.01 49.87 103.01 49.83 102.91 49.83 102.91ZM49.5 103.25C49.5 103.18 49.53 103.15 49.6 103.15 49.67 103.15 49.7 103.18 49.7 103.25 49.7 103.31 49.67 103.35 49.6 103.35 49.53 103.35 49.5 103.31 49.5 103.25ZM49.83 103.25C49.83 103.18 49.87 103.15 49.93 103.15 50 103.15 50.03 103.18 50.03 103.25 50.03 103.31 50 103.35 49.93 103.35 49.87 103.35 49.83 103.31 49.83 103.25Z" fill="none" data-connection="12" class="" style="stroke-width: 0.35px; stroke: rgb(78, 94, 97);"></path><!----> <path d="M50.54 91.38C50.54 90.95 50.17 90.58 49.73 90.58 49.3 90.58 48.93 90.95 48.93 91.38 48.93 91.82 49.3 92.19 49.73 92.19 50.17 92.15 50.54 91.82 50.54 91.38ZM49.5 91.22C49.5 91.15 49.53 91.12 49.6 91.12 49.67 91.12 49.7 91.15 49.7 91.22 49.7 91.28 49.67 91.32 49.6 91.32 49.53 91.28 49.5 91.22 49.5 91.22ZM49.83 91.22C49.83 91.15 49.87 91.12 49.93 91.12 50 91.12 50.03 91.15 50.03 91.22 50.03 91.28 50 91.32 49.93 91.32 49.87 91.28 49.83 91.22 49.83 91.22ZM49.5 91.55C49.5 91.48 49.53 91.45 49.6 91.45 49.67 91.45 49.7 91.48 49.7 91.55 49.7 91.62 49.67 91.65 49.6 91.65 49.53 91.65 49.5 91.62 49.5 91.55ZM49.83 91.55C49.83 91.48 49.87 91.45 49.93 91.45 50 91.45 50.03 91.48 50.03 91.55 50.03 91.62 50 91.65 49.93 91.65 49.87 91.65 49.83 91.62 49.83 91.55Z" fill="none" data-connection="13" class="" style="stroke-width: 0.35px; stroke: rgb(78, 94, 97);"></path><!----> <path d="M50.54 68C50.54 67.56 50.17 67.19 49.73 67.19 49.3 67.19 48.93 67.56 48.93 68 48.93 68.43 49.3 68.8 49.73 68.8 50.17 68.77 50.54 68.43 50.54 68ZM49.5 67.8C49.5 67.73 49.53 67.7 49.6 67.7 49.67 67.7 49.7 67.73 49.7 67.8 49.7 67.86 49.67 67.9 49.6 67.9 49.53 67.9 49.5 67.83 49.5 67.8ZM49.83 67.8C49.83 67.73 49.87 67.7 49.93 67.7 50 67.7 50.03 67.73 50.03 67.8 50.03 67.86 50 67.9 49.93 67.9 49.87 67.9 49.83 67.83 49.83 67.8ZM49.5 68.16C49.5 68.1 49.53 68.06 49.6 68.06 49.67 68.06 49.7 68.1 49.7 68.16 49.7 68.23 49.67 68.26 49.6 68.26 49.53 68.26 49.5 68.16 49.5 68.16ZM49.83 68.16C49.83 68.1 49.87 68.06 49.93 68.06 50 68.06 50.03 68.1 50.03 68.16 50.03 68.23 50 68.26 49.93 68.26 49.87 68.26 49.83 68.16 49.83 68.16Z" fill="none" data-connection="14" class="" style="stroke-width: 0.35px; stroke: rgb(78, 94, 97);"></path><!----> <path d="M50.54 79.69C50.54 79.26 50.17 78.89 49.73 78.89 49.3 78.89 48.93 79.26 48.93 79.69 48.93 80.13 49.3 80.49 49.73 80.49 50.17 80.46 50.54 80.13 50.54 79.69ZM49.5 79.52C49.5 79.46 49.53 79.42 49.6 79.42 49.67 79.42 49.7 79.46 49.7 79.52 49.7 79.59 49.67 79.62 49.6 79.62 49.53 79.59 49.5 79.52 49.5 79.52ZM49.83 79.52C49.83 79.46 49.87 79.42 49.93 79.42 50 79.42 50.03 79.46 50.03 79.52 50.03 79.59 50 79.62 49.93 79.62 49.87 79.59 49.83 79.52 49.83 79.52ZM49.5 79.86C49.5 79.79 49.53 79.76 49.6 79.76 49.67 79.76 49.7 79.79 49.7 79.86 49.7 79.92 49.67 79.96 49.6 79.96 49.53 79.96 49.5 79.92 49.5 79.86ZM49.83 79.86C49.83 79.79 49.87 79.76 49.93 79.76 50 79.76 50.03 79.79 50.03 79.86 50.03 79.92 50 79.96 49.93 79.96 49.87 79.96 49.83 79.92 49.83 79.86Z" fill="none" data-connection="15" class="" style="stroke-width: 0.35px; stroke: rgb(78, 94, 97);"></path><!----> <path d="M91.2 89.48C91.3 87.61 89.39 83.37 89.06 83.33" fill="none" data-connection="16" class="" style="stroke-width: 0.35px; stroke: rgb(78, 94, 97);"></path><!----> <path d="M8.14 88.34C8.04 86.47 9.94 82.23 10.27 82.2" fill="none" data-connection="17" class="" style="stroke-width: 0.35px; stroke: rgb(78, 94, 97);"></path><!----> <path d="M91.3 92.42C91.06 91.42 88.42 87.04 88.82 86.44" fill="none" data-connection="18" class="" style="stroke-width: 0.35px; stroke: rgb(78, 94, 97);"></path><!----> <path d="M8.04 91.28C8.27 90.28 10.91 85.91 10.51 85.3" fill="none" data-connection="19" class="" style="stroke-width: 0.35px; stroke: rgb(78, 94, 97);"></path></g></g></g></g> <g transform="translate(140, 75) scale(0.7,0.7)" class="back-view"><g transform="translate(61,50)" class="area1-34"><g class="front" style="transform: translate(99px, 0px) scale(-1, 1);"><g><!----> <path d="M60.324129675329715 127.8877415390553 M60.3320206545967 128.64 M60.3320206545967 128.64 L60.3320206545967 128.64 L38.55451890517759 128.64 L38.68020791693575 117.38142170054535 L38.81102455704226 108.40828864340291 L38.939416367416 101.41043625996531 L39.03126235424594 97.47629764446921 L39.12782598854428 94.28076535333388 L39.20666409861534 92.37183692271566 L39.31941923730505 90.39178881623425 L39.57299165344241 87.40719170269473 L39.86826921126053 84.41894781255765 L40.16382419911872 82.44760500266196 L40.43256752694851 80.46277433685454 L40.66307539066625 78.46822220600939 L40.84108203426026 76.47098275713556 L40.9050305101363 75.47460391622624 L40.973584710075194 73.47623985257675 L40.979120905130216 72.47779843006059 L40.93327646206409 70.49706217898542 L40.88178356170614 69.51112792659139 L40.806823851767675 68.4760409054744 L40.71464758954283 67.48461458007881 L40.60201149374328 66.49156399595908 L40.46826673049971 65.49543727741636 L40.31262946959791 64.49488653281696 L40.147014276301 63.55705023604931 L39.94658308182921 62.54559716803453 L39.73751740490145 61.596553522166985 L39.49648804819084 60.60340053581233 L39.23905475996051 59.63499448220033 L38.965625627768034 58.68877591411268 L38.65392785608779 57.69310641523992 L38.33466398559649 56.74797093656511 L38.007761555229024 55.84507337979087 L37.64766330859966 54.914329876992824 L37.250954911847735 53.95466795580189 L36.86158072108464 53.070134661909194 L36.427202394295925 52.14133388925618 L35.9875178618908 51.25561810230849 L35.531439586292954 50.38789353195584 L35.02723266364106 49.48238048964986 L34.548111551833365 48.66899086899919 L33.997485884984094 47.78560671431843 L33.45230461973871 46.96078796689981 L32.891946129587275 46.16130114008989 L32.26964239749697 45.32842918904316 L31.664796293164255 44.5746097710961 L30.99 43.81 L30.990000000000002 43.81 L30.675834560814728 43.71299252160403 L30.51163060129417 41.74064189743405 L30.395534241946375 40.73036725682753 L30.261847880548824 39.76620829278526 L30.09375217993583 38.75134814257824 L29.90265869509944 37.782119984397525 L29.674815131438155 36.81028701203604 L29.40216106379578 35.841818511288245 L29.074638075112034 34.89028083437634 L28.68 33.98 L28.68 33.98 L28.58 34.05 L28.58 34.05 L39.79639775165977 29.78474250758975 L40.30495454358044 29.820414655901708 L39.92176819951542 30.74358213849808 L39.61682133397359 31.695792401341702 L39.390876516204344 32.66985132577975 L39.24383363133383 33.658877136434874 L39.175022847642715 34.65634642821447 L39.18344737104758 35.65607882693517 L39.26797166936112 36.652172561609405 L39.38 37.39 L39.38 37.39 L39.58099193306625 38.36466395308127 L39.85056467016702 39.323954920357544 L40.18763709082986 40.26329179612198 L40.59150024897179 41.17777584992826 L41.06173993719649 42.06190316775921 L41.59808968820604 42.90929801441023 L42.2002164977886 43.71248860477364 L42.86744079450965 44.46275400305338 L43.59839377488136 45.15008064981451 L44.390620435425625 45.76327799529375 L45.240146798106096 46.29031168519081 L46.14104566321768 46.718913692157464 L47.36 47.09354890362027 L47.36 47.093548903620274 L47.36 47.68 L47.36 49.35 L47.36 51.02 L47.36 52.69 L47.36 54.36 L47.36 56.04 L47.36 57.71 L47.36 59.38 L47.36 61.05 L47.36 62.72 L47.36 64.39 L47.36 66.06 L47.36 67.73 L47.36 69.4 L47.36 71.07 L47.36 72.74 L47.36 74.41 L47.36 76.08 L47.36 77.75 L47.36 79.42 L47.36 81.09 L47.36 82.76 L47.36 84.44 L47.36 86.11 L47.36 87.78 L47.36 89.45 L47.36 91.12 L47.36 92.79 L47.36 94.46 L47.36 96.13 L47.36 97.8 L47.36 99.47 L47.36 101.14 L47.36 102.81 L47.36 104.48 L47.36 106.15 L47.36 107.82 L47.36 109.49 L47.36 111.16 L47.36 112.84 L47.36 114.51 L47.36 116.18 L47.36 117.85 L47.36 119.52 L47.36 121.19 L47.36 122.86 L47.36 124.53 L47.36 126.2 L47.36 127.87 L47.36 128.64 L52.07 128.64 L52.07 127.87 L52.07 126.2 L52.07 124.53 L52.07 122.86 L52.07 121.19 L52.07 119.52 L52.07 117.85 L52.07 116.18 L52.07 114.51 L52.07 112.84 L52.07 111.16 L52.07 109.49 L52.07 107.82 L52.07 106.15 L52.07 104.48 L52.07 102.81 L52.07 101.14 L52.07 99.47 L52.07 97.8 L52.07 96.13 L52.07 94.46 L52.07 92.79 L52.07 91.12 L52.07 89.45 L52.07 87.78 L52.07 86.11 L52.07 84.44 L52.07 82.76 L52.07 81.09 L52.07 79.42 L52.07 77.75 L52.07 76.08 L52.07 74.41 L52.07 72.74 L52.07 71.07 L52.07 69.4 L52.07 67.73 L52.07 66.06 L52.07 64.39 L52.07 62.72 L52.07 61.05 L52.07 59.38 L52.07 57.71 L52.07 56.04 L52.07 54.36 L52.07 52.69 L52.07 51.02 L52.07 49.35 L52.07 47.68 L52.07 47.093548903620274 L52.07 47.093548903620274 L52.95828114883467 46.599370854351164 L53.85059173709265 46.15247288341444 L54.68891963926419 45.61038838156144 L55.46692906596331 44.98334321355791 L56.180230667900645 44.282012092992716 L56.826011683312714 43.516869350462706 L57.40265369945943 42.697759980417274 L57.90937236167852 41.83366386875259 L58.345900224593684 40.93261534792878 L58.712223903446564 40.001739359748825 L59.00838032115684 39.04736978725075 L59.23431362821656 38.07522150436901 L59.36 37.32 L59.36 37.32 L59.46375438806894 36.325989174417934 L59.49715714266963 35.326750527157856 L59.459039790930426 34.327525617657294 L59.34797495121969 33.33372466322576 L59.1624425358288 32.35112111418332 L58.901068775791856 31.385990969150342 L58.562942400917095 30.44517998379599 L58.15411124505924 29.541567347017512 L69.3669126683616 33.81627017196203 L69.67309441311792 34.37739808675934 L69.32954724694355 35.30199973340275 L69.04552216387569 36.24268240817137 L68.80256548962092 37.2116038719758 L68.58953375433794 38.22671212119121 L68.41817231098106 39.196347623580934 L68.27393523920307 40.16138137138322 L68.14716764818053 41.174346720396464 L68.04339573117598 42.18272702572888 L67.51556760053487 44.21048762239662 L67.51556760053487 44.21048762239661 L66.89672519633305 44.95095027140296 L66.26476639761418 45.76860604830922 L65.68210693032805 46.57498378091658 L65.13004435195272 47.38664381018323 L64.58270794961798 48.23978385642288 L64.05806714395345 49.10643596698801 L63.554060995938684 49.98843269454904 L63.08680373773353 50.85409064987922 L62.642220148871516 51.7256668568385 L62.20794860258962 52.627928070242255 L61.7981412775874 53.531894276458864 L61.40697833912353 54.44946132266902 L61.03008228650709 55.392320792826 L60.68792029551501 56.3068630029605 L60.35451699195734 57.26162912765888 L60.040174855013724 58.23091810785202 L59.75416384261264 59.18388516314559 L59.48481288163328 60.15792824944845 L59.24093596689536 61.12036872642761 L59.02076606778728 62.07334013106119 L58.80904578327457 63.08848792676082 L58.633560757907055 64.02847025406564 L58.46769928042117 65.03138213455141 L58.324167252727605 66.02925330801779 L58.20211783479755 67.02337151190959 L58.10083714059479 68.01513649856912 L58.01974786811641 69.0060432169888 L57.91653025666507 70.99168935840547 L57.89334166000045 72.03861606699549 L57.907059903686246 74.01571549716265 L57.941349385638894 75.0095642379574 L58.06371414930299 77.00239669360809 L58.24882483898989 79.00058511318424 L58.48527064674079 80.99385480305608 L59.05477934563717 84.94952985617036 L59.43020010712577 88.9276648313055 L59.58321995992817 90.92502850420152 L59.69354225519806 93.02557478388465 L59.765617018500535 94.95359337227517 L59.91934264350883 100.8010155356859 L60.05265394965943 107.82114784451018 L60.190137768109366 117.00176904739506 L60.324129675329715 127.8877415390553 L60.3320206545967 128.64 Z" fill="#000000" data-connection="1" class="" style="stroke-width: 0.65px; stroke: rgb(78, 94, 97);"></path><!----> <path d="M38.68020791693575 117.38142170054535 M38.55451890517759 128.64 L28.346870302320966 128.64 L27.91453127417589 128.0826813061073 L27.88305628841261 123.07984353732952 L27.87736759487929 118.05690765592372 L27.893928090683037 114.09115334556027 L27.935844552441928 110.07865549178862 L27.991038917761962 107.058558035471 L28.076816896650644 104.06802404039951 L28.121091964812884 103.0720350902806 L28.188155815688557 102.07473174660562 L28.275993226325085 101.07798876831133 L28.382584283811703 100.08264170580595 L28.645098733633105 98.0981620431328 L28.79806602177569 97.10951305652551 L29.141314540605435 95.13944754296728 L29.735041088349956 92.20008666951645 L30.831641374276426 87.31201947201089 L31.459542943513007 84.39547834024363 L31.85365951110646 82.4296169248116 L32.2146920877089 80.44623899660564 L32.52242190334506 78.47131511940414 L32.64899420714961 77.4959516327307 L32.75533348891813 76.50889863394613 L32.83575051355987 75.5113927116074 L32.88293357096291 74.49802574664851 L32.88854093920181 73.51275325026786 L32.866108156895116 72.50161814820498 L32.81725684877949 71.49785887962977 L32.74063408119245 70.49185034702278 L32.63823608984754 69.51032932134754 L32.50830961408703 68.5324890624279 L32.345578345698 67.529501406525 L32.15903052314759 66.55612024669084 L31.94537492179474 65.58516399700774 L31.700183141959506 64.59354905479952 L31.158818888847037 62.670301327980546 L30.287937625522858 59.80818750055643 L30.026270597344755 58.861419675740905 L29.795204588013945 57.871617093687256 L29.796577919503328 56.66025968711414 L30.037580465932173 55.65038970812437 L30.224363381781167 54.67562852278378 L30.374257817294875 53.71351102412012 L30.501101628369547 52.704788672557754 L30.601321187023906 51.69651106963932 L30.674744844475462 50.73882116027862 L30.731215010950127 49.73035314761801 L30.76828261115198 48.70288889939754 L30.785042786698707 46.73319145026288 L30.990000000000002 43.81 L30.99 43.81 L31.664796293164255 44.5746097710961 L32.26964239749697 45.32842918904316 L32.891946129587275 46.16130114008989 L33.45230461973871 46.96078796689981 L33.997485884984094 47.78560671431843 L34.548111551833365 48.66899086899919 L35.02723266364106 49.48238048964986 L35.531439586292954 50.38789353195584 L35.9875178618908 51.25561810230849 L36.427202394295925 52.14133388925618 L36.86158072108464 53.070134661909194 L37.250954911847735 53.95466795580189 L37.64766330859966 54.914329876992824 L38.007761555229024 55.84507337979087 L38.33466398559649 56.74797093656511 L38.65392785608779 57.69310641523992 L38.965625627768034 58.68877591411268 L39.23905475996051 59.63499448220033 L39.49648804819084 60.60340053581233 L39.73751740490145 61.596553522166985 L39.94658308182921 62.54559716803453 L40.147014276301 63.55705023604931 L40.31262946959791 64.49488653281696 L40.46826673049971 65.49543727741636 L40.60201149374328 66.49156399595908 L40.71464758954283 67.48461458007881 L40.806823851767675 68.4760409054744 L40.88178356170614 69.51112792659139 L40.93327646206409 70.49706217898542 L40.979120905130216 72.47779843006059 L40.973584710075194 73.47623985257675 L40.9050305101363 75.47460391622624 L40.84108203426026 76.47098275713556 L40.66307539066625 78.46822220600939 L40.43256752694851 80.46277433685454 L40.16382419911872 82.44760500266196 L39.86826921126053 84.41894781255765 L39.57299165344241 87.40719170269473 L39.31941923730505 90.39178881623425 L39.20666409861534 92.37183692271566 L39.12782598854428 94.28076535333388 L39.03126235424594 97.47629764446921 L38.939416367416 101.41043625996531 L38.81102455704226 108.40828864340291 L38.68020791693575 117.38142170054535 L38.55451890517759 128.64 Z" fill="#000000" data-connection="2" class="" style="stroke-width: 0.65px; stroke: rgb(78, 94, 97);"></path><!----> <path d="M68.88 57.07 M68.88 57.07 L68.88 57.07 L68.70834409380628 58.056884943152035 L68.49057856705407 59.02571313485725 L68.23953618893763 60.00084840726828 L67.44868035916039 62.886922901058526 L67.19989287144254 63.85731331326808 L66.96924697644604 64.83092474658902 L66.76026761496175 65.8072782549074 L66.57513413039368 66.78573805679193 L66.41079733113193 67.79357829889459 L66.27668400443514 68.77477260392901 L66.16768875149958 69.75716076241171 L66.08155094590296 70.76462625045596 L66.02071969038118 71.76807870618508 L65.98445599806597 72.74723162319182 L65.9698820271404 73.75850116998154 L65.9872710323947 74.75665927223305 L66.04570871745504 75.77440915734057 L66.13132620953353 76.73929439484844 L66.2476351689913 77.75810752128555 L66.37939642933257 78.73220360601547 L66.69490020392367 80.70540386345134 L67.06109482303935 82.6866240688198 L67.45872401040249 84.65008855497322 L68.09065423433313 87.56434534063752 L69.18931767126774 92.44964842443954 L69.78974611380792 95.38753518900177 L70.14159503213006 97.35651023494232 L70.4412146886879 99.3355882395033 L70.67424472290311 101.32400129271169 L70.76038841579881 102.32059215762555 L70.82291153472192 103.31765746835927 L70.92136651442821 106.31718324544106 L70.9836314012049 109.33432070077517 L71.02288919574674 112.30905377674047 L71.05141379091174 116.33148942289736 L71.05870835291948 120.30281004073396 L71.02302360326394 128.3204709833629 L70.34687030232097 128.64 L60.3320206545967 128.64 L60.324129675329715 127.8877415390553 L60.190137768109366 117.00176904739506 L60.05265394965943 107.82114784451018 L59.91934264350883 100.8010155356859 L59.765617018500535 94.95359337227517 L59.69354225519806 93.02557478388465 L59.58321995992817 90.92502850420152 L59.43020010712577 88.9276648313055 L59.05477934563717 84.94952985617036 L58.48527064674079 80.99385480305608 L58.24882483898989 79.00058511318424 L58.06371414930299 77.00239669360809 L57.941349385638894 75.0095642379574 L57.907059903686246 74.01571549716265 L57.89334166000045 72.03861606699549 L57.91653025666507 70.99168935840547 L58.01974786811641 69.0060432169888 L58.10083714059479 68.01513649856912 L58.20211783479755 67.02337151190959 L58.324167252727605 66.02925330801779 L58.46769928042117 65.03138213455141 L58.633560757907055 64.02847025406564 L58.80904578327457 63.08848792676082 L59.02076606778728 62.07334013106119 L59.24093596689536 61.12036872642761 L59.48481288163328 60.15792824944845 L59.75416384261264 59.18388516314559 L60.040174855013724 58.23091810785202 L60.35451699195734 57.26162912765888 L60.68792029551501 56.3068630029605 L61.03008228650709 55.392320792826 L61.40697833912353 54.44946132266902 L61.7981412775874 53.531894276458864 L62.20794860258962 52.627928070242255 L62.642220148871516 51.7256668568385 L63.08680373773353 50.85409064987922 L63.554060995938684 49.98843269454904 L64.05806714395345 49.10643596698801 L64.58270794961798 48.23978385642288 L65.13004435195272 47.38664381018323 L65.68210693032805 46.57498378091658 L66.26476639761418 45.76860604830922 L66.89672519633305 44.95095027140296 L67.51556760053487 44.21048762239661 L67.51556760053487 44.21048762239662 L67.85192584469534 45.15544875875151 L67.81119661039826 47.16103369491518 L67.84034237686797 49.1631134179164 L67.9433087677451 51.15473127676795 L68.02441651245103 52.1360440188541 L68.13193617817835 53.14642069786194 L68.2671874051751 54.15497461438507 L68.42722934145776 55.117434812015915 L68.62746385494435 56.09129665872539 L68.88 57.07 L68.88 57.07 Z" fill="#000000" data-connection="3" class="" style="stroke-width: 0.65px; stroke: rgb(78, 94, 97);"></path><!----> <path d="M47.36 47.68 M47.36 47.09354890362027 L47.36 47.09354890362027 L48.06132477448199 47.23648522122801 L49.056364779608195 47.30965419189354 L50.05563881387195 47.29289011856362 L51.04852799249424 47.17435641005202 L52.07 47.093548903620274 L52.07 47.68 L52.07 49.35 L52.07 51.02 L52.07 52.69 L52.07 54.36 L52.07 56.04 L52.07 57.71 L52.07 59.38 L52.07 61.05 L52.07 62.72 L52.07 64.39 L52.07 66.06 L52.07 67.73 L52.07 69.4 L52.07 71.07 L52.07 72.74 L52.07 74.41 L52.07 76.08 L52.07 77.75 L52.07 79.42 L52.07 81.09 L52.07 82.76 L52.07 84.44 L52.07 86.11 L52.07 87.78 L52.07 89.45 L52.07 91.12 L52.07 92.79 L52.07 94.46 L52.07 96.13 L52.07 97.8 L52.07 99.47 L52.07 101.14 L52.07 102.81 L52.07 104.48 L52.07 106.15 L52.07 107.82 L52.07 109.49 L52.07 111.16 L52.07 112.84 L52.07 114.51 L52.07 116.18 L52.07 117.85 L52.07 119.52 L52.07 121.19 L52.07 122.86 L52.07 124.53 L52.07 126.2 L52.07 127.87 L52.07 128.64 L47.36 128.64 L47.36 127.87 L47.36 126.2 L47.36 124.53 L47.36 122.86 L47.36 121.19 L47.36 119.52 L47.36 117.85 L47.36 116.18 L47.36 114.51 L47.36 112.84 L47.36 111.16 L47.36 109.49 L47.36 107.82 L47.36 106.15 L47.36 104.48 L47.36 102.81 L47.36 101.14 L47.36 99.47 L47.36 97.8 L47.36 96.13 L47.36 94.46 L47.36 92.79 L47.36 91.12 L47.36 89.45 L47.36 87.78 L47.36 86.11 L47.36 84.44 L47.36 82.76 L47.36 81.09 L47.36 79.42 L47.36 77.75 L47.36 76.08 L47.36 74.41 L47.36 72.74 L47.36 71.07 L47.36 69.4 L47.36 67.73 L47.36 66.06 L47.36 64.39 L47.36 62.72 L47.36 61.05 L47.36 59.38 L47.36 57.71 L47.36 56.04 L47.36 54.36 L47.36 52.69 L47.36 51.02 L47.36 49.35 L47.36 47.68 L47.36 47.093548903620274 Z" fill="#000000" data-connection="4" class="" style="stroke-width: 0.65px; stroke: rgb(78, 94, 97);"></path><!----> <path d="M89.76 79.62C87.35 70.37 81.74 61.28 78.7 51.52 76.09 43.14 72.52 34.35 69.95 33.98 67.54 38.9 67.31 51.12 69.01 57 69.01 57 77.73 75.92 81.47 83.83 81.47 83.83 86.29 83.33 89.76 79.62Z" fill="#000000" data-connection="5" class="" style="stroke-width: 0.65px; stroke: rgb(78, 94, 97);"></path><!----> <path d="M17.16 83.83C20.9 75.92 29.62 57 29.62 57 31.32 51.12 31.09 38.9 28.68 33.98 26.11 34.35 22.54 43.14 19.93 51.52 16.89 61.28 11.18 71.54 8.87 79.62 8.87 79.62 13.55 83.47 17.19 83.83Z" fill="#000000" data-connection="6" class="" style="stroke-width: 0.65px; stroke: rgb(78, 94, 97);"></path><!----> <path d="M81.47 83.83L81.67 95.26C81.67 95.26 85.78 94.73 87.39 94.29 88.99 93.86 91.43 92.59 91.36 92.42 90.93 91.48 93.7 90.55 94.57 90.25 95.77 89.81 98.78 87.61 98.78 87.61 98.78 87.61 90.46 80.56 89.79 79.62 89.79 79.62 85.78 83.6 81.47 83.83Z" fill="#000000" data-connection="7" class="" style="stroke-width: 0.65px; stroke: rgb(78, 94, 97);"></path><!----> <path d="M17.16 83.83L16.96 95.26C16.96 95.26 12.85 94.73 11.24 94.29 9.64 93.86 7.2 92.59 7.27 92.42 7.7 91.48 4.93 90.55 4.06 90.25 2.86 89.81-0.15 87.61-0.15 87.61-0.15 87.61 8.17 80.56 8.84 79.62 8.84 79.62 12.81 83.1 17.16 83.83Z" fill="#000000" data-connection="8" class="" style="stroke-width: 0.65px; stroke: rgb(78, 94, 97);"></path><!----> <path d="M50.67 126.5C50.67 126 50.27 125.56 49.73 125.56 49.23 125.56 48.8 125.97 48.8 126.5 48.8 127 49.2 127.44 49.73 127.44 50.27 127.44 50.67 127.03 50.67 126.5ZM49.43 126.3C49.43 126.23 49.47 126.2 49.53 126.2 49.6 126.2 49.63 126.23 49.63 126.3 49.63 126.37 49.6 126.4 49.53 126.4 49.5 126.4 49.43 126.37 49.43 126.3ZM49.83 126.3C49.83 126.23 49.87 126.2 49.93 126.2 50 126.2 50.03 126.23 50.03 126.3 50.03 126.37 50 126.4 49.93 126.4 49.87 126.4 49.83 126.37 49.83 126.3ZM49.43 126.73C49.43 126.67 49.47 126.63 49.53 126.63 49.6 126.63 49.63 126.67 49.63 126.73 49.63 126.8 49.6 126.83 49.53 126.83 49.5 126.83 49.43 126.77 49.43 126.73ZM49.83 126.73C49.83 126.67 49.87 126.63 49.93 126.63 50 126.63 50.03 126.67 50.03 126.73 50.03 126.8 50 126.83 49.93 126.83 49.87 126.83 49.83 126.77 49.83 126.73Z" fill="none" data-connection="9" class="" style="stroke-width: 0.35px; stroke: rgb(78, 94, 97);"></path><!----> <path d="M50.54 114.77C50.54 114.34 50.17 113.97 49.73 113.97 49.3 113.97 48.93 114.34 48.93 114.77 48.93 115.21 49.3 115.57 49.73 115.57 50.17 115.57 50.54 115.21 50.54 114.77ZM49.5 114.61C49.5 114.54 49.53 114.51 49.6 114.51 49.67 114.51 49.7 114.54 49.7 114.61 49.7 114.67 49.67 114.71 49.6 114.71 49.53 114.71 49.5 114.64 49.5 114.61ZM49.83 114.61C49.83 114.54 49.87 114.51 49.93 114.51 50 114.51 50.03 114.54 50.03 114.61 50.03 114.67 50 114.71 49.93 114.71 49.87 114.71 49.83 114.64 49.83 114.61ZM49.5 114.94C49.5 114.87 49.53 114.84 49.6 114.84 49.67 114.84 49.7 114.87 49.7 114.94 49.7 115.01 49.67 115.04 49.6 115.04 49.53 115.04 49.5 115.01 49.5 114.94ZM49.83 114.94C49.83 114.87 49.87 114.84 49.93 114.84 50 114.84 50.03 114.87 50.03 114.94 50.03 115.01 50 115.04 49.93 115.04 49.87 115.04 49.83 115.01 49.83 114.94Z" fill="none" data-connection="10" class="" style="stroke-width: 0.35px; stroke: rgb(78, 94, 97);"></path><!----> <path d="M50.54 56.3C50.54 55.87 50.17 55.5 49.73 55.5 49.3 55.5 48.93 55.87 48.93 56.3 48.93 56.74 49.3 57.1 49.73 57.1 50.17 57.07 50.54 56.74 50.54 56.3ZM49.5 56.1C49.5 56.04 49.53 56 49.6 56 49.67 56 49.7 56.04 49.7 56.1 49.7 56.17 49.67 56.2 49.6 56.2 49.53 56.2 49.5 56.17 49.5 56.1ZM49.83 56.1C49.83 56.04 49.87 56 49.93 56 50 56 50.03 56.04 50.03 56.1 50.03 56.17 50 56.2 49.93 56.2 49.87 56.2 49.83 56.17 49.83 56.1ZM49.5 56.47C49.5 56.4 49.53 56.37 49.6 56.37 49.67 56.37 49.7 56.4 49.7 56.47 49.7 56.54 49.67 56.57 49.6 56.57 49.53 56.57 49.5 56.5 49.5 56.47ZM49.83 56.47C49.83 56.4 49.87 56.37 49.93 56.37 50 56.37 50.03 56.4 50.03 56.47 50.03 56.54 50 56.57 49.93 56.57 49.87 56.57 49.83 56.5 49.83 56.47Z" fill="none" data-connection="11" class="" style="stroke-width: 0.35px; stroke: rgb(78, 94, 97);"></path><!----> <path d="M50.54 103.08C50.54 102.64 50.17 102.28 49.73 102.28 49.3 102.28 48.93 102.64 48.93 103.08 48.93 103.51 49.3 103.88 49.73 103.88 50.17 103.88 50.54 103.51 50.54 103.08ZM49.5 102.91C49.5 102.84 49.53 102.81 49.6 102.81 49.67 102.81 49.7 102.84 49.7 102.91 49.7 102.98 49.67 103.01 49.6 103.01 49.53 103.01 49.5 102.91 49.5 102.91ZM49.83 102.91C49.83 102.84 49.87 102.81 49.93 102.81 50 102.81 50.03 102.84 50.03 102.91 50.03 102.98 50 103.01 49.93 103.01 49.87 103.01 49.83 102.91 49.83 102.91ZM49.5 103.25C49.5 103.18 49.53 103.15 49.6 103.15 49.67 103.15 49.7 103.18 49.7 103.25 49.7 103.31 49.67 103.35 49.6 103.35 49.53 103.35 49.5 103.31 49.5 103.25ZM49.83 103.25C49.83 103.18 49.87 103.15 49.93 103.15 50 103.15 50.03 103.18 50.03 103.25 50.03 103.31 50 103.35 49.93 103.35 49.87 103.35 49.83 103.31 49.83 103.25Z" fill="none" data-connection="12" class="" style="stroke-width: 0.35px; stroke: rgb(78, 94, 97);"></path><!----> <path d="M50.54 91.38C50.54 90.95 50.17 90.58 49.73 90.58 49.3 90.58 48.93 90.95 48.93 91.38 48.93 91.82 49.3 92.19 49.73 92.19 50.17 92.15 50.54 91.82 50.54 91.38ZM49.5 91.22C49.5 91.15 49.53 91.12 49.6 91.12 49.67 91.12 49.7 91.15 49.7 91.22 49.7 91.28 49.67 91.32 49.6 91.32 49.53 91.28 49.5 91.22 49.5 91.22ZM49.83 91.22C49.83 91.15 49.87 91.12 49.93 91.12 50 91.12 50.03 91.15 50.03 91.22 50.03 91.28 50 91.32 49.93 91.32 49.87 91.28 49.83 91.22 49.83 91.22ZM49.5 91.55C49.5 91.48 49.53 91.45 49.6 91.45 49.67 91.45 49.7 91.48 49.7 91.55 49.7 91.62 49.67 91.65 49.6 91.65 49.53 91.65 49.5 91.62 49.5 91.55ZM49.83 91.55C49.83 91.48 49.87 91.45 49.93 91.45 50 91.45 50.03 91.48 50.03 91.55 50.03 91.62 50 91.65 49.93 91.65 49.87 91.65 49.83 91.62 49.83 91.55Z" fill="none" data-connection="13" class="" style="stroke-width: 0.35px; stroke: rgb(78, 94, 97);"></path><!----> <path d="M50.54 68C50.54 67.56 50.17 67.19 49.73 67.19 49.3 67.19 48.93 67.56 48.93 68 48.93 68.43 49.3 68.8 49.73 68.8 50.17 68.77 50.54 68.43 50.54 68ZM49.5 67.8C49.5 67.73 49.53 67.7 49.6 67.7 49.67 67.7 49.7 67.73 49.7 67.8 49.7 67.86 49.67 67.9 49.6 67.9 49.53 67.9 49.5 67.83 49.5 67.8ZM49.83 67.8C49.83 67.73 49.87 67.7 49.93 67.7 50 67.7 50.03 67.73 50.03 67.8 50.03 67.86 50 67.9 49.93 67.9 49.87 67.9 49.83 67.83 49.83 67.8ZM49.5 68.16C49.5 68.1 49.53 68.06 49.6 68.06 49.67 68.06 49.7 68.1 49.7 68.16 49.7 68.23 49.67 68.26 49.6 68.26 49.53 68.26 49.5 68.16 49.5 68.16ZM49.83 68.16C49.83 68.1 49.87 68.06 49.93 68.06 50 68.06 50.03 68.1 50.03 68.16 50.03 68.23 50 68.26 49.93 68.26 49.87 68.26 49.83 68.16 49.83 68.16Z" fill="none" data-connection="14" class="" style="stroke-width: 0.35px; stroke: rgb(78, 94, 97);"></path><!----> <path d="M50.54 79.69C50.54 79.26 50.17 78.89 49.73 78.89 49.3 78.89 48.93 79.26 48.93 79.69 48.93 80.13 49.3 80.49 49.73 80.49 50.17 80.46 50.54 80.13 50.54 79.69ZM49.5 79.52C49.5 79.46 49.53 79.42 49.6 79.42 49.67 79.42 49.7 79.46 49.7 79.52 49.7 79.59 49.67 79.62 49.6 79.62 49.53 79.59 49.5 79.52 49.5 79.52ZM49.83 79.52C49.83 79.46 49.87 79.42 49.93 79.42 50 79.42 50.03 79.46 50.03 79.52 50.03 79.59 50 79.62 49.93 79.62 49.87 79.59 49.83 79.52 49.83 79.52ZM49.5 79.86C49.5 79.79 49.53 79.76 49.6 79.76 49.67 79.76 49.7 79.79 49.7 79.86 49.7 79.92 49.67 79.96 49.6 79.96 49.53 79.96 49.5 79.92 49.5 79.86ZM49.83 79.86C49.83 79.79 49.87 79.76 49.93 79.76 50 79.76 50.03 79.79 50.03 79.86 50.03 79.92 50 79.96 49.93 79.96 49.87 79.96 49.83 79.92 49.83 79.86Z" fill="none" data-connection="15" class="" style="stroke-width: 0.35px; stroke: rgb(78, 94, 97);"></path><!----> <path d="M91.2 89.48C91.3 87.61 89.39 83.37 89.06 83.33" fill="none" data-connection="16" class="" style="stroke-width: 0.35px; stroke: rgb(78, 94, 97);"></path><!----> <path d="M8.14 88.34C8.04 86.47 9.94 82.23 10.27 82.2" fill="none" data-connection="17" class="" style="stroke-width: 0.35px; stroke: rgb(78, 94, 97);"></path><!----> <path d="M91.3 92.42C91.06 91.42 88.42 87.04 88.82 86.44" fill="none" data-connection="18" class="" style="stroke-width: 0.35px; stroke: rgb(78, 94, 97);"></path><!----> <path d="M8.04 91.28C8.27 90.28 10.91 85.91 10.51 85.3" fill="none" data-connection="19" class="" style="stroke-width: 0.35px; stroke: rgb(78, 94, 97);"></path></g></g> <g class="back"><g><!----> <path d="M60.33068052601272 128.26248815553646 M60.33463650533554 128.64 L38.552352395429686 128.64 L38.68318681719495 117.01881347167459 L38.80276904830048 108.83155778711205 L38.9301471895158 101.809869063846 L39.10422518632119 94.96215988469763 L39.176265731912494 93.0301234214265 L39.286706933292095 90.92404687790444 L39.43708693194914 88.92661525821404 L39.71019924366281 85.94307185644364 L39.80611086160586 84.94665102243479 L40.0704928211018 82.97080131035557 L40.290334960080585 80.96170343933562 L40.46666821743989 78.98946938384103 L40.61867911248325 76.9832579067296 L40.80515961753269 73.9941576173283 L40.943258249615376 71.00020310140962 L40.97950848704328 68.99284307004183 L40.96829216590787 67.9796790252807 L40.93778067060175 67.00254300820504 L40.88430165254845 65.97814472548545 L40.81211905948825 65.00181023059403 L40.71834457555714 64.02442476350079 L40.60166897368131 63.04285169163317 L40.45494039086296 62.018882617617784 L40.29301089909339 61.05789146835069 L40.097132963871815 60.05141925394416 L39.8880109309238 59.10813970328867 L39.64004418396135 58.11589885028859 L39.36859755587613 57.14636316015577 L39.07296240994159 56.195853679351906 L38.751555171500534 55.25963025811966 L38.38970494834126 54.30159976538437 L38.00792546039506 53.379628507674056 L37.60243031698269 52.48208957381291 L37.16743591881355 51.59701504635845 L36.6953606209275 50.71308222989778 L36.199516886955976 49.857657962303826 L35.64473607542506 48.97663038148062 L35.07587012494482 48.145644567511674 L34.49355867732149 47.361794832860014 L33.87488697571077 46.59515802967781 L33.21441754109158 45.845154949989855 L32.521315997745475 45.12892898162244 L31.76812611176989 44.43087544620758 L30.99 43.81 L30.99 43.81 L30.675834560814728 43.71299252160403 L30.51163060129417 41.74064189743405 L30.395534241946375 40.73036725682753 L30.261847880548824 39.76620829278526 L30.09375217993583 38.75134814257824 L29.90265869509944 37.782119984397525 L29.674815131438155 36.81028701203604 L29.40216106379578 35.841818511288245 L29.074638075112034 34.89028083437634 L28.68 33.98 L28.68 33.98 L28.778347141218383 33.901331823493294 L39.998758669029236 29.646644391193558 L40.95 29.74 L40.95 29.74 L41.16857451320409 29.7956915617438 L42.14739847605616 30.017806155912574 L43.13999934423637 30.2029591368318 L44.12138779850296 30.351636772462257 L45.10045234799922 30.46949485830934 L46.10555750186709 30.56144225261819 L47.11212101038679 30.625880686094483 L48.11819101002607 30.663887905343827 L49.122506473114946 30.676252070892147 L50.10009183917676 30.664067316325067 L51.12329736768815 30.62569986367705 L52.11926854283708 30.56283252701695 L53.11219856853482 30.47440682246847 L54.102004889999044 30.359643209335378 L55.08844155888744 30.21743140190751 L56.07097430350128 30.046327424984874 L57.04865573391673 29.84455319215711 L58.02 29.61 L58.02 29.61 L58.80935911562757 29.749048618637083 L70.05 33.95 L70.05 33.95 L69.67309441311792 34.37739808675934 L69.32954724694355 35.30199973340275 L69.04552216387569 36.24268240817137 L68.80256548962092 37.2116038719758 L68.58953375433794 38.22671212119121 L68.41817231098106 39.196347623580934 L68.27393523920307 40.16138137138322 L68.14716764818053 41.174346720396464 L68.04339573117598 42.18272702572888 L67.31567032941622 44.44260980252539 L67.31567032941622 44.44260980252538 L66.67761809594458 45.22769409261838 L66.05607488887613 46.05161774613279 L65.48162295231703 46.86426678320564 L64.93662132790269 47.682449780171524 L64.39951236873338 48.53674917984373 L63.907725202881956 49.36423744999357 L63.39284851627084 50.281623119908936 L62.94851250923742 51.11993354821436 L62.478743819657055 52.05905933156663 L62.06042903597009 52.947081658032005 L61.66505323773665 53.83768495830465 L61.26300540875849 54.80231743752962 L60.92173661993504 55.675422021153004 L60.5670442986776 56.645158858003775 L60.244050377919464 57.59392322678204 L59.950019335817004 58.523312478548476 L59.66252523582502 59.5060777407542 L59.40177283448704 60.47607746562527 L59.165891435817755 61.435137214278164 L58.945732327721814 62.42053084804733 L58.74901569802838 63.39844231207732 L58.56889158501147 64.40401124811788 L58.421094733771376 65.3396050403574 L58.28412941369781 66.33730207225375 L58.16842769505755 67.33196078780938 L58.069029441907354 68.3756090392322 L57.94132008702731 70.35034852946856 L57.90643621183173 71.34043717346552 L57.89393142133668 73.33486336063622 L57.956671186561394 75.33752360345468 L58.09027216890186 77.33210404249193 L58.18057981111608 78.3313600952535 L58.400967206968424 80.32720577034726 L58.666264843450534 82.31316850622136 L58.968368498435424 84.28420777507019 L59.087162580925906 85.27780047526548 L59.370097910381986 88.25559659131378 L59.53957463028926 90.25146433115708 L59.655716529104645 92.21717422380402 L59.74194394318849 94.2548525869627 L59.83581319446073 97.30563063224321 L59.929900676303845 101.24670299282391 L60.06127559632852 108.25444417826957 L60.19516132171091 117.23654446876952 L60.33068052601272 128.26248815553646 L60.33463650533554 128.64 Z" fill="#000000" data-connection="1" class="" style="stroke-width: 0.65px; stroke: rgb(78, 94, 97);"></path><!----> <path d="M47.26 30.63146724486536 L47.26 128.64 L51.94 128.64 L51.94 30.63146724486536 " fill="none" data-connection="2" class="" style="stroke-width: 0.35px; stroke: rgb(78, 94, 97);"></path><!----> <path d="M38.68318681719495 117.01881347167459 M38.552352395429686 128.64 L28.346870302320966 128.64 L27.91453127417589 128.0826813061073 L27.88305628841261 123.07984353732952 L27.87736759487929 118.05690765592372 L27.893928090683037 114.09115334556027 L27.935844552441928 110.07865549178862 L27.991038917761962 107.058558035471 L28.076816896650644 104.06802404039951 L28.121091964812884 103.0720350902806 L28.188155815688557 102.07473174660562 L28.275993226325085 101.07798876831133 L28.382584283811703 100.08264170580595 L28.645098733633105 98.0981620431328 L28.79806602177569 97.10951305652551 L29.141314540605435 95.13944754296728 L29.735041088349956 92.20008666951645 L30.831641374276426 87.31201947201089 L31.459542943513007 84.39547834024363 L31.85365951110646 82.4296169248116 L32.2146920877089 80.44623899660564 L32.52242190334506 78.47131511940414 L32.64899420714961 77.4959516327307 L32.75533348891813 76.50889863394613 L32.83575051355987 75.5113927116074 L32.88293357096291 74.49802574664851 L32.888549074651536 73.5128351694055 L32.86634008132013 72.50187688712727 L32.81802097273634 71.49820697299718 L32.742244737701874 70.49214890706985 L32.640980891049416 69.51047855690797 L32.5124810649079 68.53232789286862 L32.35150834345765 67.52881061356334 L32.16695997830301 66.55480223866584 L31.955573089221787 65.58308524646158 L31.712973389066057 64.59058218961735 L31.17740594307087 62.665477410404414 L30.321806555489417 59.818573400016064 L30.058545624186557 58.85318172116974 L29.831113037534735 57.86284574012295 L29.796577919503328 56.66025968711414 L30.037580465932173 55.65038970812437 L30.224363381781167 54.67562852278378 L30.374257817294875 53.71351102412012 L30.501101628369547 52.704788672557754 L30.601321187023906 51.69651106963932 L30.674744844475462 50.73882116027862 L30.731215010950127 49.73035314761801 L30.76828261115198 48.70288889939754 L30.785042786698707 46.73319145026288 L30.99 43.81 L30.99 43.81 L31.76812611176989 44.43087544620758 L32.521315997745475 45.12892898162244 L33.21441754109158 45.845154949989855 L33.87488697571077 46.59515802967781 L34.49355867732149 47.361794832860014 L35.07587012494482 48.145644567511674 L35.64473607542506 48.97663038148062 L36.199516886955976 49.857657962303826 L36.6953606209275 50.71308222989778 L37.16743591881355 51.59701504635845 L37.60243031698269 52.48208957381291 L38.00792546039506 53.379628507674056 L38.38970494834126 54.30159976538437 L38.751555171500534 55.25963025811966 L39.07296240994159 56.195853679351906 L39.36859755587613 57.14636316015577 L39.64004418396135 58.11589885028859 L39.8880109309238 59.10813970328867 L40.097132963871815 60.05141925394416 L40.29301089909339 61.05789146835069 L40.45494039086296 62.018882617617784 L40.60166897368131 63.04285169163317 L40.71834457555714 64.02442476350079 L40.81211905948825 65.00181023059403 L40.88430165254845 65.97814472548545 L40.93778067060175 67.00254300820504 L40.96829216590787 67.9796790252807 L40.97950848704328 68.99284307004183 L40.943258249615376 71.00020310140962 L40.80515961753269 73.9941576173283 L40.61867911248325 76.9832579067296 L40.46666821743989 78.98946938384103 L40.290334960080585 80.96170343933562 L40.0704928211018 82.97080131035557 L39.80611086160586 84.94665102243479 L39.71019924366281 85.94307185644364 L39.43708693194914 88.92661525821404 L39.286706933292095 90.92404687790444 L39.176265731912494 93.0301234214265 L39.10422518632119 94.96215988469763 L38.9301471895158 101.809869063846 L38.80276904830048 108.83155778711205 L38.68318681719495 117.01881347167459 L38.552352395429686 128.64 Z" fill="#000000" data-connection="3" class="" style="stroke-width: 0.65px; stroke: rgb(78, 94, 97);"></path><!----> <path d="M68.88 57.07 M68.88 57.07 M68.88 57.07 L68.88 57.07 L68.70834409380628 58.056884943152035 L68.49057856705407 59.02571313485725 L68.23953618893763 60.00084840726828 L67.44868035916039 62.886922901058526 L67.19989287144254 63.85731331326808 L66.96924697644604 64.83092474658902 L66.76026761496175 65.8072782549074 L66.57513413039368 66.78573805679193 L66.41079733113193 67.79357829889459 L66.27668400443514 68.77477260392901 L66.16768875149958 69.75716076241171 L66.08155094590296 70.76462625045596 L66.02071969038118 71.76807870618508 L65.98445599806597 72.74723162319182 L65.9698820271404 73.75850116998154 L65.9872710323947 74.75665927223305 L66.04570871745504 75.77440915734057 L66.13132620953353 76.73929439484844 L66.2476351689913 77.75810752128555 L66.37939642933257 78.73220360601547 L66.69490020392367 80.70540386345134 L67.06109482303935 82.6866240688198 L67.45872401040249 84.65008855497322 L68.09065423433313 87.56434534063752 L69.18931767126774 92.44964842443954 L69.78974611380792 95.38753518900177 L70.14159503213006 97.35651023494232 L70.4412146886879 99.3355882395033 L70.67424472290311 101.32400129271169 L70.76038841579881 102.32059215762555 L70.82291153472192 103.31765746835927 L70.92136651442821 106.31718324544106 L70.9836314012049 109.33432070077517 L71.02288919574674 112.30905377674047 L71.05141379091174 116.33148942289736 L71.05870835291948 120.30281004073396 L71.02302360326394 128.3204709833629 L70.34687030232097 128.64 L60.33463650533554 128.64 L60.33068052601272 128.26248815553646 L60.19516132171091 117.23654446876952 L60.06127559632852 108.25444417826957 L59.929900676303845 101.24670299282391 L59.83581319446073 97.30563063224321 L59.74194394318849 94.2548525869627 L59.655716529104645 92.21717422380402 L59.53957463028926 90.25146433115708 L59.370097910381986 88.25559659131378 L59.087162580925906 85.27780047526548 L58.968368498435424 84.28420777507019 L58.666264843450534 82.31316850622136 L58.400967206968424 80.32720577034726 L58.18057981111608 78.3313600952535 L58.09027216890186 77.33210404249193 L57.956671186561394 75.33752360345468 L57.89393142133668 73.33486336063622 L57.90643621183173 71.34043717346552 L57.94132008702731 70.35034852946856 L58.069029441907354 68.3756090392322 L58.16842769505755 67.33196078780938 L58.28412941369781 66.33730207225375 L58.421094733771376 65.3396050403574 L58.56889158501147 64.40401124811788 L58.74901569802838 63.39844231207732 L58.945732327721814 62.42053084804733 L59.165891435817755 61.435137214278164 L59.40177283448704 60.47607746562527 L59.66252523582502 59.5060777407542 L59.950019335817004 58.523312478548476 L60.244050377919464 57.59392322678204 L60.5670442986776 56.645158858003775 L60.92173661993504 55.675422021153004 L61.26300540875849 54.80231743752962 L61.66505323773665 53.83768495830465 L62.06042903597009 52.947081658032005 L62.478743819657055 52.05905933156663 L62.94851250923742 51.11993354821436 L63.39284851627084 50.281623119908936 L63.907725202881956 49.36423744999357 L64.39951236873338 48.53674917984373 L64.93662132790269 47.682449780171524 L65.48162295231703 46.86426678320564 L66.05607488887613 46.05161774613279 L66.67761809594458 45.22769409261838 L67.31567032941622 44.44260980252538 L67.31567032941622 44.44260980252539 L67.85192584469534 45.15544875875151 L67.81119661039826 47.16103369491518 L67.84034237686797 49.1631134179164 L67.9433087677451 51.15473127676795 L68.02441651245103 52.1360440188541 L68.13193617817835 53.14642069786194 L68.2671874051751 54.15497461438507 L68.42722934145776 55.117434812015915 L68.62746385494435 56.09129665872539 L68.88 57.07 L68.88 57.07 Z" fill="#000000" data-connection="4" class="" style="stroke-width: 0.65px; stroke: rgb(78, 94, 97);"></path><!----> <path d="M50 128.64 L49.53 128.44 L49.06 128.24 L48.86 127.94 L49.06 127.64 L49.53 127.44 L50 127.24 L50.2 126.93 L50 126.63 L49.53 126.43 L49.06 126.23 L48.86 125.93 L49.06 125.63 L49.53 125.43 L50 125.23 L50.2 124.93 L50 124.63 L49.53 124.43 L49.06 124.23 L48.86 123.93 L49.06 123.63 L49.53 123.43 L50 123.23 L50.2 122.93 L50 122.62 L49.53 122.42 L49.06 122.22 L48.86 121.92 L49.06 121.59 L49.53 121.29 L50 120.99 L50.2 120.65 L50 120.35 L49.53 120.15 L49.06 119.95 L48.86 119.65 L49.06 119.35 L49.53 119.15 L50 118.95 L50.2 118.65 L50 118.35 L49.53 118.15 L49.06 117.95 L48.86 117.65 L49.06 117.35 L49.53 117.15 L50 116.94 L50.2 116.64 L50 116.34 L49.53 116.14 L49.06 115.94 L48.86 115.64 L49.06 115.34 L49.53 115.14 L50 114.94 L50.2 114.64 L50 114.34 L49.53 114.14 L49.06 113.94 L48.86 113.64 L49.06 113.34 L49.53 113.14 L50 112.94 L50.2 112.63 L50 112.33 L49.53 112.13 L49.06 111.93 L48.86 111.63 L49.06 111.33 L49.53 111.13 L50 110.93 L50.2 110.63 L50 110.33 L49.53 110.13 L49.06 109.93 L48.86 109.63 L49.06 109.33 L49.53 109.13 L50 108.93 L50.2 108.63 L50 108.32 L49.53 108.12 L49.06 107.92 L48.86 107.62 L49.06 107.32 L49.53 107.12 L50 106.92 L50.2 106.62 L50 106.32 L49.53 106.12 L49.06 105.92 L48.86 105.62 L49.06 105.32 L49.53 105.12 L50 104.92 L50.2 104.62 L50 104.32 L49.53 104.11 L49.06 103.91 L48.86 103.61 L49.06 103.31 L49.53 103.11 L50 102.91 L50.2 102.61 L50 102.31 L49.53 102.11 L49.06 101.91 L48.86 101.61 L49.06 101.31 L49.53 101.11 L50 100.91 L50.2 100.61 L50 100.31 L49.53 100.11 L49.06 99.9 L48.86 99.6 L49.06 99.3 L49.53 99.1 L50 98.9 L50.2 98.6 L50 98.3 L49.53 98.1 L49.06 97.9 L48.86 97.6 L49.06 97.3 L49.53 97.1 L50 96.9 L50.2 96.6 L50 96.3 L49.53 96.1 L49.06 95.9 L48.86 95.59 L49.06 95.29 L49.53 95.09 L50 94.89 L50.2 94.59 L50 94.29 L49.53 94.09 L49.06 93.89 L48.86 93.59 L49.06 93.29 L49.53 93.09 L50 92.89 L50.2 92.59 L50 92.29 L49.53 92.09 L49.06 91.89 L48.86 91.59 L49.06 91.28 L49.53 91.08 L50 90.88 L50.2 90.58 L50 90.28 L49.53 90.08 L49.06 89.88 L48.86 89.58 L49.06 89.28 L49.53 89.08 L50 88.88 L50.2 88.58 L50 88.28 L49.53 88.08 L49.06 87.88 L48.86 87.58 L49.06 87.28 L49.53 87.07 L50 86.87 L50.2 86.57 L50 86.27 L49.53 86.07 L49.06 85.87 L48.86 85.57 L49.06 85.27 L49.53 85.07 L50 84.87 L50.2 84.57 L50 84.3 L49.53 84.1 L49.06 83.9 L48.86 83.6 L49.06 83.3 L49.53 83.1 L50 82.9 L50.2 82.6 L50 82.3 L49.53 82.1 L49.06 81.9 L48.86 81.6 L49.06 81.29 L49.53 81.09 L50 80.89 L50.2 80.59 L50 80.29 L49.53 80.09 L49.06 79.89 L48.86 79.59 L49.06 79.29 L49.53 79.09 L50 78.89 L50.2 78.59 L50 78.32 L49.53 78.12 L49.06 77.92 L48.86 77.62 L49.06 77.32 L49.53 77.12 L50 76.92 L50.2 76.62 L50 76.32 L49.53 76.12 L49.06 75.92 L48.86 75.61 L49.06 75.31 L49.53 75.11 L50 74.91 L50.2 74.61 L50 74.31 L49.53 74.11 L49.06 73.91 L48.86 73.61 L49.06 73.31 L49.53 73.11 L50 72.91 L50.2 72.61 L50 72.34 L49.53 72.14 L49.06 71.94 L48.86 71.64 L49.06 71.34 L49.53 71.14 L50 70.94 L50.2 70.64 L50 70.34 L49.53 70.13 L49.06 69.93 L48.86 69.63 L49.06 69.33 L49.53 69.13 L50 68.93 L50.2 68.63 L50 68.36 L49.53 68.16 L49.06 67.96 L48.86 67.66 L49.06 67.36 L49.53 67.16 L50 66.96 L50.2 66.66 L50 66.36 L49.53 66.16 L49.06 65.96 L48.86 65.66 L49.06 65.36 L49.53 65.16 L50 64.96 L50.2 64.66 L50 64.39 L49.53 64.19 L49.06 63.99 L48.86 63.69 L49.06 63.39 L49.53 63.19 L50 62.98 L50.2 62.68 L50 62.38 L49.53 62.18 L49.06 61.98 L48.86 61.68 L49.06 61.38 L49.53 61.18 L50 60.98 L50.2 60.68 L50 60.41 L49.53 60.21 L49.06 60.01 L48.86 59.71 L49.06 59.41 L49.53 59.21 L50 59.01 L50.2 58.71 L50 58.44 L49.53 58.24 L49.06 58.04 L48.86 57.74 L49.06 57.44 L49.53 57.24 L50 57.04 L50.2 56.74 L50 56.47 L49.53 56.27 L49.06 56.07 L48.86 55.77 L49.06 55.47 L49.53 55.27 L50 55.07 L50.2 54.77 L50 54.46 L49.53 54.26 L49.06 54.06 L48.86 53.76 L49.06 53.46 L49.53 53.26 L50 53.06 L50.2 52.76 L50 52.46 L49.53 52.26 L49.06 52.06 L48.86 51.76 L49.06 51.46 L49.53 51.26 L50 51.06 L50.2 50.76 L50 50.49 L49.53 50.29 L49.06 50.09 L48.86 49.79 L49.06 49.49 L49.53 49.29 L50 49.09 L50.2 48.78 L50 48.48 L49.53 48.28 L49.06 48.08 L48.86 47.78 L49.06 47.48 L49.53 47.28 L50 47.08 L50.2 46.78 L50 46.51 L49.53 46.31 L49.06 46.11 L48.86 45.81 L49.06 45.51 L49.53 45.31 L50 45.11 L50.2 44.81 L50 44.54 L49.53 44.34 L49.06 44.14 L48.86 43.84 L49.06 43.54 L49.53 43.34 L50 43.14 L50.2 42.84 L50 42.54 L49.53 42.34 L49.06 42.14 L48.86 41.84 L49.06 41.53 L49.53 41.33 L50 41.13 L50.2 40.83 L50 40.57 L49.53 40.37 L49.06 40.16 L48.86 39.86 L49.06 39.56 L49.53 39.36 L50 39.16 L50.2 38.86 L50 38.59 L49.53 38.39 L49.06 38.19 L48.86 37.89 L49.06 37.59 L49.53 37.39 L50 37.19 L50.2 36.89 L50 36.62 L49.53 36.42 L49.06 36.22 L48.86 35.92 L49.06 35.62 L49.53 35.42 L50 35.22 L50.2 34.92 L50 34.65 L49.53 34.45 L49.06 34.25 L48.86 33.95 L49.06 33.65 L49.53 33.45 L50 33.25 L50.2 32.95 L50 32.68 L49.53 32.48 L49.06 32.28 L48.86 31.98 L49.06 31.68 L49.53 31.48 L50 31.28 L50.2 30.98 L50 30.68 L49.96647201344564 30.665732771678996 " fill="none" data-connection="5" class="" style="stroke-width: 0.35px; stroke: rgb(78, 94, 97);"></path><!----> <path d="M89.76 79.62C87.35 70.37 81.74 61.28 78.7 51.52 76.09 43.14 72.52 34.35 69.95 33.98 67.54 38.9 67.31 51.12 69.01 57 69.01 57 77.73 75.92 81.47 83.83 81.47 83.83 86.29 83.33 89.76 79.62Z" fill="#000000" data-connection="6" class="" style="stroke-width: 0.65px; stroke: rgb(78, 94, 97);"></path><!----> <path d="M17.16 83.83C20.9 75.92 29.62 57 29.62 57 31.32 51.12 31.09 38.9 28.68 33.98 26.11 34.35 22.54 43.14 19.93 51.52 16.89 61.28 11.18 71.54 8.87 79.62 8.87 79.62 13.55 83.47 17.16 83.83Z" fill="#000000" data-connection="7" class="" style="stroke-width: 0.65px; stroke: rgb(78, 94, 97);"></path><!----> <path d="M49.43 128.64 L49.43 120.49 L49.43 117.15 L49.43 110.46 L49.43 103.78 L49.43 97.1 L49.43 90.42 L49.43 83.73 L49.43 77.05 L49.43 70.37 L49.43 60.35 L49.43 50.32 L49.43 43.64 L49.43 36.96 L49.43 30.67241943050479 " fill="none" data-connection="8" class="" style="stroke-width: 0.35px; stroke: rgb(78, 94, 97);"></path><!----> <path d="M81.47 83.83L81.67 95.26C81.67 95.26 85.78 94.73 87.39 94.29 88.99 93.86 91.43 92.59 91.36 92.42 90.93 91.48 93.7 90.55 94.57 90.25 95.77 89.81 98.78 87.61 98.78 87.61 98.78 87.61 90.46 80.56 89.79 79.62 89.79 79.62 85.78 83.6 81.47 83.83Z" fill="#000000" data-connection="9" class="" style="stroke-width: 0.65px; stroke: rgb(78, 94, 97);"></path><!----> <path d="M17.16 83.83L16.96 95.26C16.96 95.26 12.85 94.73 11.24 94.29 9.64 93.86 7.2 92.59 7.27 92.42 7.7 91.48 4.93 90.55 4.06 90.25 2.86 89.81-0.15 87.61-0.15 87.61-0.15 87.61 8.17 80.56 8.84 79.62 8.84 79.62 12.81 83.1 17.16 83.83Z" fill="#000000" data-connection="10" class="" style="stroke-width: 0.65px; stroke: rgb(78, 94, 97);"></path><!----> <path d="M91.2 89.48C91.3 87.61 89.39 83.37 89.06 83.33" fill="none" data-connection="11" class="" style="stroke-width: 0.35px; stroke: rgb(78, 94, 97);"></path><!----> <path d="M8.14 88.34C8.04 86.47 9.94 82.23 10.27 82.2" fill="none" data-connection="12" class="" style="stroke-width: 0.35px; stroke: rgb(78, 94, 97);"></path><!----> <path d="M91.3 92.42C91.06 91.42 88.42 87.04 88.82 86.44" fill="none" data-connection="13" class="" style="stroke-width: 0.35px; stroke: rgb(78, 94, 97);"></path><!----> <path d="M8.04 91.28C8.27 90.28 10.91 85.91 10.51 85.3" fill="none" data-connection="14" class="" style="stroke-width: 0.35px; stroke: rgb(78, 94, 97);"></path></g></g></g> </g> </svg>
