<!-- NECKLINE 3 -->
<!-- Sleeve1: Rounded Standup Neck -->
<svg xmlns="http://www.w3.org/2000/svg" xmlns:xlink= "http://www.w3.org/1999/xlink" viewBox="0 0 100 100"><path d="M42.72 35.52C44.35 37.39 46.76 38.53 49.43 38.53 52.11 38.53 54.48 37.36 56.15 35.52" id="Neckline_2_" stroke-width="1px" fill="white" stroke="#020202" data-main="1"></path><path d="M28.72 34.05L40.44 29.54 40.44 29.54 40.44 29.54C40.44 29.97 40.48 30.38 40.54 30.78" id="Neckline_3_" stroke-width="1px" fill="white" stroke="#020202" data-main="1"></path><path d="M58.35 30.58C58.39 30.24 58.42 29.87 58.42 29.54L58.42 29.54 58.42 29.54 70.11 34.05" id="Neckline_1_" stroke-width="1px" fill="white" stroke="#020202" data-main="1"></path><path d="M56.15 35.52C56.18 35.49 56.22 35.45 56.22 35.42 57.38 34.08 58.15 32.41 58.35 30.58" id="Neckline_4_" stroke-width="1px" fill="white" stroke="#020202" data-main="1"></path><path d="M40.54 30.78C40.78 32.55 41.55 34.15 42.65 35.42 42.68 35.45 42.68 35.45 42.72 35.49" id="Neckline_5_" stroke-width="1px" fill="white" stroke="#020202" data-main="1"></path><path d="M55.15 30.27C54.28 32.68 52.67 34.15 50.6 34.52 50.17 34.58 49.8 34.65 49.3 34.65 48.56 34.65 48.4 34.85 48.4 34.85 48.86 34.92 49.3 34.99 49.63 34.99 50.5 35.05 51.2 35.79 51.2 36.66L51.2 38.66C54.91 37.96 58.15 35.42 58.45 29.64L56.42 25.73C56.15 25.3 55.81 25.13 55.31 25.2 54.71 25.26 53.78 25.43 53.78 25.43 52.64 25.53 51.9 25.7 49 25.66 46.12 25.63 44.22 25.26 42.92 25.06 42.58 25 42.25 25.16 42.12 25.4 42.12 25.4 40.04 29.41 40.04 29.71 40.68 37.39 46.12 38.63 48.56 38.83 49.67 38.93 51.1 38.86 51.2 38.9 51.2 38.13 51.2 37.32 51.2 36.66 51.2 35.75 50.5 35.02 49.6 34.95 49.3 34.92 48.96 34.89 48.56 34.85 47.06 34.69 43.82 33.28 42.82 30.17L42.82 30.17C45.16 30.61 47.26 30.74 49.33 30.74 51.24 30.81 53.14 30.61 55.15 30.27L55.15 30.27Z" data-element="collar" stroke-width="1px" fill="white" stroke="#010101" data-main="1"></path><path d="M49.67 36.06C49.17 36.06 48.76 36.46 48.76 36.96 48.76 37.46 49.17 37.86 49.67 37.86 50.17 37.86 50.57 37.46 50.57 36.96 50.57 36.46 50.17 36.06 49.67 36.06Z" data-element="collar" stroke-width="1px" data-thin="1" data-main="1"></path><path d="M42.82 30.14C42.45 29.37 42.22 28.5 42.15 27.5L42.15 27.17C42.15 26.9 42.22 26.4 42.28 26.2 42.35 26 42.65 25.93 42.95 26.03L43.22 26.13" data-element="collar" stroke-width="1px" data-thin="1" data-main="1"></path><path d="M55.21 30.24C55.58 29.47 55.81 28.6 55.88 27.6L55.88 27.27C55.88 27 55.81 26.5 55.75 26.3 55.68 26.1 55.38 26.03 55.08 26.13L54.81 26.23" data-element="collar" stroke-width="1px" data-thin="1" data-main="1"></path><path d="M50.13 36.96C50.13 36.99 49.77 37.02 49.3 37.02 48.83 37.02 48.46 36.99 48.46 36.96 48.46 36.92 48.83 36.89 49.3 36.89 49.77 36.86 50.13 36.89 50.13 36.96Z" data-element="collar" stroke-width="1px" data-thin="1" data-main="1"></path><path d="M49.47 37.26C49.43 37.26 49.33 37.22 49.33 37.12 49.33 37.09 49.37 36.99 49.47 36.99 49.5 36.99 49.6 37.02 49.6 37.12 49.6 37.22 49.5 37.26 49.47 37.26Z" data-element="collar" stroke-width="1px" data-thin="1" data-main="1"></path><path d="M49.47 36.89C49.43 36.89 49.33 36.86 49.33 36.76 49.33 36.72 49.37 36.62 49.47 36.62 49.5 36.62 49.6 36.66 49.6 36.76 49.6 36.86 49.5 36.89 49.47 36.89Z" data-element="collar" stroke-width="1px" data-thin="1" data-main="1"></path><path d="M49.87 36.89C49.83 36.89 49.73 36.86 49.73 36.76 49.73 36.72 49.77 36.62 49.87 36.62 49.9 36.62 50 36.66 50 36.76 49.97 36.86 49.93 36.89 49.87 36.89Z" data-element="collar" stroke-width="1px" data-thin="1" data-main="1"></path><path d="M49.87 37.26C49.83 37.26 49.73 37.22 49.73 37.12 49.73 37.09 49.77 36.99 49.87 36.99 49.9 36.99 50 37.02 50 37.12 49.97 37.22 49.93 37.26 49.87 37.26Z" data-element="collar" stroke-width="1px" data-thin="1" data-main="1"></path><path d="M49.43 37.12L49.87 36.76" data-element="collar" stroke-dasharray="0.67, 0.33" stroke-width="1px" fill="white" stroke="#010101" data-main="1"></path><path d="M49.43 36.76L49.83 37.16" data-element="collar" stroke-dasharray="0.67, 0.33" stroke-width="1px" fill="white" stroke="#010101" data-main="1"></path><path d="M50.13 36.79L50.13 37.12" data-element="collar" stroke-width="1px" data-thin="1" data-main="1"></path><path d="M48.46 36.79L48.46 37.12" data-element="collar" stroke-width="1px" data-thin="1" data-main="1"></path></svg>
