<!-- No seam No zipper -->
<svg xmlns="http://www.w3.org/2000/svg" xmlns:xlink= "http://www.w3.org/1999/xlink" viewBox="-21.17 0 142.34 142.34"><path d="M70.05 33.95L70.05 33.95 69.9 34.26 69.78 34.55 69.66 34.86 69.54 35.18 69.43 35.51 69.33 35.82 69.15 36.46 68.98 37.13 68.84 37.77 68.71 38.4 68.59 39.08 68.48 39.76 68.34 40.72 68.26 41.4 68.19 42.07 68.11 43.04 68.06 43.71 68.01 44.72 67.97 45.72 67.95 46.41 67.95 47.39 67.95 48.38 67.98 49.41 68.01 50.08 68.05 50.75 68.12 51.71 68.22 52.72 68.3 53.4 68.39 54.07 68.49 54.7 68.61 55.37 68.75 56.01 68.92 56.69 69 57 68.97 57.33 68.91 57.67 68.85 57.99 68.7 58.65 68.54 59.29 68.37 59.93 67.63 62.51 67.37 63.46 67.2 64.11 66.96 65.08 66.82 65.73 66.69 66.39 66.56 67.06 66.4 68.05 66.3 68.7 66.22 69.38 66.12 70.36 66.05 71.35 66.01 72.04 65.98 73.03 65.97 74.02 65.99 74.7 66.02 75.38 66.07 76.03 66.13 76.69 66.2 77.36 66.32 78.34 66.47 79.36 66.63 80.32 66.81 81.33 66.99 82.31 67.18 83.29 67.45 84.62 67.73 85.91 68.01 87.21 68.9 91.13 69.18 92.44 69.53 94.07 69.85 95.71 70.03 96.69 70.19 97.68 70.34 98.67 70.44 99.34 70.56 100.33 70.64 101 70.7 101.66 70.76 102.33 70.82 103.33 70.86 104.3 70.9 105.69 70.94 107.67 70.97 109.66 71 112.04 71.02 114.7 71.04 117.69 71.05 122.34 71.06 127.73 71.05 133.43 71.03 139.4 71.02 142.1 70.94 142.34 28.17 142.34 27.92 142.29 27.88 134.58 27.87 127.19 27.88 120.55 27.91 114.88 27.95 110.18 27.98 108.19 28.01 106.53 28.04 105.18 28.09 103.84 28.12 103.17 28.18 102.17 28.24 101.51 28.33 100.51 28.41 99.84 28.54 98.85 28.63 98.19 28.78 97.19 28.95 96.21 29.12 95.22 29.38 93.91 29.72 92.27 29.93 91.29 30.89 87.04 31.17 85.75 31.45 84.45 31.72 83.12 31.91 82.15 32.09 81.17 32.26 80.18 32.42 79.19 32.52 78.51 32.64 77.54 32.72 76.85 32.78 76.2 32.84 75.55 32.87 74.87 32.89 74.22 32.89 73.86 32.89 73.2 32.86 72.19 32.81 71.2 32.76 70.52 32.66 69.53 32.58 68.88 32.49 68.2 32.33 67.21 32.21 66.56 32.08 65.91 31.94 65.26 31.78 64.58 31.62 63.94 31.37 62.99 31.09 62 30.54 60.08 30.28 59.12 30.13 58.48 30.05 58.15 29.93 57.5 29.87 57.15 29.91 56.85 30.08 56.18 30.22 55.54 30.35 54.87 30.46 54.24 30.56 53.57 30.64 52.9 30.71 52.22 30.78 51.55 30.84 50.59 30.88 49.91 30.91 49.21 30.94 48.22 30.94 47.56 30.94 46.58 30.93 45.89 30.89 44.89 30.84 43.88 30.79 43.21 30.71 42.24 30.64 41.57 30.52 40.56 30.43 39.9 30.33 39.25 30.21 38.57 30.08 37.94 29.93 37.26 29.77 36.63 29.59 35.97 29.39 35.35 29.28 35.03 29.16 34.71 29.04 34.43 28.89 34.1 28.74 33.92 39.99 29.65 40.3 29.54 40.62 29.61 40.95 29.71 40.95 29.71 41.13 29.79 41.8 29.94 42.13 30.02 42.77 30.14 43.1 30.2 43.44 30.25 44.09 30.35 45.07 30.47 46.08 30.56 47.09 30.62 48.09 30.66 48.77 30.67 49.44 30.67 50.08 30.66 50.75 30.64 51.77 30.59 52.77 30.51 53.76 30.4 54.42 30.31 55.08 30.22 55.74 30.1 56.07 30.04 56.72 29.91 57.05 29.84 57.7 29.69 58.02 29.61 58.02 29.61 58.15 29.57 58.47 29.62 70.05 33.95 70.05 33.95Z" id="Bodice_16_" stroke-width="1px" data-thin="1" data-main="1"></path></svg>
