<!-- Sleeve2: Sweetheart Neck Backline: back curved seam full zipper -->
<svg xmlns="http://www.w3.org/2000/svg" xmlns:xlink= "http://www.w3.org/1999/xlink" viewBox="25 50 250 300" preserveAspectRatio="xMidYMid meet" class="main-area"><g class="front-view"><g transform="translate(61,50)" class="area1-34"><g class="back" style="transform: translate(99px, 0px) scale(-1, 1);"><g><!----> <path d="M38.68318681719495 117.01881347167459 M38.500804981032395 133.21862777762433 M38.500804981032395 133.21862777762433 L38.500804981032395 133.21862777762433 L40.710096946658105 133.4839334547341 L41.724495955762535 133.56796732308874 L42.717699729320756 133.59283969749225 L43.57232708741349 133.38371726294324 L42.572622665837734 133.41604730465681 L41.589601927437656 133.26691905438148 L42.13874339720047 132.7051680786345 L43.13107213257071 132.5867796831479 L44.12476506491028 132.68478722364588 L44.99635859487598 133.15734555315322 L45.913559077934934 133.54991021175948 L46.89221641341608 133.7534220983514 L47.8894605425223 133.84616934460522 L48.88641896786116 133.87812170651847 L49.88702857565648 133.8533637063923 L50.60226718188895 133.87833943731613 L52.60697484884588 133.87196436415613 L53.59894189376087 133.8007651746568 L54.584475401374455 133.6357988674482 L55.550113009337146 133.36697461503852 L56.53387602753548 133.2019953074991 L57.53504973107912 133.20130615018934 L58.468692091546565 133.50051166125198 L60.38786760074018 133.7197457138089 L60.33068052601272 128.26248815553646 L60.19516132171091 117.23654446876952 L60.06127559632852 108.25444417826957 L59.929900676303845 101.24670299282391 L59.83581319446073 97.30563063224321 L59.74194394318849 94.2548525869627 L59.655716529104645 92.21717422380402 L59.53957463028926 90.25146433115708 L59.370097910381986 88.25559659131378 L59.087162580925906 85.27780047526548 L58.968368498435424 84.28420777507019 L58.666264843450534 82.31316850622136 L58.400967206968424 80.32720577034726 L58.18057981111608 78.3313600952535 L58.09027216890186 77.33210404249193 L57.956671186561394 75.33752360345468 L57.89393142133668 73.33486336063622 L57.90643621183173 71.34043717346552 L57.94132008702731 70.35034852946856 L58.069029441907354 68.3756090392322 L58.16842769505755 67.33196078780938 L58.28412941369781 66.33730207225375 L58.421094733771376 65.3396050403574 L58.56889158501147 64.40401124811788 L58.74901569802838 63.39844231207732 L58.945732327721814 62.42053084804733 L59.165891435817755 61.435137214278164 L59.40177283448704 60.47607746562527 L59.66252523582502 59.5060777407542 L59.950019335817004 58.523312478548476 L60.244050377919464 57.59392322678204 L60.5670442986776 56.645158858003775 L60.92173661993504 55.675422021153004 L61.26300540875849 54.80231743752962 L61.66505323773665 53.83768495830465 L62.06042903597009 52.947081658032005 L62.478743819657055 52.05905933156663 L62.94851250923742 51.11993354821436 L63.39284851627084 50.281623119908936 L63.907725202881956 49.36423744999357 L64.39951236873338 48.53674917984373 L64.93662132790269 47.682449780171524 L65.48162295231703 46.86426678320564 L66.05607488887613 46.05161774613279 L66.67761809594458 45.22769409261838 L67.31567032941622 44.44260980252538 L67.31567032941622 44.44260980252539 L67.89847316322061 44.15288454409421 L68.04339573117598 42.18272702572888 L68.14716764818053 41.174346720396464 L68.27393523920307 40.16138137138322 L68.41817231098106 39.196347623580934 L68.58953375433794 38.22671212119121 L68.80256548962092 37.2116038719758 L69.04552216387569 36.24268240817137 L69.32954724694355 35.30199973340275 L69.67309441311792 34.37739808675934 L70.05 33.95 L70.05 33.95 L58.80935911562757 29.749048618637083 L58.02 29.61 L58.02 29.61 L57.04865573391673 29.84455319215711 L56.07097430350128 30.046327424984874 L55.08844155888744 30.21743140190751 L54.102004889999044 30.359643209335378 L53.11219856853482 30.47440682246847 L52.11926854283708 30.56283252701695 L51.12329736768815 30.62569986367705 L50.10009183917676 30.664067316325067 L49.122506473114946 30.676252070892147 L48.11819101002607 30.663887905343827 L47.11212101038679 30.625880686094483 L46.10555750186709 30.56144225261819 L45.10045234799922 30.46949485830934 L44.12138779850296 30.351636772462257 L43.13999934423637 30.2029591368318 L42.14739847605616 30.017806155912574 L41.16857451320409 29.7956915617438 L40.95 29.74 L40.95 29.74 L39.998758669029236 29.646644391193558 L28.778347141218383 33.901331823493294 L28.68 33.98 L28.68 33.98 L29.074638075112034 34.89028083437634 L29.40216106379578 35.841818511288245 L29.674815131438155 36.81028701203604 L29.90265869509944 37.782119984397525 L30.09375217993583 38.75134814257824 L30.261847880548824 39.76620829278526 L30.395534241946375 40.73036725682753 L30.51163060129417 41.74064189743405 L30.99 43.81 L30.99 43.81 L31.76812611176989 44.43087544620758 L32.521315997745475 45.12892898162244 L33.21441754109158 45.845154949989855 L33.87488697571077 46.59515802967781 L34.49355867732149 47.361794832860014 L35.07587012494482 48.145644567511674 L35.64473607542506 48.97663038148062 L36.199516886955976 49.857657962303826 L36.6953606209275 50.71308222989778 L37.16743591881355 51.59701504635845 L37.60243031698269 52.48208957381291 L38.00792546039506 53.379628507674056 L38.38970494834126 54.30159976538437 L38.751555171500534 55.25963025811966 L39.07296240994159 56.195853679351906 L39.36859755587613 57.14636316015577 L39.64004418396135 58.11589885028859 L39.8880109309238 59.10813970328867 L40.097132963871815 60.05141925394416 L40.29301089909339 61.05789146835069 L40.45494039086296 62.018882617617784 L40.60166897368131 63.04285169163317 L40.71834457555714 64.02442476350079 L40.81211905948825 65.00181023059403 L40.88430165254845 65.97814472548545 L40.93778067060175 67.00254300820504 L40.96829216590787 67.9796790252807 L40.97950848704328 68.99284307004183 L40.943258249615376 71.00020310140962 L40.80515961753269 73.9941576173283 L40.61867911248325 76.9832579067296 L40.46666821743989 78.98946938384103 L40.290334960080585 80.96170343933562 L40.0704928211018 82.97080131035557 L39.80611086160586 84.94665102243479 L39.71019924366281 85.94307185644364 L39.43708693194914 88.92661525821404 L39.286706933292095 90.92404687790444 L39.176265731912494 93.0301234214265 L39.10422518632119 94.96215988469763 L38.9301471895158 101.809869063846 L38.80276904830048 108.83155778711205 L38.68318681719495 117.01881347167459 L38.500804981032395 133.21862777762433 Z" fill="#fff" data-connection="1" class="" style="stroke-width: 0.65px; stroke: rgb(78, 94, 97);"></path><!----> <path d="M60.33068052601272 128.26248815553646 M60.38786760074018 133.7197457138089 L60.38786760074018 133.7197457138089 L56.7977535036612 133.93775468180547 L57.008578364696646 134.0889880043032 L57.99705141721185 134.05262045905414 L58.99299301381433 133.93721056968184 L59.985291339410686 133.7891947891135 L61.95850116773163 133.4487932028244 L64.89865803089164 132.9146252471063 L65.88883692444492 132.75381297371217 L66.89387689704648 132.6500638721095 L67.88392954481941 132.63209583929478 L68.88330213621991 132.5646774645552 L69.87374320779146 132.41192593118342 L70.48583324711339 132.0749717683512 L69.52437062028892 131.85297606139505 L68.5665368643059 131.56572645622657 L68.61167314955651 131.06414839672513 L69.60189073673374 130.89544222422043 L72.58171788804472 130.54594683383635 L73.564791441869 130.40541949248262 L74.56172572944675 130.22122139148416 L75.52005668447205 129.96427158809576 L76.48103776777685 129.67895312181943 L77.46164595265232 129.45634280176355 L78.44307159359228 129.2687033183514 L79.41880733922578 129.10435240766827 L81.39517026693795 128.8164739425976 L84.37089515019616 128.45986036462008 L85.19446167332701 128.26000701844822 L83.87120246186709 125.5900379841855 L82.57732834064643 122.87822732344864 L81.32251858373095 120.13815524704843 L80.51077178581511 118.30053540549524 L79.72001152641971 116.45644427375585 L78.57365944594414 113.68060546417169 L77.47359692552952 110.8944594589125 L76.41607703983206 108.09767689113357 L75.3956212191289 105.2887464738733 L74.40566647231034 102.46588864651243 L73.12112098711776 98.67867293151066 L71.86277447084953 94.86687268016613 L67.53384058329753 81.55032112135439 L66.65727043384351 78.67482053095992 L66.3895037032308 77.71012186646587 L66.149004113089 76.74196518278404 L65.98763932972952 75.75848189851492 L65.92522232903963 74.75977840499277 L65.90001103032272 73.7604349431395 L65.91588781024225 72.74768696881752 L65.95409291665767 71.76836437159423 L66.01744513364282 70.76507648946809 L66.10664649952139 69.75805407072211 L66.21913289674285 68.77631047390527 L66.35719920993296 67.79602914175284 L66.52604523742305 66.78938925045478 L66.71596127841757 65.81224749354045 L66.930056605884 64.83732657872304 L67.42042606484051 62.89622788090371 L68.2274758627222 60.013646042081675 L68.48309302825746 59.03921660845941 L68.70431362767633 58.0709980055563 L68.8781056584039 57.08328159215482 L68.88 57.07 L68.88 57.07 L68.62746385494435 56.09129665872539 L68.42722934145776 55.117434812015915 L68.2671874051751 54.15497461438507 L68.13193617817835 53.14642069786194 L68.02441651245103 52.1360440188541 L67.9433087677451 51.15473127676795 L67.84034237686797 49.1631134179164 L67.81119661039826 47.16103369491518 L67.31567032941622 44.44260980252539 L67.31567032941622 44.44260980252538 L66.67761809594458 45.22769409261838 L66.05607488887613 46.05161774613279 L65.48162295231703 46.86426678320564 L64.93662132790269 47.682449780171524 L64.39951236873338 48.53674917984373 L63.907725202881956 49.36423744999357 L63.39284851627084 50.281623119908936 L62.94851250923742 51.11993354821436 L62.478743819657055 52.05905933156663 L62.06042903597009 52.947081658032005 L61.66505323773665 53.83768495830465 L61.26300540875849 54.80231743752962 L60.92173661993504 55.675422021153004 L60.5670442986776 56.645158858003775 L60.244050377919464 57.59392322678204 L59.950019335817004 58.523312478548476 L59.66252523582502 59.5060777407542 L59.40177283448704 60.47607746562527 L59.165891435817755 61.435137214278164 L58.945732327721814 62.42053084804733 L58.74901569802838 63.39844231207732 L58.56889158501147 64.40401124811788 L58.421094733771376 65.3396050403574 L58.28412941369781 66.33730207225375 L58.16842769505755 67.33196078780938 L58.069029441907354 68.3756090392322 L57.94132008702731 70.35034852946856 L57.90643621183173 71.34043717346552 L57.89393142133668 73.33486336063622 L57.956671186561394 75.33752360345468 L58.09027216890186 77.33210404249193 L58.18057981111608 78.3313600952535 L58.400967206968424 80.32720577034726 L58.666264843450534 82.31316850622136 L58.968368498435424 84.28420777507019 L59.087162580925906 85.27780047526548 L59.370097910381986 88.25559659131378 L59.53957463028926 90.25146433115708 L59.655716529104645 92.21717422380402 L59.74194394318849 94.2548525869627 L59.83581319446073 97.30563063224321 L59.929900676303845 101.24670299282391 L60.06127559632852 108.25444417826957 L60.19516132171091 117.23654446876952 L60.33068052601272 128.26248815553646 L60.38786760074018 133.7197457138089 Z" fill="#fff" data-connection="2" class="" style="stroke-width: 0.65px; stroke: rgb(78, 94, 97);"></path><!----> <path d="M47.26 30.63146724486536 L47.26 133.7876272782842 L51.94 133.7876272782842 L51.94 30.63146724486536 " fill="none" data-connection="3" class="" style="stroke-width: 0.35px; stroke: rgb(78, 94, 97);"></path><!----> <path d="M30.037580465932173 55.65038970812437 M29.796577919503328 56.66025968711414 L29.69 57.04 L29.864092151063176 58.0255815290456 L30.092408892152964 58.9924392083807 L30.35444196033609 59.945853788252485 L31.215146141775495 62.83554569051229 L31.73985199877262 64.76578461257982 L31.970151947169878 65.73524540130624 L32.17519250115151 66.70737439108146 L32.35816986641111 67.70949925735032 L32.508427995818344 68.6865775724167 L32.63136078376499 69.666312332807 L32.72928039896648 70.6725674738418 L32.79919327134926 71.67663543958012 L32.84223161235907 72.67736266444427 L32.85978438728755 73.6887206053932 L32.74793543029915 75.67095873946074 L32.625315860868504 76.6626836382498 L32.419622806995164 77.6402345762595 L32.23597887966663 78.62307067512015 L32.08525789142661 79.6110301235678 L31.8670073581132 80.58734353594485 L31.528747752182724 81.51706240105122 L30.92979782079411 83.4460343550176 L30.360277399401248 85.34916193223431 L29.52621875967598 88.22771717076675 L26.788668443585436 97.8356391873218 L25.6066078200015 102.67581987052725 L24.61162291888219 106.58434763083594 L23.57760023336971 110.46523643735958 L22.49629671274415 114.32688902584583 L21.65817093623903 117.1804824762772 L21.08284072629134 119.06767625754026 L20.48049746690441 120.97991389868062 L19.858763640141085 122.88427058734958 L19.203446236400136 124.81347189809111 L18.539058531929786 126.68557047155639 L17.481221830494892 129.48614279843468 L18.37521045797813 129.7731388677165 L20.316283699377795 130.22776049699837 L22.281268860696027 130.62770653611136 L23.26501045298682 130.79591248419877 L24.248536692300984 130.93316499997542 L25.246627967920197 131.04592892194674 L30.22210298496765 131.47455080472318 L31.21823267715351 131.6107830682097 L30.78681134914476 131.93856142442576 L29.841799906407395 132.09911154598888 L30.78566767599638 132.4150840410713 L31.776627932262834 132.54374375533186 L32.77440807693889 132.59883792425686 L33.776542472399974 132.6166432492464 L34.76101683820674 132.71155950455838 L38.500804981032395 133.21862777762433 L38.68318681719495 117.01881347167459 L38.80276904830048 108.83155778711205 L38.9301471895158 101.809869063846 L39.10422518632119 94.96215988469763 L39.176265731912494 93.0301234214265 L39.286706933292095 90.92404687790444 L39.43708693194914 88.92661525821404 L39.71019924366281 85.94307185644364 L39.80611086160586 84.94665102243479 L40.0704928211018 82.97080131035557 L40.290334960080585 80.96170343933562 L40.46666821743989 78.98946938384103 L40.61867911248325 76.9832579067296 L40.80515961753269 73.9941576173283 L40.943258249615376 71.00020310140962 L40.97950848704328 68.99284307004183 L40.96829216590787 67.9796790252807 L40.93778067060175 67.00254300820504 L40.88430165254845 65.97814472548545 L40.81211905948825 65.00181023059403 L40.71834457555714 64.02442476350079 L40.60166897368131 63.04285169163317 L40.45494039086296 62.018882617617784 L40.29301089909339 61.05789146835069 L40.097132963871815 60.05141925394416 L39.8880109309238 59.10813970328867 L39.64004418396135 58.11589885028859 L39.36859755587613 57.14636316015577 L39.07296240994159 56.195853679351906 L38.751555171500534 55.25963025811966 L38.38970494834126 54.30159976538437 L38.00792546039506 53.379628507674056 L37.60243031698269 52.48208957381291 L37.16743591881355 51.59701504635845 L36.6953606209275 50.71308222989778 L36.199516886955976 49.857657962303826 L35.64473607542506 48.97663038148062 L35.07587012494482 48.145644567511674 L34.49355867732149 47.361794832860014 L33.87488697571077 46.59515802967781 L33.21441754109158 45.845154949989855 L32.521315997745475 45.12892898162244 L31.76812611176989 44.43087544620758 L30.99 43.81 L30.99 43.81 L30.73048147076459 44.71712971272472 L30.785042786698707 46.73319145026288 L30.76828261115198 48.70288889939754 L30.731215010950127 49.73035314761801 L30.674744844475462 50.73882116027862 L30.601321187023906 51.69651106963932 L30.501101628369547 52.704788672557754 L30.374257817294875 53.71351102412012 L30.224363381781167 54.67562852278378 L30.037580465932173 55.65038970812437 L29.796577919503328 56.66025968711414 Z" fill="#fff" data-connection="4" class="" style="stroke-width: 0.65px; stroke: rgb(78, 94, 97);"></path><!----> <path d="M49.53 133.45 L50 133.25 L50.2 132.95 L50 132.65 L49.53 132.45 L49.06 132.25 L48.86 131.95 L49.06 131.65 L49.53 131.45 L50 131.24 L50.2 130.94 L50 130.64 L49.53 130.44 L49.06 130.24 L48.86 129.94 L49.06 129.64 L49.53 129.44 L50 129.24 L50.2 128.94 L50 128.64 L49.53 128.44 L49.06 128.24 L48.86 127.94 L49.06 127.64 L49.53 127.44 L50 127.24 L50.2 126.93 L50 126.63 L49.53 126.43 L49.06 126.23 L48.86 125.93 L49.06 125.63 L49.53 125.43 L50 125.23 L50.2 124.93 L50 124.63 L49.53 124.43 L49.06 124.23 L48.86 123.93 L49.06 123.63 L49.53 123.43 L50 123.23 L50.2 122.93 L50 122.62 L49.53 122.42 L49.06 122.22 L48.86 121.92 L49.06 121.59 L49.53 121.29 L50 120.99 L50.2 120.65 L50 120.35 L49.53 120.15 L49.06 119.95 L48.86 119.65 L49.06 119.35 L49.53 119.15 L50 118.95 L50.2 118.65 L50 118.35 L49.53 118.15 L49.06 117.95 L48.86 117.65 L49.06 117.35 L49.53 117.15 L50 116.94 L50.2 116.64 L50 116.34 L49.53 116.14 L49.06 115.94 L48.86 115.64 L49.06 115.34 L49.53 115.14 L50 114.94 L50.2 114.64 L50 114.34 L49.53 114.14 L49.06 113.94 L48.86 113.64 L49.06 113.34 L49.53 113.14 L50 112.94 L50.2 112.63 L50 112.33 L49.53 112.13 L49.06 111.93 L48.86 111.63 L49.06 111.33 L49.53 111.13 L50 110.93 L50.2 110.63 L50 110.33 L49.53 110.13 L49.06 109.93 L48.86 109.63 L49.06 109.33 L49.53 109.13 L50 108.93 L50.2 108.63 L50 108.32 L49.53 108.12 L49.06 107.92 L48.86 107.62 L49.06 107.32 L49.53 107.12 L50 106.92 L50.2 106.62 L50 106.32 L49.53 106.12 L49.06 105.92 L48.86 105.62 L49.06 105.32 L49.53 105.12 L50 104.92 L50.2 104.62 L50 104.32 L49.53 104.11 L49.06 103.91 L48.86 103.61 L49.06 103.31 L49.53 103.11 L50 102.91 L50.2 102.61 L50 102.31 L49.53 102.11 L49.06 101.91 L48.86 101.61 L49.06 101.31 L49.53 101.11 L50 100.91 L50.2 100.61 L50 100.31 L49.53 100.11 L49.06 99.9 L48.86 99.6 L49.06 99.3 L49.53 99.1 L50 98.9 L50.2 98.6 L50 98.3 L49.53 98.1 L49.06 97.9 L48.86 97.6 L49.06 97.3 L49.53 97.1 L50 96.9 L50.2 96.6 L50 96.3 L49.53 96.1 L49.06 95.9 L48.86 95.59 L49.06 95.29 L49.53 95.09 L50 94.89 L50.2 94.59 L50 94.29 L49.53 94.09 L49.06 93.89 L48.86 93.59 L49.06 93.29 L49.53 93.09 L50 92.89 L50.2 92.59 L50 92.29 L49.53 92.09 L49.06 91.89 L48.86 91.59 L49.06 91.28 L49.53 91.08 L50 90.88 L50.2 90.58 L50 90.28 L49.53 90.08 L49.06 89.88 L48.86 89.58 L49.06 89.28 L49.53 89.08 L50 88.88 L50.2 88.58 L50 88.28 L49.53 88.08 L49.06 87.88 L48.86 87.58 L49.06 87.28 L49.53 87.07 L50 86.87 L50.2 86.57 L50 86.27 L49.53 86.07 L49.06 85.87 L48.86 85.57 L49.06 85.27 L49.53 85.07 L50 84.87 L50.2 84.57 L50 84.3 L49.53 84.1 L49.06 83.9 L48.86 83.6 L49.06 83.3 L49.53 83.1 L50 82.9 L50.2 82.6 L50 82.3 L49.53 82.1 L49.06 81.9 L48.86 81.6 L49.06 81.29 L49.53 81.09 L50 80.89 L50.2 80.59 L50 80.29 L49.53 80.09 L49.06 79.89 L48.86 79.59 L49.06 79.29 L49.53 79.09 L50 78.89 L50.2 78.59 L50 78.32 L49.53 78.12 L49.06 77.92 L48.86 77.62 L49.06 77.32 L49.53 77.12 L50 76.92 L50.2 76.62 L50 76.32 L49.53 76.12 L49.06 75.92 L48.86 75.61 L49.06 75.31 L49.53 75.11 L50 74.91 L50.2 74.61 L50 74.31 L49.53 74.11 L49.06 73.91 L48.86 73.61 L49.06 73.31 L49.53 73.11 L50 72.91 L50.2 72.61 L50 72.34 L49.53 72.14 L49.06 71.94 L48.86 71.64 L49.06 71.34 L49.53 71.14 L50 70.94 L50.2 70.64 L50 70.34 L49.53 70.13 L49.06 69.93 L48.86 69.63 L49.06 69.33 L49.53 69.13 L50 68.93 L50.2 68.63 L50 68.36 L49.53 68.16 L49.06 67.96 L48.86 67.66 L49.06 67.36 L49.53 67.16 L50 66.96 L50.2 66.66 L50 66.36 L49.53 66.16 L49.06 65.96 L48.86 65.66 L49.06 65.36 L49.53 65.16 L50 64.96 L50.2 64.66 L50 64.39 L49.53 64.19 L49.06 63.99 L48.86 63.69 L49.06 63.39 L49.53 63.19 L50 62.98 L50.2 62.68 L50 62.38 L49.53 62.18 L49.06 61.98 L48.86 61.68 L49.06 61.38 L49.53 61.18 L50 60.98 L50.2 60.68 L50 60.41 L49.53 60.21 L49.06 60.01 L48.86 59.71 L49.06 59.41 L49.53 59.21 L50 59.01 L50.2 58.71 L50 58.44 L49.53 58.24 L49.06 58.04 L48.86 57.74 L49.06 57.44 L49.53 57.24 L50 57.04 L50.2 56.74 L50 56.47 L49.53 56.27 L49.06 56.07 L48.86 55.77 L49.06 55.47 L49.53 55.27 L50 55.07 L50.2 54.77 L50 54.46 L49.53 54.26 L49.06 54.06 L48.86 53.76 L49.06 53.46 L49.53 53.26 L50 53.06 L50.2 52.76 L50 52.46 L49.53 52.26 L49.06 52.06 L48.86 51.76 L49.06 51.46 L49.53 51.26 L50 51.06 L50.2 50.76 L50 50.49 L49.53 50.29 L49.06 50.09 L48.86 49.79 L49.06 49.49 L49.53 49.29 L50 49.09 L50.2 48.78 L50 48.48 L49.53 48.28 L49.06 48.08 L48.86 47.78 L49.06 47.48 L49.53 47.28 L50 47.08 L50.2 46.78 L50 46.51 L49.53 46.31 L49.06 46.11 L48.86 45.81 L49.06 45.51 L49.53 45.31 L50 45.11 L50.2 44.81 L50 44.54 L49.53 44.34 L49.06 44.14 L48.86 43.84 L49.06 43.54 L49.53 43.34 L50 43.14 L50.2 42.84 L50 42.54 L49.53 42.34 L49.06 42.14 L48.86 41.84 L49.06 41.53 L49.53 41.33 L50 41.13 L50.2 40.83 L50 40.57 L49.53 40.37 L49.06 40.16 L48.86 39.86 L49.06 39.56 L49.53 39.36 L50 39.16 L50.2 38.86 L50 38.59 L49.53 38.39 L49.06 38.19 L48.86 37.89 L49.06 37.59 L49.53 37.39 L50 37.19 L50.2 36.89 L50 36.62 L49.53 36.42 L49.06 36.22 L48.86 35.92 L49.06 35.62 L49.53 35.42 L50 35.22 L50.2 34.92 L50 34.65 L49.53 34.45 L49.06 34.25 L48.86 33.95 L49.06 33.65 L49.53 33.45 L50 33.25 L50.2 32.95 L50 32.68 L49.53 32.48 L49.06 32.28 L48.86 31.98 L49.06 31.68 L49.53 31.48 L50 31.28 L50.2 30.98 L50 30.68 L49.96647201344564 30.665732771678996 " fill="none" data-connection="5" class="" style="stroke-width: 0.35px; stroke: rgb(78, 94, 97);"></path><!----> <path d="M69.91 33.98C72.49 34.35 76.06 43.14 78.67 51.52 82.68 64.42 94.61 90.62 95.11 92.22 92.7 94.69 90.7 95.46 87.25 96.7 87.32 97.3 68.98 57 68.98 57 67.24 51.09 67.51 38.9 69.91 33.98Z" fill="#fff" data-connection="6" class="" style="stroke-width: 0.65px; stroke: rgb(78, 94, 97);"></path><!----> <path d="M28.68 33.98C26.11 34.35 22.54 43.14 19.93 51.52 15.92 64.42 3.99 90.28 3.49 91.89 5.9 94.36 7.9 95.46 11.34 96.7 11.28 97.3 29.62 57 29.62 57 31.32 51.12 31.09 38.9 28.68 33.98Z" fill="#fff" data-connection="7" class="" style="stroke-width: 0.65px; stroke: rgb(78, 94, 97);"></path><!----> <path d="M42.05 70.6C42.05 70.6 41.88 71.34 41.65 72.57 41.38 73.84 39.01 88.14 37.7 94.49 36.1 103.05 31.12 131.31 31.12 131.31L31.12 131.31 42.05 70.6 42.05 70.6Z" fill="#fff" data-connection="8" data-fillable="1" class="" style="stroke-width: 0.05px; fill: rgb(78, 94, 97); stroke: rgb(78, 94, 97);"></path><!----> <path d="M57.52 74.85C57.52 74.85 60.59 91.22 61.86 96.6 63.57 105.32 67.91 128.17 68.18 129.37 68.44 130.58 68.61 131.21 68.61 131.21L68.61 131.21 57.52 74.85 57.52 74.85Z" fill="#fff" data-connection="9" data-fillable="1" class="" style="stroke-width: 0.05px; fill: rgb(78, 94, 97); stroke: rgb(78, 94, 97);"></path><!----> <path d="M55.71 80.69C55.71 80.69 55.75 81.29 55.75 82.4 55.78 83.47 58.42 131.08 58.49 131.68 58.62 132.75 58.69 133.35 58.69 133.35L58.69 133.35 55.71 80.69 55.71 80.69Z" fill="#fff" data-connection="10" data-fillable="1" class="" style="stroke-width: 0.05px; fill: rgb(78, 94, 97); stroke: rgb(78, 94, 97);"></path><!----> <path d="M49.43 133.86467192634703 L49.43 130.51 L49.43 120.49 L49.43 117.15 L49.43 110.46 L49.43 103.78 L49.43 97.1 L49.43 90.42 L49.43 83.73 L49.43 77.05 L49.43 70.37 L49.43 60.35 L49.43 50.32 L49.43 43.64 L49.43 36.96 L49.43 30.67241943050479 " fill="none" data-connection="11" class="" style="stroke-width: 0.35px; stroke: rgb(78, 94, 97);"></path><!----> <path d="M41.85 86.24C41.85 86.24 41.85 86.77 41.88 87.68 41.88 88.58 41.91 89.91 41.95 91.45 41.95 94.59 41.98 98.77 42.02 102.95 41.98 107.12 41.95 124.7 41.95 127.84 41.95 129.41 41.91 130.71 41.88 131.61 41.88 132.51 41.85 133.05 41.85 133.05L41.85 133.05 41.85 86.24 41.85 86.24Z" fill="#fff" data-connection="12" data-fillable="1" class="" style="stroke-width: 0.05px; fill: rgb(78, 94, 97); stroke: rgb(78, 94, 97);"></path></g></g> <g class="front"><g><!----> <path d="M60.324129675329715 127.8877415390553 M60.365388760526166 131.82102977613684 M60.365388760526166 131.82102977613684 L60.365388760526166 131.82102977613684 L59.64124502057981 131.91663849045 L58.68735952614833 132.18737482213888 L57.95505333752971 132.81720119848865 L57.184897082271604 133.3325022483148 L56.20050721530887 133.5360630708469 L55.20990288440902 133.6682444880416 L54.21212614751705 133.76173058647538 L53.21099982889959 133.82659837440877 L52.21437588660596 133.86653733895778 L51.22061023472011 133.88250614779184 L49.2185958596396 133.87260545052524 L48.21483278709489 133.84008287286431 L47.21822652088947 133.78591563495536 L46.22821025314469 133.7077704540833 L45.226831358460565 133.59644171247982 L44.24408923449888 133.43537395853588 L43.299870178749984 133.13708995047438 L42.704198301823325 132.3742350779298 L41.779025233880574 132.02022349566366 L40.7943643100632 131.84495380420427 L39.80029042655579 131.79437908345687 L38.51509533298126 132.1713617969286 L38.68020791693575 117.38142170054535 L38.81102455704226 108.40828864340291 L38.939416367416 101.41043625996531 L39.03126235424594 97.47629764446921 L39.12782598854428 94.28076535333388 L39.20666409861534 92.37183692271566 L39.31941923730505 90.39178881623425 L39.57299165344241 87.40719170269473 L39.86826921126053 84.41894781255765 L40.16382419911872 82.44760500266196 L40.43256752694851 80.46277433685454 L40.66307539066625 78.46822220600939 L40.84108203426026 76.47098275713556 L40.9050305101363 75.47460391622624 L40.973584710075194 73.47623985257675 L40.979120905130216 72.47779843006059 L40.93327646206409 70.49706217898542 L40.88178356170614 69.51112792659139 L40.806823851767675 68.4760409054744 L40.71464758954283 67.48461458007881 L40.60201149374328 66.49156399595908 L40.46826673049971 65.49543727741636 L40.31262946959791 64.49488653281696 L40.147014276301 63.55705023604931 L39.94658308182921 62.54559716803453 L39.73751740490145 61.596553522166985 L39.49648804819084 60.60340053581233 L39.23905475996051 59.63499448220033 L38.965625627768034 58.68877591411268 L38.65392785608779 57.69310641523992 L38.33466398559649 56.74797093656511 L38.007761555229024 55.84507337979087 L37.64766330859966 54.914329876992824 L37.250954911847735 53.95466795580189 L36.86158072108464 53.070134661909194 L36.427202394295925 52.14133388925618 L35.9875178618908 51.25561810230849 L35.531439586292954 50.38789353195584 L35.02723266364106 49.48238048964986 L34.548111551833365 48.66899086899919 L33.997485884984094 47.78560671431843 L33.45230461973871 46.96078796689981 L32.891946129587275 46.16130114008989 L32.26964239749697 45.32842918904316 L31.664796293164255 44.5746097710961 L30.99 43.81 L30.990000000000002 43.81 L30.675834560814728 43.71299252160403 L30.51163060129417 41.74064189743405 L30.395534241946375 40.73036725682753 L30.261847880548824 39.76620829278526 L30.09375217993583 38.75134814257824 L29.90265869509944 37.782119984397525 L29.674815131438155 36.81028701203604 L29.40216106379578 35.841818511288245 L29.074638075112034 34.89028083437634 L28.68 33.98 L28.68 33.98 L28.55 34.15 L28.55 34.15 L39.73846516628898 29.81199962854565 L40.45373658728383 29.79035445886545 L40.42437479392798 30.78008246232916 L40.34050421626561 31.78144945472074 L40.22842930542307 32.769969376732675 L39.946160397883574 34.7610443874283 L39.615217295986646 36.73600792334599 L39.51 37.32 L39.51 37.32 L39.1452603325513 39.28842778296906 L38.74815895890633 41.247797955374196 L38.323538628282776 43.20417538799579 L37.878168746570275 45.14761028912474 L38.59254388581221 45.64142859712889 L39.51196840874291 46.07337634639496 L40.400768230292165 46.515016948127965 L41.29633316515103 46.98437277174671 L42.178005050262726 47.47231829689106 L43.03635150294858 47.97511588592987 L43.88069695392782 48.500735922228145 L44.70689010627687 49.0506792537567 L45.52738592318624 49.64001874399038 L46.32087211761602 50.2628236566739 L47.06017072666236 50.90662769012645 L47.77225903939077 51.61107698991563 L48.425281687481835 52.37429038531968 L48.98739112933386 53.20188974024246 L49.44867976441282 53.235345164398815 L50.021670113736384 52.414785612819216 L50.70250389628833 51.66581096253008 L51.42663638504639 50.99686545569895 L52.20100945310217 50.36729251332735 L53.01827909092451 49.767072330103524 L53.84483056324806 49.20855046211847 L54.68221358430807 48.68084559333392 L55.54456423367182 48.16955607897412 L56.42664853272173 47.674550931646145 L58.194346833614134 46.752425758253565 L59.99995190825273 45.891698313303294 L60.89380293338869 45.494719083160945 L61.20999250866937 44.788549367649864 L60.32783065847113 40.88565779003833 L59.69271504382731 37.9513167994671 L59.59 37.46 L59.59 37.46 L58.97171797607202 34.52990340890059 L58.57831466030763 32.56624696384619 L58.21321492048329 30.590874531503474 L58.057818558295665 29.60339254790745 L58.9241895220699 29.839917117373297 L69.1814085970807 33.81351206996152 L69.67309441311792 34.37739808675934 L69.32954724694355 35.30199973340275 L69.04552216387569 36.24268240817137 L68.80256548962092 37.2116038719758 L68.58953375433794 38.22671212119121 L68.41817231098106 39.196347623580934 L68.27393523920307 40.16138137138322 L68.14716764818053 41.174346720396464 L68.04339573117598 42.18272702572888 L67.51556760053487 44.21048762239662 L67.51556760053487 44.21048762239661 L66.89672519633305 44.95095027140296 L66.26476639761418 45.76860604830922 L65.68210693032805 46.57498378091658 L65.13004435195272 47.38664381018323 L64.58270794961798 48.23978385642288 L64.05806714395345 49.10643596698801 L63.554060995938684 49.98843269454904 L63.08680373773353 50.85409064987922 L62.642220148871516 51.7256668568385 L62.20794860258962 52.627928070242255 L61.7981412775874 53.531894276458864 L61.40697833912353 54.44946132266902 L61.03008228650709 55.392320792826 L60.68792029551501 56.3068630029605 L60.35451699195734 57.26162912765888 L60.040174855013724 58.23091810785202 L59.75416384261264 59.18388516314559 L59.48481288163328 60.15792824944845 L59.24093596689536 61.12036872642761 L59.02076606778728 62.07334013106119 L58.80904578327457 63.08848792676082 L58.633560757907055 64.02847025406564 L58.46769928042117 65.03138213455141 L58.324167252727605 66.02925330801779 L58.20211783479755 67.02337151190959 L58.10083714059479 68.01513649856912 L58.01974786811641 69.0060432169888 L57.91653025666507 70.99168935840547 L57.89334166000045 72.03861606699549 L57.907059903686246 74.01571549716265 L57.941349385638894 75.0095642379574 L58.06371414930299 77.00239669360809 L58.24882483898989 79.00058511318424 L58.48527064674079 80.99385480305608 L59.05477934563717 84.94952985617036 L59.43020010712577 88.9276648313055 L59.58321995992817 90.92502850420152 L59.69354225519806 93.02557478388465 L59.765617018500535 94.95359337227517 L59.91934264350883 100.8010155356859 L60.05265394965943 107.82114784451018 L60.190137768109366 117.00176904739506 L60.324129675329715 127.8877415390553 L60.365388760526166 131.82102977613684 Z" fill="#fff" data-connection="1" class="" style="stroke-width: 0.65px; stroke: rgb(78, 94, 97);"></path><!----> <path d="M68.88 57.07 M68.88 57.07 L68.88 57.07 L68.7079997443705 58.05637414293303 L68.48922176304347 59.02498513293536 L67.18932880277673 63.8550492114039 L66.95652279463391 64.8277851966848 L66.74534735792221 65.80312467112347 L66.55800651516506 66.78051799847289 L66.3914150863785 67.78734228303892 L66.2551711070657 68.76767515464343 L66.14414334334536 69.7494478187829 L66.05606592166335 70.75672061370274 L65.99350494852806 71.76049507047006 L65.9558171726777 72.73991030706362 L65.94007525069982 73.76016627287403 L65.98038242308252 74.77507062683586 L66.07931998938051 75.72097469756362 L66.2365021797698 76.74725720613941 L66.42542082651441 77.73245003753219 L66.6400821686715 78.70037013607399 L67.13232234958228 80.6210386247644 L67.70137073717086 82.57553349513692 L68.29457746729602 84.45125181477727 L68.92734644574763 86.34324829053561 L70.25560311850124 90.11333947322575 L72.64967814021611 96.71288898702375 L73.31364962788412 98.59457868338409 L74.2752298455447 101.40743311840643 L75.29343409997726 104.24023732957173 L75.99106166499782 106.10793032181401 L77.07529063008565 108.93165557176833 L78.18519534461436 111.74939873237471 L79.29083255729327 114.50122045988215 L81.9621317677741 120.98221223150372 L84.69139022837919 127.41048808626473 L84.86204190690019 128.26109363924974 L83.94975316412336 128.66959074749707 L82.99214910246097 128.94816668806158 L82.00133617648066 129.08917855401955 L81.00252941645842 129.0748628735812 L80.02587718270932 128.8987663644564 L79.02908529149084 128.7447254324039 L78.02862467904738 128.72594592432682 L77.04365335240597 128.83795932829563 L76.07667451528643 129.07751756732833 L75.13716208904889 129.44667698005517 L74.27412128230999 129.9366024762283 L73.5098926863453 130.5836192508234 L73.05949225013813 131.463117365647 L72.21250578093296 131.9715890275355 L71.25039844647905 132.25325901240515 L70.28541630355443 132.44675849618994 L69.29134471057675 132.59325009893072 L68.297586010594 132.70057842341976 L67.29767531760022 132.77477038545783 L66.29461770437477 132.8156555839319 L65.29018902315536 132.81805825128384 L64.29208210654718 132.76669058464145 L63.315010456867924 132.60606173980688 L62.61002097386575 131.98087989387733 L61.63153462380572 131.77513551456445 L60.365388760526166 131.82102977613684 L60.324129675329715 127.8877415390553 L60.190137768109366 117.00176904739506 L60.05265394965943 107.82114784451018 L59.91934264350883 100.8010155356859 L59.765617018500535 94.95359337227517 L59.69354225519806 93.02557478388465 L59.58321995992817 90.92502850420152 L59.43020010712577 88.9276648313055 L59.05477934563717 84.94952985617036 L58.48527064674079 80.99385480305608 L58.24882483898989 79.00058511318424 L58.06371414930299 77.00239669360809 L57.941349385638894 75.0095642379574 L57.907059903686246 74.01571549716265 L57.89334166000045 72.03861606699549 L57.91653025666507 70.99168935840547 L58.01974786811641 69.0060432169888 L58.10083714059479 68.01513649856912 L58.20211783479755 67.02337151190959 L58.324167252727605 66.02925330801779 L58.46769928042117 65.03138213455141 L58.633560757907055 64.02847025406564 L58.80904578327457 63.08848792676082 L59.02076606778728 62.07334013106119 L59.24093596689536 61.12036872642761 L59.48481288163328 60.15792824944845 L59.75416384261264 59.18388516314559 L60.040174855013724 58.23091810785202 L60.35451699195734 57.26162912765888 L60.68792029551501 56.3068630029605 L61.03008228650709 55.392320792826 L61.40697833912353 54.44946132266902 L61.7981412775874 53.531894276458864 L62.20794860258962 52.627928070242255 L62.642220148871516 51.7256668568385 L63.08680373773353 50.85409064987922 L63.554060995938684 49.98843269454904 L64.05806714395345 49.10643596698801 L64.58270794961798 48.23978385642288 L65.13004435195272 47.38664381018323 L65.68210693032805 46.57498378091658 L66.26476639761418 45.76860604830922 L66.89672519633305 44.95095027140296 L67.51556760053487 44.21048762239661 L67.51556760053487 44.21048762239662 L67.85192584469534 45.15544875875151 L67.81119661039826 47.16103369491518 L67.84034237686797 49.1631134179164 L67.9433087677451 51.15473127676795 L68.02441651245103 52.1360440188541 L68.13193617817835 53.14642069786194 L68.2671874051751 54.15497461438507 L68.42722934145776 55.117434812015915 L68.62746385494435 56.09129665872539 L68.88 57.07 L68.88 57.07 Z" fill="#fff" data-connection="2" class="" style="stroke-width: 0.65px; stroke: rgb(78, 94, 97);"></path><!----> <path d="M38.68020791693575 117.38142170054535 M38.51509533298126 132.1713617969286 L38.51509533298126 132.1713617969286 L38.096819937680195 132.54484888440632 L37.13755489875011 132.76131977184272 L36.1390051736732 132.82073469411924 L35.12878690171916 132.81818691451002 L34.13167573283044 132.7758884563093 L33.13251163619695 132.7012382739458 L32.14664466823589 132.597349344333 L31.150865373409946 132.45890083496658 L30.16950322410044 132.2801178195015 L29.191196732890965 132.0342999491571 L28.29217367427737 131.64670235958107 L27.806505570079427 130.8095232293953 L26.955440837233247 130.29510428413013 L26.0225623601882 129.9360447838541 L25.058497122843498 129.64865037230913 L24.095886338431452 129.4147583466434 L23.109001384002987 129.21936112295117 L22.120590930655005 129.06867057142014 L21.124852984038156 128.97635171791205 L20.129264235665183 128.96673469913142 L19.124403651177843 129.00548411518565 L18.14015575949402 129.13839221110868 L17.753507208557135 129.03660559351295 L18.722552029590755 126.19589152805295 L19.954672713165163 122.37597353538042 L21.13285953072187 118.54194866202967 L22.538586095767858 113.74547453224258 L23.60444027034433 109.94543868153785 L24.398352828755804 107.01993773685311 L25.420461255264097 103.12815817243785 L26.399660844979387 99.2787755896909 L26.922840156977422 97.350989639054 L27.75304181744847 94.49217131697752 L30.0873509549462 86.80236019744827 L30.647986850075654 84.8922763673345 L31.189896891998714 82.96096345315166 L31.69196307979153 81.04170994029413 L31.928038683081642 80.06790017018722 L32.354635821761526 78.09206050310303 L32.53164961819745 77.11679391675082 L32.68121043961156 76.12787349160966 L32.79144136542856 75.15071436372615 L32.85360887624865 74.14761999185745 L32.85340030395326 73.13836623603711 L32.823193763042426 72.15898214659013 L32.765357673352796 71.14189693713574 L32.68296153972358 70.16018159066499 L32.57072545350835 69.15566154107148 L32.42943972479289 68.15056550837946 L32.26412468077796 67.17456715207297 L32.071687409186175 66.20085079955223 L31.853098219561026 65.22944171097443 L31.61033288175689 64.26059839100915 L31.34105893400075 63.27469355404666 L30.216033376940935 59.45489074848027 L29.96764978344536 58.48903797142874 L29.764859309834574 57.512996123765475 L29.796577919503328 56.66025968711414 L30.037580465932173 55.65038970812437 L30.224363381781167 54.67562852278378 L30.374257817294875 53.71351102412012 L30.501101628369547 52.704788672557754 L30.601321187023906 51.69651106963932 L30.674744844475462 50.73882116027862 L30.731215010950127 49.73035314761801 L30.76828261115198 48.70288889939754 L30.785042786698707 46.73319145026288 L30.990000000000002 43.81 L30.99 43.81 L31.664796293164255 44.5746097710961 L32.26964239749697 45.32842918904316 L32.891946129587275 46.16130114008989 L33.45230461973871 46.96078796689981 L33.997485884984094 47.78560671431843 L34.548111551833365 48.66899086899919 L35.02723266364106 49.48238048964986 L35.531439586292954 50.38789353195584 L35.9875178618908 51.25561810230849 L36.427202394295925 52.14133388925618 L36.86158072108464 53.070134661909194 L37.250954911847735 53.95466795580189 L37.64766330859966 54.914329876992824 L38.007761555229024 55.84507337979087 L38.33466398559649 56.74797093656511 L38.65392785608779 57.69310641523992 L38.965625627768034 58.68877591411268 L39.23905475996051 59.63499448220033 L39.49648804819084 60.60340053581233 L39.73751740490145 61.596553522166985 L39.94658308182921 62.54559716803453 L40.147014276301 63.55705023604931 L40.31262946959791 64.49488653281696 L40.46826673049971 65.49543727741636 L40.60201149374328 66.49156399595908 L40.71464758954283 67.48461458007881 L40.806823851767675 68.4760409054744 L40.88178356170614 69.51112792659139 L40.93327646206409 70.49706217898542 L40.979120905130216 72.47779843006059 L40.973584710075194 73.47623985257675 L40.9050305101363 75.47460391622624 L40.84108203426026 76.47098275713556 L40.66307539066625 78.46822220600939 L40.43256752694851 80.46277433685454 L40.16382419911872 82.44760500266196 L39.86826921126053 84.41894781255765 L39.57299165344241 87.40719170269473 L39.31941923730505 90.39178881623425 L39.20666409861534 92.37183692271566 L39.12782598854428 94.28076535333388 L39.03126235424594 97.47629764446921 L38.939416367416 101.41043625996531 L38.81102455704226 108.40828864340291 L38.68020791693575 117.38142170054535 L38.51509533298126 132.1713617969286 Z" fill="#fff" data-connection="3" class="" style="stroke-width: 0.65px; stroke: rgb(78, 94, 97);"></path><!----> <path d="M69.91 33.98C72.49 34.35 76.06 43.14 78.67 51.52 82.68 64.42 94.61 90.62 95.11 92.22 93.1 93.12 89.89 94.16 87.25 96.7 87.32 97.3 68.98 57 68.98 57 67.24 51.09 67.51 38.9 69.91 33.98Z" fill="#fff" data-connection="4" class="" style="stroke-width: 0.65px; stroke: rgb(78, 94, 97);"></path><!----> <path d="M28.68 33.98C26.11 34.35 22.54 43.14 19.93 51.52 15.92 64.42 3.99 90.28 3.49 91.89 5.7 93.02 7.97 94.39 11.34 96.7 11.28 97.3 29.62 57 29.62 57 31.32 51.12 31.09 38.9 28.68 33.98Z" fill="#fff" data-connection="5" class="" style="stroke-width: 0.65px; stroke: rgb(78, 94, 97);"></path><!----> <path d="M56.68 131.98C56.68 131.98 56.55 131.14 56.35 129.67 56.15 128.2 55.85 126.13 55.51 123.63 55.18 121.12 54.85 118.21 54.48 115.07 54.31 113.5 54.11 111.9 53.94 110.23 53.84 109.39 53.78 108.59 53.68 107.76 53.61 106.92 53.51 106.09 53.44 105.25 53.31 103.58 53.17 101.91 53.04 100.24 52.97 99.4 52.94 98.6 52.87 97.8 52.84 97 52.77 96.2 52.74 95.39 52.67 93.82 52.57 92.29 52.54 90.85 52.47 89.41 52.47 88.04 52.44 86.77 52.41 84.23 52.44 82.16 52.47 80.69 52.51 79.22 52.54 78.39 52.54 78.39L52.54 78.39C52.54 78.39 52.54 79.22 52.51 80.69 52.47 82.16 52.47 84.27 52.51 86.77 52.54 88.04 52.57 89.41 52.61 90.85 52.64 92.29 52.74 93.82 52.81 95.39 52.84 96.2 52.91 96.96 52.94 97.8 53.01 98.6 53.04 99.44 53.11 100.24 53.24 101.88 53.38 103.58 53.51 105.25 53.58 106.09 53.68 106.92 53.74 107.76 53.81 108.59 53.91 109.43 53.98 110.23 54.14 111.87 54.31 113.5 54.48 115.07 54.85 118.21 55.18 121.12 55.48 123.63 55.81 126.13 56.08 128.2 56.25 129.67 56.62 131.14 56.72 131.98 56.68 131.98L56.68 131.98Z" fill="#fff" data-connection="6" data-fillable="1" class="" style="stroke-width: 0.05px; fill: rgb(78, 94, 97); stroke: rgb(78, 94, 97);"></path><!----> <path d="M 43.08 132.92 L 43.08 132.92 C 43.12 132.92 43.15 132.15 43.18 130.84 C 43.22 130.18 43.28 129.37 43.32 128.47 C 43.38 127.57 43.49 126.53 43.55 125.4 C 43.72 123.13 43.99 120.49 44.29 117.68 C 44.59 114.87 44.92 111.87 45.26 108.86 C 45.59 105.85 45.89 102.84 46.19 100.04 C 46.33 98.6 46.46 97.27 46.56 95.96 C 46.69 94.66 46.79 93.46 46.86 92.32 C 46.96 91.22 47.03 90.18 47.06 89.25 C 47.09 88.34 47.16 87.54 47.16 86.87 C 47.19 85.57 47.23 84.8 47.23 84.8 L 47.23 84.8 C 47.23 84.8 47.19 85.54 47.13 86.87 C 47.13 87.54 47.06 88.34 46.99 89.25 C 46.93 90.15 46.86 91.18 46.76 92.32 C 46.69 93.46 46.56 94.66 46.46 95.96 C 46.36 97.27 46.19 98.64 46.06 100.04 C 45.76 102.84 45.42 105.85 45.06 108.86 C 44.75 111.87 44.42 114.87 44.12 117.68 C 43.85 120.52 43.59 123.13 43.42 125.4 C 43.35 126.5 43.25 127.54 43.22 128.47 C 43.18 129.37 43.12 130.18 43.12 130.84 C 43.12 132.15 43.08 132.92 43.08 132.92 " fill="#fff" data-connection="7" data-fillable="1" class="" style="stroke-width: 0.05px; fill: rgb(78, 94, 97); stroke: rgb(78, 94, 97);"></path><!----> <path d="M 28.05 131.24 L 28.05 131.24 C 28.05 131.24 28.15 130.58 28.25 129.34 C 28.32 128.74 28.42 128 28.52 127.17 C 28.62 126.3 28.75 125.36 28.88 124.33 C 29.02 123.29 29.15 122.16 29.35 120.99 C 29.52 119.78 29.72 118.55 29.92 117.25 C 30.15 115.94 30.35 114.64 30.59 113.27 C 30.82 111.9 31.06 110.53 31.32 109.16 C 31.59 107.79 31.86 106.42 32.13 105.08 C 32.39 103.75 32.66 102.41 32.93 101.14 C 33.46 98.57 34 96.2 34.5 94.16 C 35 92.12 35.43 90.42 35.73 89.25 C 36.03 88.08 36.23 87.41 36.23 87.41 L 36.23 87.41 C 36.23 87.41 36.03 88.08 35.7 89.25 C 35.37 90.42 34.9 92.09 34.4 94.12 C 33.9 96.16 33.36 98.53 32.79 101.11 C 32.49 102.38 32.23 103.71 31.96 105.05 C 31.69 106.39 31.42 107.76 31.16 109.13 C 30.92 110.5 30.69 111.87 30.45 113.24 C 30.25 114.57 30.02 115.91 29.82 117.21 C 29.62 118.52 29.45 119.75 29.29 120.95 C 29.08 122.12 28.95 123.26 28.82 124.3 C 28.68 125.33 28.58 126.3 28.48 127.14 C 28.38 128 28.32 128.74 28.25 129.34 C 28.12 130.54 28.05 131.24 28.05 131.24 " fill="#fff" data-connection="8" data-fillable="1" class="" style="stroke-width: 0.05px; fill: rgb(78, 94, 97); stroke: rgb(78, 94, 97);"></path><!----> <path d="M62.26 131.18C62.26 131.18 62.23 130.51 62.2 129.31 62.16 128.1 62.1 126.4 62.03 124.36 61.96 122.32 61.86 119.92 61.69 117.35 61.56 114.77 61.39 112.03 61.23 109.33 60.96 103.85 60.73 98.4 60.56 94.29 60.46 92.25 60.42 90.52 60.39 89.35 60.36 88.14 60.32 87.48 60.32 87.48L60.32 87.48C60.32 87.48 60.46 90.22 60.63 94.32 60.79 98.43 61.06 103.91 61.36 109.36 61.49 112.1 61.66 114.84 61.79 117.38 61.93 119.95 62.03 122.32 62.1 124.4 62.16 126.43 62.2 128.17 62.23 129.34 62.26 130.48 62.26 131.18 62.26 131.18L62.26 131.18Z" fill="#fff" data-connection="9" data-fillable="1" class="" style="stroke-width: 0.05px; fill: rgb(78, 94, 97); stroke: rgb(78, 94, 97);"></path><!----> <path d="M38.31 132.28C38.31 132.28 38.31 129.84 38.27 126.17 38.27 122.49 38.24 117.58 38.21 112.7 38.21 107.79 38.24 102.91 38.31 99.24 38.31 98.3 38.34 97.47 38.37 96.73 38.41 96 38.41 95.33 38.44 94.79 38.47 93.72 38.51 93.12 38.51 93.12L38.51 93.12C38.51 93.12 38.51 93.72 38.47 94.79 38.47 95.86 38.44 97.4 38.41 99.24 38.37 102.91 38.37 107.82 38.37 112.7 38.37 117.61 38.41 122.49 38.37 126.17 38.37 129.84 38.31 132.28 38.31 132.28L38.31 132.28Z" fill="#fff" data-connection="10" class="" style="stroke-width: 0.05px; stroke: rgb(78, 94, 97); fill: rgb(78, 94, 97);" data-fillable="1"></path><!----> <path d="M72.79 128.04C72.79 128.04 72.62 127.5 72.32 126.6 72.19 126.13 72.02 125.6 71.82 124.96 71.62 124.33 71.42 123.59 71.22 122.83 70.38 119.68 69.38 115.44 68.44 111.2 67.57 106.95 66.77 102.68 66.17 99.47 65.87 97.87 65.67 96.53 65.5 95.59 65.34 94.66 65.27 94.12 65.27 94.12L65.27 94.12C65.27 94.12 65.67 96.26 66.27 99.47 66.87 102.68 67.71 106.95 68.61 111.2 69.51 115.44 70.48 119.68 71.32 122.83 71.52 123.63 71.72 124.33 71.89 124.96 72.05 125.6 72.22 126.17 72.35 126.6 72.65 127.5 72.79 128.04 72.79 128.04L72.79 128.04Z" fill="#fff" data-connection="11" class="" style="stroke-width: 0.05px; stroke: rgb(78, 94, 97); fill: rgb(78, 94, 97);" data-fillable="1"></path></g></g></g></g> <g transform="translate(140, 75) scale(0.7,0.7)" class="back-view"><g transform="translate(61,50)" class="area1-34"><g class="front" style="transform: translate(99px, 0px) scale(-1, 1);"><g><!----> <path d="M60.324129675329715 127.8877415390553 M60.365388760526166 131.82102977613684 M60.365388760526166 131.82102977613684 L60.365388760526166 131.82102977613684 L59.64124502057981 131.91663849045 L58.68735952614833 132.18737482213888 L57.95505333752971 132.81720119848865 L57.184897082271604 133.3325022483148 L56.20050721530887 133.5360630708469 L55.20990288440902 133.6682444880416 L54.21212614751705 133.76173058647538 L53.21099982889959 133.82659837440877 L52.21437588660596 133.86653733895778 L51.22061023472011 133.88250614779184 L49.2185958596396 133.87260545052524 L48.21483278709489 133.84008287286431 L47.21822652088947 133.78591563495536 L46.22821025314469 133.7077704540833 L45.226831358460565 133.59644171247982 L44.24408923449888 133.43537395853588 L43.299870178749984 133.13708995047438 L42.704198301823325 132.3742350779298 L41.779025233880574 132.02022349566366 L40.7943643100632 131.84495380420427 L39.80029042655579 131.79437908345687 L38.51509533298126 132.1713617969286 L38.68020791693575 117.38142170054535 L38.81102455704226 108.40828864340291 L38.939416367416 101.41043625996531 L39.03126235424594 97.47629764446921 L39.12782598854428 94.28076535333388 L39.20666409861534 92.37183692271566 L39.31941923730505 90.39178881623425 L39.57299165344241 87.40719170269473 L39.86826921126053 84.41894781255765 L40.16382419911872 82.44760500266196 L40.43256752694851 80.46277433685454 L40.66307539066625 78.46822220600939 L40.84108203426026 76.47098275713556 L40.9050305101363 75.47460391622624 L40.973584710075194 73.47623985257675 L40.979120905130216 72.47779843006059 L40.93327646206409 70.49706217898542 L40.88178356170614 69.51112792659139 L40.806823851767675 68.4760409054744 L40.71464758954283 67.48461458007881 L40.60201149374328 66.49156399595908 L40.46826673049971 65.49543727741636 L40.31262946959791 64.49488653281696 L40.147014276301 63.55705023604931 L39.94658308182921 62.54559716803453 L39.73751740490145 61.596553522166985 L39.49648804819084 60.60340053581233 L39.23905475996051 59.63499448220033 L38.965625627768034 58.68877591411268 L38.65392785608779 57.69310641523992 L38.33466398559649 56.74797093656511 L38.007761555229024 55.84507337979087 L37.64766330859966 54.914329876992824 L37.250954911847735 53.95466795580189 L36.86158072108464 53.070134661909194 L36.427202394295925 52.14133388925618 L35.9875178618908 51.25561810230849 L35.531439586292954 50.38789353195584 L35.02723266364106 49.48238048964986 L34.548111551833365 48.66899086899919 L33.997485884984094 47.78560671431843 L33.45230461973871 46.96078796689981 L32.891946129587275 46.16130114008989 L32.26964239749697 45.32842918904316 L31.664796293164255 44.5746097710961 L30.99 43.81 L30.990000000000002 43.81 L30.675834560814728 43.71299252160403 L30.51163060129417 41.74064189743405 L30.395534241946375 40.73036725682753 L30.261847880548824 39.76620829278526 L30.09375217993583 38.75134814257824 L29.90265869509944 37.782119984397525 L29.674815131438155 36.81028701203604 L29.40216106379578 35.841818511288245 L29.074638075112034 34.89028083437634 L28.68 33.98 L28.68 33.98 L28.55 34.15 L28.55 34.15 L39.73846516628898 29.81199962854565 L40.45373658728383 29.79035445886545 L40.42437479392798 30.78008246232916 L40.34050421626561 31.78144945472074 L40.22842930542307 32.769969376732675 L39.946160397883574 34.7610443874283 L39.615217295986646 36.73600792334599 L39.51 37.32 L39.51 37.32 L39.1452603325513 39.28842778296906 L38.74815895890633 41.247797955374196 L38.323538628282776 43.20417538799579 L37.878168746570275 45.14761028912474 L38.59254388581221 45.64142859712889 L39.51196840874291 46.07337634639496 L40.400768230292165 46.515016948127965 L41.29633316515103 46.98437277174671 L42.178005050262726 47.47231829689106 L43.03635150294858 47.97511588592987 L43.88069695392782 48.500735922228145 L44.70689010627687 49.0506792537567 L45.52738592318624 49.64001874399038 L46.32087211761602 50.2628236566739 L47.06017072666236 50.90662769012645 L47.77225903939077 51.61107698991563 L48.425281687481835 52.37429038531968 L48.98739112933386 53.20188974024246 L49.44867976441282 53.235345164398815 L50.021670113736384 52.414785612819216 L50.70250389628833 51.66581096253008 L51.42663638504639 50.99686545569895 L52.20100945310217 50.36729251332735 L53.01827909092451 49.767072330103524 L53.84483056324806 49.20855046211847 L54.68221358430807 48.68084559333392 L55.54456423367182 48.16955607897412 L56.42664853272173 47.674550931646145 L58.194346833614134 46.752425758253565 L59.99995190825273 45.891698313303294 L60.89380293338869 45.494719083160945 L61.20999250866937 44.788549367649864 L60.32783065847113 40.88565779003833 L59.69271504382731 37.9513167994671 L59.59 37.46 L59.59 37.46 L58.97171797607202 34.52990340890059 L58.57831466030763 32.56624696384619 L58.21321492048329 30.590874531503474 L58.057818558295665 29.60339254790745 L58.9241895220699 29.839917117373297 L69.1814085970807 33.81351206996152 L69.67309441311792 34.37739808675934 L69.32954724694355 35.30199973340275 L69.04552216387569 36.24268240817137 L68.80256548962092 37.2116038719758 L68.58953375433794 38.22671212119121 L68.41817231098106 39.196347623580934 L68.27393523920307 40.16138137138322 L68.14716764818053 41.174346720396464 L68.04339573117598 42.18272702572888 L67.51556760053487 44.21048762239662 L67.51556760053487 44.21048762239661 L66.89672519633305 44.95095027140296 L66.26476639761418 45.76860604830922 L65.68210693032805 46.57498378091658 L65.13004435195272 47.38664381018323 L64.58270794961798 48.23978385642288 L64.05806714395345 49.10643596698801 L63.554060995938684 49.98843269454904 L63.08680373773353 50.85409064987922 L62.642220148871516 51.7256668568385 L62.20794860258962 52.627928070242255 L61.7981412775874 53.531894276458864 L61.40697833912353 54.44946132266902 L61.03008228650709 55.392320792826 L60.68792029551501 56.3068630029605 L60.35451699195734 57.26162912765888 L60.040174855013724 58.23091810785202 L59.75416384261264 59.18388516314559 L59.48481288163328 60.15792824944845 L59.24093596689536 61.12036872642761 L59.02076606778728 62.07334013106119 L58.80904578327457 63.08848792676082 L58.633560757907055 64.02847025406564 L58.46769928042117 65.03138213455141 L58.324167252727605 66.02925330801779 L58.20211783479755 67.02337151190959 L58.10083714059479 68.01513649856912 L58.01974786811641 69.0060432169888 L57.91653025666507 70.99168935840547 L57.89334166000045 72.03861606699549 L57.907059903686246 74.01571549716265 L57.941349385638894 75.0095642379574 L58.06371414930299 77.00239669360809 L58.24882483898989 79.00058511318424 L58.48527064674079 80.99385480305608 L59.05477934563717 84.94952985617036 L59.43020010712577 88.9276648313055 L59.58321995992817 90.92502850420152 L59.69354225519806 93.02557478388465 L59.765617018500535 94.95359337227517 L59.91934264350883 100.8010155356859 L60.05265394965943 107.82114784451018 L60.190137768109366 117.00176904739506 L60.324129675329715 127.8877415390553 L60.365388760526166 131.82102977613684 Z" fill="#fff" data-connection="1" class="" style="stroke-width: 0.65px; stroke: rgb(78, 94, 97);"></path><!----> <path d="M68.88 57.07 M68.88 57.07 L68.88 57.07 L68.7079997443705 58.05637414293303 L68.48922176304347 59.02498513293536 L67.18932880277673 63.8550492114039 L66.95652279463391 64.8277851966848 L66.74534735792221 65.80312467112347 L66.55800651516506 66.78051799847289 L66.3914150863785 67.78734228303892 L66.2551711070657 68.76767515464343 L66.14414334334536 69.7494478187829 L66.05606592166335 70.75672061370274 L65.99350494852806 71.76049507047006 L65.9558171726777 72.73991030706362 L65.94007525069982 73.76016627287403 L65.98038242308252 74.77507062683586 L66.07931998938051 75.72097469756362 L66.2365021797698 76.74725720613941 L66.42542082651441 77.73245003753219 L66.6400821686715 78.70037013607399 L67.13232234958228 80.6210386247644 L67.70137073717086 82.57553349513692 L68.29457746729602 84.45125181477727 L68.92734644574763 86.34324829053561 L70.25560311850124 90.11333947322575 L72.64967814021611 96.71288898702375 L73.31364962788412 98.59457868338409 L74.2752298455447 101.40743311840643 L75.29343409997726 104.24023732957173 L75.99106166499782 106.10793032181401 L77.07529063008565 108.93165557176833 L78.18519534461436 111.74939873237471 L79.29083255729327 114.50122045988215 L81.9621317677741 120.98221223150372 L84.69139022837919 127.41048808626473 L84.86204190690019 128.26109363924974 L83.94975316412336 128.66959074749707 L82.99214910246097 128.94816668806158 L82.00133617648066 129.08917855401955 L81.00252941645842 129.0748628735812 L80.02587718270932 128.8987663644564 L79.02908529149084 128.7447254324039 L78.02862467904738 128.72594592432682 L77.04365335240597 128.83795932829563 L76.07667451528643 129.07751756732833 L75.13716208904889 129.44667698005517 L74.27412128230999 129.9366024762283 L73.5098926863453 130.5836192508234 L73.05949225013813 131.463117365647 L72.21250578093296 131.9715890275355 L71.25039844647905 132.25325901240515 L70.28541630355443 132.44675849618994 L69.29134471057675 132.59325009893072 L68.297586010594 132.70057842341976 L67.29767531760022 132.77477038545783 L66.29461770437477 132.8156555839319 L65.29018902315536 132.81805825128384 L64.29208210654718 132.76669058464145 L63.315010456867924 132.60606173980688 L62.61002097386575 131.98087989387733 L61.63153462380572 131.77513551456445 L60.365388760526166 131.82102977613684 L60.324129675329715 127.8877415390553 L60.190137768109366 117.00176904739506 L60.05265394965943 107.82114784451018 L59.91934264350883 100.8010155356859 L59.765617018500535 94.95359337227517 L59.69354225519806 93.02557478388465 L59.58321995992817 90.92502850420152 L59.43020010712577 88.9276648313055 L59.05477934563717 84.94952985617036 L58.48527064674079 80.99385480305608 L58.24882483898989 79.00058511318424 L58.06371414930299 77.00239669360809 L57.941349385638894 75.0095642379574 L57.907059903686246 74.01571549716265 L57.89334166000045 72.03861606699549 L57.91653025666507 70.99168935840547 L58.01974786811641 69.0060432169888 L58.10083714059479 68.01513649856912 L58.20211783479755 67.02337151190959 L58.324167252727605 66.02925330801779 L58.46769928042117 65.03138213455141 L58.633560757907055 64.02847025406564 L58.80904578327457 63.08848792676082 L59.02076606778728 62.07334013106119 L59.24093596689536 61.12036872642761 L59.48481288163328 60.15792824944845 L59.75416384261264 59.18388516314559 L60.040174855013724 58.23091810785202 L60.35451699195734 57.26162912765888 L60.68792029551501 56.3068630029605 L61.03008228650709 55.392320792826 L61.40697833912353 54.44946132266902 L61.7981412775874 53.531894276458864 L62.20794860258962 52.627928070242255 L62.642220148871516 51.7256668568385 L63.08680373773353 50.85409064987922 L63.554060995938684 49.98843269454904 L64.05806714395345 49.10643596698801 L64.58270794961798 48.23978385642288 L65.13004435195272 47.38664381018323 L65.68210693032805 46.57498378091658 L66.26476639761418 45.76860604830922 L66.89672519633305 44.95095027140296 L67.51556760053487 44.21048762239661 L67.51556760053487 44.21048762239662 L67.85192584469534 45.15544875875151 L67.81119661039826 47.16103369491518 L67.84034237686797 49.1631134179164 L67.9433087677451 51.15473127676795 L68.02441651245103 52.1360440188541 L68.13193617817835 53.14642069786194 L68.2671874051751 54.15497461438507 L68.42722934145776 55.117434812015915 L68.62746385494435 56.09129665872539 L68.88 57.07 L68.88 57.07 Z" fill="#fff" data-connection="2" class="" style="stroke-width: 0.65px; stroke: rgb(78, 94, 97);"></path><!----> <path d="M38.68020791693575 117.38142170054535 M38.51509533298126 132.1713617969286 L38.51509533298126 132.1713617969286 L38.096819937680195 132.54484888440632 L37.13755489875011 132.76131977184272 L36.1390051736732 132.82073469411924 L35.12878690171916 132.81818691451002 L34.13167573283044 132.7758884563093 L33.13251163619695 132.7012382739458 L32.14664466823589 132.597349344333 L31.150865373409946 132.45890083496658 L30.16950322410044 132.2801178195015 L29.191196732890965 132.0342999491571 L28.29217367427737 131.64670235958107 L27.806505570079427 130.8095232293953 L26.955440837233247 130.29510428413013 L26.0225623601882 129.9360447838541 L25.058497122843498 129.64865037230913 L24.095886338431452 129.4147583466434 L23.109001384002987 129.21936112295117 L22.120590930655005 129.06867057142014 L21.124852984038156 128.97635171791205 L20.129264235665183 128.96673469913142 L19.124403651177843 129.00548411518565 L18.14015575949402 129.13839221110868 L17.753507208557135 129.03660559351295 L18.722552029590755 126.19589152805295 L19.954672713165163 122.37597353538042 L21.13285953072187 118.54194866202967 L22.538586095767858 113.74547453224258 L23.60444027034433 109.94543868153785 L24.398352828755804 107.01993773685311 L25.420461255264097 103.12815817243785 L26.399660844979387 99.2787755896909 L26.922840156977422 97.350989639054 L27.75304181744847 94.49217131697752 L30.0873509549462 86.80236019744827 L30.647986850075654 84.8922763673345 L31.189896891998714 82.96096345315166 L31.69196307979153 81.04170994029413 L31.928038683081642 80.06790017018722 L32.354635821761526 78.09206050310303 L32.53164961819745 77.11679391675082 L32.68121043961156 76.12787349160966 L32.79144136542856 75.15071436372615 L32.85360887624865 74.14761999185745 L32.85340030395326 73.13836623603711 L32.823193763042426 72.15898214659013 L32.765357673352796 71.14189693713574 L32.68296153972358 70.16018159066499 L32.57072545350835 69.15566154107148 L32.42943972479289 68.15056550837946 L32.26412468077796 67.17456715207297 L32.071687409186175 66.20085079955223 L31.853098219561026 65.22944171097443 L31.61033288175689 64.26059839100915 L31.34105893400075 63.27469355404666 L30.216033376940935 59.45489074848027 L29.96764978344536 58.48903797142874 L29.764859309834574 57.512996123765475 L29.796577919503328 56.66025968711414 L30.037580465932173 55.65038970812437 L30.224363381781167 54.67562852278378 L30.374257817294875 53.71351102412012 L30.501101628369547 52.704788672557754 L30.601321187023906 51.69651106963932 L30.674744844475462 50.73882116027862 L30.731215010950127 49.73035314761801 L30.76828261115198 48.70288889939754 L30.785042786698707 46.73319145026288 L30.990000000000002 43.81 L30.99 43.81 L31.664796293164255 44.5746097710961 L32.26964239749697 45.32842918904316 L32.891946129587275 46.16130114008989 L33.45230461973871 46.96078796689981 L33.997485884984094 47.78560671431843 L34.548111551833365 48.66899086899919 L35.02723266364106 49.48238048964986 L35.531439586292954 50.38789353195584 L35.9875178618908 51.25561810230849 L36.427202394295925 52.14133388925618 L36.86158072108464 53.070134661909194 L37.250954911847735 53.95466795580189 L37.64766330859966 54.914329876992824 L38.007761555229024 55.84507337979087 L38.33466398559649 56.74797093656511 L38.65392785608779 57.69310641523992 L38.965625627768034 58.68877591411268 L39.23905475996051 59.63499448220033 L39.49648804819084 60.60340053581233 L39.73751740490145 61.596553522166985 L39.94658308182921 62.54559716803453 L40.147014276301 63.55705023604931 L40.31262946959791 64.49488653281696 L40.46826673049971 65.49543727741636 L40.60201149374328 66.49156399595908 L40.71464758954283 67.48461458007881 L40.806823851767675 68.4760409054744 L40.88178356170614 69.51112792659139 L40.93327646206409 70.49706217898542 L40.979120905130216 72.47779843006059 L40.973584710075194 73.47623985257675 L40.9050305101363 75.47460391622624 L40.84108203426026 76.47098275713556 L40.66307539066625 78.46822220600939 L40.43256752694851 80.46277433685454 L40.16382419911872 82.44760500266196 L39.86826921126053 84.41894781255765 L39.57299165344241 87.40719170269473 L39.31941923730505 90.39178881623425 L39.20666409861534 92.37183692271566 L39.12782598854428 94.28076535333388 L39.03126235424594 97.47629764446921 L38.939416367416 101.41043625996531 L38.81102455704226 108.40828864340291 L38.68020791693575 117.38142170054535 L38.51509533298126 132.1713617969286 Z" fill="#fff" data-connection="3" class="" style="stroke-width: 0.65px; stroke: rgb(78, 94, 97);"></path><!----> <path d="M69.91 33.98C72.49 34.35 76.06 43.14 78.67 51.52 82.68 64.42 94.61 90.62 95.11 92.22 93.1 93.12 89.89 94.16 87.25 96.7 87.32 97.3 68.98 57 68.98 57 67.24 51.09 67.51 38.9 69.91 33.98Z" fill="#fff" data-connection="4" class="" style="stroke-width: 0.65px; stroke: rgb(78, 94, 97);"></path><!----> <path d="M28.68 33.98C26.11 34.35 22.54 43.14 19.93 51.52 15.92 64.42 3.99 90.28 3.49 91.89 5.7 93.02 7.97 94.39 11.34 96.7 11.28 97.3 29.62 57 29.62 57 31.32 51.12 31.09 38.9 28.68 33.98Z" fill="#fff" data-connection="5" class="" style="stroke-width: 0.65px; stroke: rgb(78, 94, 97);"></path><!----> <path d="M56.68 131.98C56.68 131.98 56.55 131.14 56.35 129.67 56.15 128.2 55.85 126.13 55.51 123.63 55.18 121.12 54.85 118.21 54.48 115.07 54.31 113.5 54.11 111.9 53.94 110.23 53.84 109.39 53.78 108.59 53.68 107.76 53.61 106.92 53.51 106.09 53.44 105.25 53.31 103.58 53.17 101.91 53.04 100.24 52.97 99.4 52.94 98.6 52.87 97.8 52.84 97 52.77 96.2 52.74 95.39 52.67 93.82 52.57 92.29 52.54 90.85 52.47 89.41 52.47 88.04 52.44 86.77 52.41 84.23 52.44 82.16 52.47 80.69 52.51 79.22 52.54 78.39 52.54 78.39L52.54 78.39C52.54 78.39 52.54 79.22 52.51 80.69 52.47 82.16 52.47 84.27 52.51 86.77 52.54 88.04 52.57 89.41 52.61 90.85 52.64 92.29 52.74 93.82 52.81 95.39 52.84 96.2 52.91 96.96 52.94 97.8 53.01 98.6 53.04 99.44 53.11 100.24 53.24 101.88 53.38 103.58 53.51 105.25 53.58 106.09 53.68 106.92 53.74 107.76 53.81 108.59 53.91 109.43 53.98 110.23 54.14 111.87 54.31 113.5 54.48 115.07 54.85 118.21 55.18 121.12 55.48 123.63 55.81 126.13 56.08 128.2 56.25 129.67 56.62 131.14 56.72 131.98 56.68 131.98L56.68 131.98Z" fill="#fff" data-connection="6" data-fillable="1" class="" style="stroke-width: 0.05px; fill: rgb(78, 94, 97); stroke: rgb(78, 94, 97);"></path><!----> <path d="M 43.08 132.92 L 43.08 132.92 C 43.12 132.92 43.15 132.15 43.18 130.84 C 43.22 130.18 43.28 129.37 43.32 128.47 C 43.38 127.57 43.49 126.53 43.55 125.4 C 43.72 123.13 43.99 120.49 44.29 117.68 C 44.59 114.87 44.92 111.87 45.26 108.86 C 45.59 105.85 45.89 102.84 46.19 100.04 C 46.33 98.6 46.46 97.27 46.56 95.96 C 46.69 94.66 46.79 93.46 46.86 92.32 C 46.96 91.22 47.03 90.18 47.06 89.25 C 47.09 88.34 47.16 87.54 47.16 86.87 C 47.19 85.57 47.23 84.8 47.23 84.8 L 47.23 84.8 C 47.23 84.8 47.19 85.54 47.13 86.87 C 47.13 87.54 47.06 88.34 46.99 89.25 C 46.93 90.15 46.86 91.18 46.76 92.32 C 46.69 93.46 46.56 94.66 46.46 95.96 C 46.36 97.27 46.19 98.64 46.06 100.04 C 45.76 102.84 45.42 105.85 45.06 108.86 C 44.75 111.87 44.42 114.87 44.12 117.68 C 43.85 120.52 43.59 123.13 43.42 125.4 C 43.35 126.5 43.25 127.54 43.22 128.47 C 43.18 129.37 43.12 130.18 43.12 130.84 C 43.12 132.15 43.08 132.92 43.08 132.92 " fill="#fff" data-connection="7" data-fillable="1" class="" style="stroke-width: 0.05px; fill: rgb(78, 94, 97); stroke: rgb(78, 94, 97);"></path><!----> <path d="M 28.05 131.24 L 28.05 131.24 C 28.05 131.24 28.15 130.58 28.25 129.34 C 28.32 128.74 28.42 128 28.52 127.17 C 28.62 126.3 28.75 125.36 28.88 124.33 C 29.02 123.29 29.15 122.16 29.35 120.99 C 29.52 119.78 29.72 118.55 29.92 117.25 C 30.15 115.94 30.35 114.64 30.59 113.27 C 30.82 111.9 31.06 110.53 31.32 109.16 C 31.59 107.79 31.86 106.42 32.13 105.08 C 32.39 103.75 32.66 102.41 32.93 101.14 C 33.46 98.57 34 96.2 34.5 94.16 C 35 92.12 35.43 90.42 35.73 89.25 C 36.03 88.08 36.23 87.41 36.23 87.41 L 36.23 87.41 C 36.23 87.41 36.03 88.08 35.7 89.25 C 35.37 90.42 34.9 92.09 34.4 94.12 C 33.9 96.16 33.36 98.53 32.79 101.11 C 32.49 102.38 32.23 103.71 31.96 105.05 C 31.69 106.39 31.42 107.76 31.16 109.13 C 30.92 110.5 30.69 111.87 30.45 113.24 C 30.25 114.57 30.02 115.91 29.82 117.21 C 29.62 118.52 29.45 119.75 29.29 120.95 C 29.08 122.12 28.95 123.26 28.82 124.3 C 28.68 125.33 28.58 126.3 28.48 127.14 C 28.38 128 28.32 128.74 28.25 129.34 C 28.12 130.54 28.05 131.24 28.05 131.24 " fill="#fff" data-connection="8" data-fillable="1" class="" style="stroke-width: 0.05px; fill: rgb(78, 94, 97); stroke: rgb(78, 94, 97);"></path><!----> <path d="M62.26 131.18C62.26 131.18 62.23 130.51 62.2 129.31 62.16 128.1 62.1 126.4 62.03 124.36 61.96 122.32 61.86 119.92 61.69 117.35 61.56 114.77 61.39 112.03 61.23 109.33 60.96 103.85 60.73 98.4 60.56 94.29 60.46 92.25 60.42 90.52 60.39 89.35 60.36 88.14 60.32 87.48 60.32 87.48L60.32 87.48C60.32 87.48 60.46 90.22 60.63 94.32 60.79 98.43 61.06 103.91 61.36 109.36 61.49 112.1 61.66 114.84 61.79 117.38 61.93 119.95 62.03 122.32 62.1 124.4 62.16 126.43 62.2 128.17 62.23 129.34 62.26 130.48 62.26 131.18 62.26 131.18L62.26 131.18Z" fill="#fff" data-connection="9" data-fillable="1" class="" style="stroke-width: 0.05px; fill: rgb(78, 94, 97); stroke: rgb(78, 94, 97);"></path><!----> <path d="M38.31 132.28C38.31 132.28 38.31 129.84 38.27 126.17 38.27 122.49 38.24 117.58 38.21 112.7 38.21 107.79 38.24 102.91 38.31 99.24 38.31 98.3 38.34 97.47 38.37 96.73 38.41 96 38.41 95.33 38.44 94.79 38.47 93.72 38.51 93.12 38.51 93.12L38.51 93.12C38.51 93.12 38.51 93.72 38.47 94.79 38.47 95.86 38.44 97.4 38.41 99.24 38.37 102.91 38.37 107.82 38.37 112.7 38.37 117.61 38.41 122.49 38.37 126.17 38.37 129.84 38.31 132.28 38.31 132.28L38.31 132.28Z" fill="#fff" data-connection="10" class="" style="stroke-width: 0.05px; stroke: rgb(78, 94, 97); fill: rgb(78, 94, 97);" data-fillable="1"></path><!----> <path d="M72.79 128.04C72.79 128.04 72.62 127.5 72.32 126.6 72.19 126.13 72.02 125.6 71.82 124.96 71.62 124.33 71.42 123.59 71.22 122.83 70.38 119.68 69.38 115.44 68.44 111.2 67.57 106.95 66.77 102.68 66.17 99.47 65.87 97.87 65.67 96.53 65.5 95.59 65.34 94.66 65.27 94.12 65.27 94.12L65.27 94.12C65.27 94.12 65.67 96.26 66.27 99.47 66.87 102.68 67.71 106.95 68.61 111.2 69.51 115.44 70.48 119.68 71.32 122.83 71.52 123.63 71.72 124.33 71.89 124.96 72.05 125.6 72.22 126.17 72.35 126.6 72.65 127.5 72.79 128.04 72.79 128.04L72.79 128.04Z" fill="#fff" data-connection="11" class="" style="stroke-width: 0.05px; stroke: rgb(78, 94, 97); fill: rgb(78, 94, 97);" data-fillable="1"></path></g></g> <g class="back"><g><!----> <path d="M38.68318681719495 117.01881347167459 M38.500804981032395 133.21862777762433 M38.500804981032395 133.21862777762433 L38.500804981032395 133.21862777762433 L40.710096946658105 133.4839334547341 L41.724495955762535 133.56796732308874 L42.717699729320756 133.59283969749225 L43.57232708741349 133.38371726294324 L42.572622665837734 133.41604730465681 L41.589601927437656 133.26691905438148 L42.13874339720047 132.7051680786345 L43.13107213257071 132.5867796831479 L44.12476506491028 132.68478722364588 L44.99635859487598 133.15734555315322 L45.913559077934934 133.54991021175948 L46.89221641341608 133.7534220983514 L47.8894605425223 133.84616934460522 L48.88641896786116 133.87812170651847 L49.88702857565648 133.8533637063923 L50.60226718188895 133.87833943731613 L52.60697484884588 133.87196436415613 L53.59894189376087 133.8007651746568 L54.584475401374455 133.6357988674482 L55.550113009337146 133.36697461503852 L56.53387602753548 133.2019953074991 L57.53504973107912 133.20130615018934 L58.468692091546565 133.50051166125198 L60.38786760074018 133.7197457138089 L60.33068052601272 128.26248815553646 L60.19516132171091 117.23654446876952 L60.06127559632852 108.25444417826957 L59.929900676303845 101.24670299282391 L59.83581319446073 97.30563063224321 L59.74194394318849 94.2548525869627 L59.655716529104645 92.21717422380402 L59.53957463028926 90.25146433115708 L59.370097910381986 88.25559659131378 L59.087162580925906 85.27780047526548 L58.968368498435424 84.28420777507019 L58.666264843450534 82.31316850622136 L58.400967206968424 80.32720577034726 L58.18057981111608 78.3313600952535 L58.09027216890186 77.33210404249193 L57.956671186561394 75.33752360345468 L57.89393142133668 73.33486336063622 L57.90643621183173 71.34043717346552 L57.94132008702731 70.35034852946856 L58.069029441907354 68.3756090392322 L58.16842769505755 67.33196078780938 L58.28412941369781 66.33730207225375 L58.421094733771376 65.3396050403574 L58.56889158501147 64.40401124811788 L58.74901569802838 63.39844231207732 L58.945732327721814 62.42053084804733 L59.165891435817755 61.435137214278164 L59.40177283448704 60.47607746562527 L59.66252523582502 59.5060777407542 L59.950019335817004 58.523312478548476 L60.244050377919464 57.59392322678204 L60.5670442986776 56.645158858003775 L60.92173661993504 55.675422021153004 L61.26300540875849 54.80231743752962 L61.66505323773665 53.83768495830465 L62.06042903597009 52.947081658032005 L62.478743819657055 52.05905933156663 L62.94851250923742 51.11993354821436 L63.39284851627084 50.281623119908936 L63.907725202881956 49.36423744999357 L64.39951236873338 48.53674917984373 L64.93662132790269 47.682449780171524 L65.48162295231703 46.86426678320564 L66.05607488887613 46.05161774613279 L66.67761809594458 45.22769409261838 L67.31567032941622 44.44260980252538 L67.31567032941622 44.44260980252539 L67.89847316322061 44.15288454409421 L68.04339573117598 42.18272702572888 L68.14716764818053 41.174346720396464 L68.27393523920307 40.16138137138322 L68.41817231098106 39.196347623580934 L68.58953375433794 38.22671212119121 L68.80256548962092 37.2116038719758 L69.04552216387569 36.24268240817137 L69.32954724694355 35.30199973340275 L69.67309441311792 34.37739808675934 L70.05 33.95 L70.05 33.95 L58.80935911562757 29.749048618637083 L58.02 29.61 L58.02 29.61 L57.04865573391673 29.84455319215711 L56.07097430350128 30.046327424984874 L55.08844155888744 30.21743140190751 L54.102004889999044 30.359643209335378 L53.11219856853482 30.47440682246847 L52.11926854283708 30.56283252701695 L51.12329736768815 30.62569986367705 L50.10009183917676 30.664067316325067 L49.122506473114946 30.676252070892147 L48.11819101002607 30.663887905343827 L47.11212101038679 30.625880686094483 L46.10555750186709 30.56144225261819 L45.10045234799922 30.46949485830934 L44.12138779850296 30.351636772462257 L43.13999934423637 30.2029591368318 L42.14739847605616 30.017806155912574 L41.16857451320409 29.7956915617438 L40.95 29.74 L40.95 29.74 L39.998758669029236 29.646644391193558 L28.778347141218383 33.901331823493294 L28.68 33.98 L28.68 33.98 L29.074638075112034 34.89028083437634 L29.40216106379578 35.841818511288245 L29.674815131438155 36.81028701203604 L29.90265869509944 37.782119984397525 L30.09375217993583 38.75134814257824 L30.261847880548824 39.76620829278526 L30.395534241946375 40.73036725682753 L30.51163060129417 41.74064189743405 L30.99 43.81 L30.99 43.81 L31.76812611176989 44.43087544620758 L32.521315997745475 45.12892898162244 L33.21441754109158 45.845154949989855 L33.87488697571077 46.59515802967781 L34.49355867732149 47.361794832860014 L35.07587012494482 48.145644567511674 L35.64473607542506 48.97663038148062 L36.199516886955976 49.857657962303826 L36.6953606209275 50.71308222989778 L37.16743591881355 51.59701504635845 L37.60243031698269 52.48208957381291 L38.00792546039506 53.379628507674056 L38.38970494834126 54.30159976538437 L38.751555171500534 55.25963025811966 L39.07296240994159 56.195853679351906 L39.36859755587613 57.14636316015577 L39.64004418396135 58.11589885028859 L39.8880109309238 59.10813970328867 L40.097132963871815 60.05141925394416 L40.29301089909339 61.05789146835069 L40.45494039086296 62.018882617617784 L40.60166897368131 63.04285169163317 L40.71834457555714 64.02442476350079 L40.81211905948825 65.00181023059403 L40.88430165254845 65.97814472548545 L40.93778067060175 67.00254300820504 L40.96829216590787 67.9796790252807 L40.97950848704328 68.99284307004183 L40.943258249615376 71.00020310140962 L40.80515961753269 73.9941576173283 L40.61867911248325 76.9832579067296 L40.46666821743989 78.98946938384103 L40.290334960080585 80.96170343933562 L40.0704928211018 82.97080131035557 L39.80611086160586 84.94665102243479 L39.71019924366281 85.94307185644364 L39.43708693194914 88.92661525821404 L39.286706933292095 90.92404687790444 L39.176265731912494 93.0301234214265 L39.10422518632119 94.96215988469763 L38.9301471895158 101.809869063846 L38.80276904830048 108.83155778711205 L38.68318681719495 117.01881347167459 L38.500804981032395 133.21862777762433 Z" fill="#fff" data-connection="1" class="" style="stroke-width: 0.65px; stroke: rgb(78, 94, 97);"></path><!----> <path d="M60.33068052601272 128.26248815553646 M60.38786760074018 133.7197457138089 L60.38786760074018 133.7197457138089 L56.7977535036612 133.93775468180547 L57.008578364696646 134.0889880043032 L57.99705141721185 134.05262045905414 L58.99299301381433 133.93721056968184 L59.985291339410686 133.7891947891135 L61.95850116773163 133.4487932028244 L64.89865803089164 132.9146252471063 L65.88883692444492 132.75381297371217 L66.89387689704648 132.6500638721095 L67.88392954481941 132.63209583929478 L68.88330213621991 132.5646774645552 L69.87374320779146 132.41192593118342 L70.48583324711339 132.0749717683512 L69.52437062028892 131.85297606139505 L68.5665368643059 131.56572645622657 L68.61167314955651 131.06414839672513 L69.60189073673374 130.89544222422043 L72.58171788804472 130.54594683383635 L73.564791441869 130.40541949248262 L74.56172572944675 130.22122139148416 L75.52005668447205 129.96427158809576 L76.48103776777685 129.67895312181943 L77.46164595265232 129.45634280176355 L78.44307159359228 129.2687033183514 L79.41880733922578 129.10435240766827 L81.39517026693795 128.8164739425976 L84.37089515019616 128.45986036462008 L85.19446167332701 128.26000701844822 L83.87120246186709 125.5900379841855 L82.57732834064643 122.87822732344864 L81.32251858373095 120.13815524704843 L80.51077178581511 118.30053540549524 L79.72001152641971 116.45644427375585 L78.57365944594414 113.68060546417169 L77.47359692552952 110.8944594589125 L76.41607703983206 108.09767689113357 L75.3956212191289 105.2887464738733 L74.40566647231034 102.46588864651243 L73.12112098711776 98.67867293151066 L71.86277447084953 94.86687268016613 L67.53384058329753 81.55032112135439 L66.65727043384351 78.67482053095992 L66.3895037032308 77.71012186646587 L66.149004113089 76.74196518278404 L65.98763932972952 75.75848189851492 L65.92522232903963 74.75977840499277 L65.90001103032272 73.7604349431395 L65.91588781024225 72.74768696881752 L65.95409291665767 71.76836437159423 L66.01744513364282 70.76507648946809 L66.10664649952139 69.75805407072211 L66.21913289674285 68.77631047390527 L66.35719920993296 67.79602914175284 L66.52604523742305 66.78938925045478 L66.71596127841757 65.81224749354045 L66.930056605884 64.83732657872304 L67.42042606484051 62.89622788090371 L68.2274758627222 60.013646042081675 L68.48309302825746 59.03921660845941 L68.70431362767633 58.0709980055563 L68.8781056584039 57.08328159215482 L68.88 57.07 L68.88 57.07 L68.62746385494435 56.09129665872539 L68.42722934145776 55.117434812015915 L68.2671874051751 54.15497461438507 L68.13193617817835 53.14642069786194 L68.02441651245103 52.1360440188541 L67.9433087677451 51.15473127676795 L67.84034237686797 49.1631134179164 L67.81119661039826 47.16103369491518 L67.31567032941622 44.44260980252539 L67.31567032941622 44.44260980252538 L66.67761809594458 45.22769409261838 L66.05607488887613 46.05161774613279 L65.48162295231703 46.86426678320564 L64.93662132790269 47.682449780171524 L64.39951236873338 48.53674917984373 L63.907725202881956 49.36423744999357 L63.39284851627084 50.281623119908936 L62.94851250923742 51.11993354821436 L62.478743819657055 52.05905933156663 L62.06042903597009 52.947081658032005 L61.66505323773665 53.83768495830465 L61.26300540875849 54.80231743752962 L60.92173661993504 55.675422021153004 L60.5670442986776 56.645158858003775 L60.244050377919464 57.59392322678204 L59.950019335817004 58.523312478548476 L59.66252523582502 59.5060777407542 L59.40177283448704 60.47607746562527 L59.165891435817755 61.435137214278164 L58.945732327721814 62.42053084804733 L58.74901569802838 63.39844231207732 L58.56889158501147 64.40401124811788 L58.421094733771376 65.3396050403574 L58.28412941369781 66.33730207225375 L58.16842769505755 67.33196078780938 L58.069029441907354 68.3756090392322 L57.94132008702731 70.35034852946856 L57.90643621183173 71.34043717346552 L57.89393142133668 73.33486336063622 L57.956671186561394 75.33752360345468 L58.09027216890186 77.33210404249193 L58.18057981111608 78.3313600952535 L58.400967206968424 80.32720577034726 L58.666264843450534 82.31316850622136 L58.968368498435424 84.28420777507019 L59.087162580925906 85.27780047526548 L59.370097910381986 88.25559659131378 L59.53957463028926 90.25146433115708 L59.655716529104645 92.21717422380402 L59.74194394318849 94.2548525869627 L59.83581319446073 97.30563063224321 L59.929900676303845 101.24670299282391 L60.06127559632852 108.25444417826957 L60.19516132171091 117.23654446876952 L60.33068052601272 128.26248815553646 L60.38786760074018 133.7197457138089 Z" fill="#fff" data-connection="2" class="" style="stroke-width: 0.65px; stroke: rgb(78, 94, 97);"></path><!----> <path d="M47.26 30.63146724486536 L47.26 133.7876272782842 L51.94 133.7876272782842 L51.94 30.63146724486536 " fill="none" data-connection="3" class="" style="stroke-width: 0.35px; stroke: rgb(78, 94, 97);"></path><!----> <path d="M30.037580465932173 55.65038970812437 M29.796577919503328 56.66025968711414 L29.69 57.04 L29.864092151063176 58.0255815290456 L30.092408892152964 58.9924392083807 L30.35444196033609 59.945853788252485 L31.215146141775495 62.83554569051229 L31.73985199877262 64.76578461257982 L31.970151947169878 65.73524540130624 L32.17519250115151 66.70737439108146 L32.35816986641111 67.70949925735032 L32.508427995818344 68.6865775724167 L32.63136078376499 69.666312332807 L32.72928039896648 70.6725674738418 L32.79919327134926 71.67663543958012 L32.84223161235907 72.67736266444427 L32.85978438728755 73.6887206053932 L32.74793543029915 75.67095873946074 L32.625315860868504 76.6626836382498 L32.419622806995164 77.6402345762595 L32.23597887966663 78.62307067512015 L32.08525789142661 79.6110301235678 L31.8670073581132 80.58734353594485 L31.528747752182724 81.51706240105122 L30.92979782079411 83.4460343550176 L30.360277399401248 85.34916193223431 L29.52621875967598 88.22771717076675 L26.788668443585436 97.8356391873218 L25.6066078200015 102.67581987052725 L24.61162291888219 106.58434763083594 L23.57760023336971 110.46523643735958 L22.49629671274415 114.32688902584583 L21.65817093623903 117.1804824762772 L21.08284072629134 119.06767625754026 L20.48049746690441 120.97991389868062 L19.858763640141085 122.88427058734958 L19.203446236400136 124.81347189809111 L18.539058531929786 126.68557047155639 L17.481221830494892 129.48614279843468 L18.37521045797813 129.7731388677165 L20.316283699377795 130.22776049699837 L22.281268860696027 130.62770653611136 L23.26501045298682 130.79591248419877 L24.248536692300984 130.93316499997542 L25.246627967920197 131.04592892194674 L30.22210298496765 131.47455080472318 L31.21823267715351 131.6107830682097 L30.78681134914476 131.93856142442576 L29.841799906407395 132.09911154598888 L30.78566767599638 132.4150840410713 L31.776627932262834 132.54374375533186 L32.77440807693889 132.59883792425686 L33.776542472399974 132.6166432492464 L34.76101683820674 132.71155950455838 L38.500804981032395 133.21862777762433 L38.68318681719495 117.01881347167459 L38.80276904830048 108.83155778711205 L38.9301471895158 101.809869063846 L39.10422518632119 94.96215988469763 L39.176265731912494 93.0301234214265 L39.286706933292095 90.92404687790444 L39.43708693194914 88.92661525821404 L39.71019924366281 85.94307185644364 L39.80611086160586 84.94665102243479 L40.0704928211018 82.97080131035557 L40.290334960080585 80.96170343933562 L40.46666821743989 78.98946938384103 L40.61867911248325 76.9832579067296 L40.80515961753269 73.9941576173283 L40.943258249615376 71.00020310140962 L40.97950848704328 68.99284307004183 L40.96829216590787 67.9796790252807 L40.93778067060175 67.00254300820504 L40.88430165254845 65.97814472548545 L40.81211905948825 65.00181023059403 L40.71834457555714 64.02442476350079 L40.60166897368131 63.04285169163317 L40.45494039086296 62.018882617617784 L40.29301089909339 61.05789146835069 L40.097132963871815 60.05141925394416 L39.8880109309238 59.10813970328867 L39.64004418396135 58.11589885028859 L39.36859755587613 57.14636316015577 L39.07296240994159 56.195853679351906 L38.751555171500534 55.25963025811966 L38.38970494834126 54.30159976538437 L38.00792546039506 53.379628507674056 L37.60243031698269 52.48208957381291 L37.16743591881355 51.59701504635845 L36.6953606209275 50.71308222989778 L36.199516886955976 49.857657962303826 L35.64473607542506 48.97663038148062 L35.07587012494482 48.145644567511674 L34.49355867732149 47.361794832860014 L33.87488697571077 46.59515802967781 L33.21441754109158 45.845154949989855 L32.521315997745475 45.12892898162244 L31.76812611176989 44.43087544620758 L30.99 43.81 L30.99 43.81 L30.73048147076459 44.71712971272472 L30.785042786698707 46.73319145026288 L30.76828261115198 48.70288889939754 L30.731215010950127 49.73035314761801 L30.674744844475462 50.73882116027862 L30.601321187023906 51.69651106963932 L30.501101628369547 52.704788672557754 L30.374257817294875 53.71351102412012 L30.224363381781167 54.67562852278378 L30.037580465932173 55.65038970812437 L29.796577919503328 56.66025968711414 Z" fill="#fff" data-connection="4" class="" style="stroke-width: 0.65px; stroke: rgb(78, 94, 97);"></path><!----> <path d="M49.53 133.45 L50 133.25 L50.2 132.95 L50 132.65 L49.53 132.45 L49.06 132.25 L48.86 131.95 L49.06 131.65 L49.53 131.45 L50 131.24 L50.2 130.94 L50 130.64 L49.53 130.44 L49.06 130.24 L48.86 129.94 L49.06 129.64 L49.53 129.44 L50 129.24 L50.2 128.94 L50 128.64 L49.53 128.44 L49.06 128.24 L48.86 127.94 L49.06 127.64 L49.53 127.44 L50 127.24 L50.2 126.93 L50 126.63 L49.53 126.43 L49.06 126.23 L48.86 125.93 L49.06 125.63 L49.53 125.43 L50 125.23 L50.2 124.93 L50 124.63 L49.53 124.43 L49.06 124.23 L48.86 123.93 L49.06 123.63 L49.53 123.43 L50 123.23 L50.2 122.93 L50 122.62 L49.53 122.42 L49.06 122.22 L48.86 121.92 L49.06 121.59 L49.53 121.29 L50 120.99 L50.2 120.65 L50 120.35 L49.53 120.15 L49.06 119.95 L48.86 119.65 L49.06 119.35 L49.53 119.15 L50 118.95 L50.2 118.65 L50 118.35 L49.53 118.15 L49.06 117.95 L48.86 117.65 L49.06 117.35 L49.53 117.15 L50 116.94 L50.2 116.64 L50 116.34 L49.53 116.14 L49.06 115.94 L48.86 115.64 L49.06 115.34 L49.53 115.14 L50 114.94 L50.2 114.64 L50 114.34 L49.53 114.14 L49.06 113.94 L48.86 113.64 L49.06 113.34 L49.53 113.14 L50 112.94 L50.2 112.63 L50 112.33 L49.53 112.13 L49.06 111.93 L48.86 111.63 L49.06 111.33 L49.53 111.13 L50 110.93 L50.2 110.63 L50 110.33 L49.53 110.13 L49.06 109.93 L48.86 109.63 L49.06 109.33 L49.53 109.13 L50 108.93 L50.2 108.63 L50 108.32 L49.53 108.12 L49.06 107.92 L48.86 107.62 L49.06 107.32 L49.53 107.12 L50 106.92 L50.2 106.62 L50 106.32 L49.53 106.12 L49.06 105.92 L48.86 105.62 L49.06 105.32 L49.53 105.12 L50 104.92 L50.2 104.62 L50 104.32 L49.53 104.11 L49.06 103.91 L48.86 103.61 L49.06 103.31 L49.53 103.11 L50 102.91 L50.2 102.61 L50 102.31 L49.53 102.11 L49.06 101.91 L48.86 101.61 L49.06 101.31 L49.53 101.11 L50 100.91 L50.2 100.61 L50 100.31 L49.53 100.11 L49.06 99.9 L48.86 99.6 L49.06 99.3 L49.53 99.1 L50 98.9 L50.2 98.6 L50 98.3 L49.53 98.1 L49.06 97.9 L48.86 97.6 L49.06 97.3 L49.53 97.1 L50 96.9 L50.2 96.6 L50 96.3 L49.53 96.1 L49.06 95.9 L48.86 95.59 L49.06 95.29 L49.53 95.09 L50 94.89 L50.2 94.59 L50 94.29 L49.53 94.09 L49.06 93.89 L48.86 93.59 L49.06 93.29 L49.53 93.09 L50 92.89 L50.2 92.59 L50 92.29 L49.53 92.09 L49.06 91.89 L48.86 91.59 L49.06 91.28 L49.53 91.08 L50 90.88 L50.2 90.58 L50 90.28 L49.53 90.08 L49.06 89.88 L48.86 89.58 L49.06 89.28 L49.53 89.08 L50 88.88 L50.2 88.58 L50 88.28 L49.53 88.08 L49.06 87.88 L48.86 87.58 L49.06 87.28 L49.53 87.07 L50 86.87 L50.2 86.57 L50 86.27 L49.53 86.07 L49.06 85.87 L48.86 85.57 L49.06 85.27 L49.53 85.07 L50 84.87 L50.2 84.57 L50 84.3 L49.53 84.1 L49.06 83.9 L48.86 83.6 L49.06 83.3 L49.53 83.1 L50 82.9 L50.2 82.6 L50 82.3 L49.53 82.1 L49.06 81.9 L48.86 81.6 L49.06 81.29 L49.53 81.09 L50 80.89 L50.2 80.59 L50 80.29 L49.53 80.09 L49.06 79.89 L48.86 79.59 L49.06 79.29 L49.53 79.09 L50 78.89 L50.2 78.59 L50 78.32 L49.53 78.12 L49.06 77.92 L48.86 77.62 L49.06 77.32 L49.53 77.12 L50 76.92 L50.2 76.62 L50 76.32 L49.53 76.12 L49.06 75.92 L48.86 75.61 L49.06 75.31 L49.53 75.11 L50 74.91 L50.2 74.61 L50 74.31 L49.53 74.11 L49.06 73.91 L48.86 73.61 L49.06 73.31 L49.53 73.11 L50 72.91 L50.2 72.61 L50 72.34 L49.53 72.14 L49.06 71.94 L48.86 71.64 L49.06 71.34 L49.53 71.14 L50 70.94 L50.2 70.64 L50 70.34 L49.53 70.13 L49.06 69.93 L48.86 69.63 L49.06 69.33 L49.53 69.13 L50 68.93 L50.2 68.63 L50 68.36 L49.53 68.16 L49.06 67.96 L48.86 67.66 L49.06 67.36 L49.53 67.16 L50 66.96 L50.2 66.66 L50 66.36 L49.53 66.16 L49.06 65.96 L48.86 65.66 L49.06 65.36 L49.53 65.16 L50 64.96 L50.2 64.66 L50 64.39 L49.53 64.19 L49.06 63.99 L48.86 63.69 L49.06 63.39 L49.53 63.19 L50 62.98 L50.2 62.68 L50 62.38 L49.53 62.18 L49.06 61.98 L48.86 61.68 L49.06 61.38 L49.53 61.18 L50 60.98 L50.2 60.68 L50 60.41 L49.53 60.21 L49.06 60.01 L48.86 59.71 L49.06 59.41 L49.53 59.21 L50 59.01 L50.2 58.71 L50 58.44 L49.53 58.24 L49.06 58.04 L48.86 57.74 L49.06 57.44 L49.53 57.24 L50 57.04 L50.2 56.74 L50 56.47 L49.53 56.27 L49.06 56.07 L48.86 55.77 L49.06 55.47 L49.53 55.27 L50 55.07 L50.2 54.77 L50 54.46 L49.53 54.26 L49.06 54.06 L48.86 53.76 L49.06 53.46 L49.53 53.26 L50 53.06 L50.2 52.76 L50 52.46 L49.53 52.26 L49.06 52.06 L48.86 51.76 L49.06 51.46 L49.53 51.26 L50 51.06 L50.2 50.76 L50 50.49 L49.53 50.29 L49.06 50.09 L48.86 49.79 L49.06 49.49 L49.53 49.29 L50 49.09 L50.2 48.78 L50 48.48 L49.53 48.28 L49.06 48.08 L48.86 47.78 L49.06 47.48 L49.53 47.28 L50 47.08 L50.2 46.78 L50 46.51 L49.53 46.31 L49.06 46.11 L48.86 45.81 L49.06 45.51 L49.53 45.31 L50 45.11 L50.2 44.81 L50 44.54 L49.53 44.34 L49.06 44.14 L48.86 43.84 L49.06 43.54 L49.53 43.34 L50 43.14 L50.2 42.84 L50 42.54 L49.53 42.34 L49.06 42.14 L48.86 41.84 L49.06 41.53 L49.53 41.33 L50 41.13 L50.2 40.83 L50 40.57 L49.53 40.37 L49.06 40.16 L48.86 39.86 L49.06 39.56 L49.53 39.36 L50 39.16 L50.2 38.86 L50 38.59 L49.53 38.39 L49.06 38.19 L48.86 37.89 L49.06 37.59 L49.53 37.39 L50 37.19 L50.2 36.89 L50 36.62 L49.53 36.42 L49.06 36.22 L48.86 35.92 L49.06 35.62 L49.53 35.42 L50 35.22 L50.2 34.92 L50 34.65 L49.53 34.45 L49.06 34.25 L48.86 33.95 L49.06 33.65 L49.53 33.45 L50 33.25 L50.2 32.95 L50 32.68 L49.53 32.48 L49.06 32.28 L48.86 31.98 L49.06 31.68 L49.53 31.48 L50 31.28 L50.2 30.98 L50 30.68 L49.96647201344564 30.665732771678996 " fill="none" data-connection="5" class="" style="stroke-width: 0.35px; stroke: rgb(78, 94, 97);"></path><!----> <path d="M69.91 33.98C72.49 34.35 76.06 43.14 78.67 51.52 82.68 64.42 94.61 90.62 95.11 92.22 92.7 94.69 90.7 95.46 87.25 96.7 87.32 97.3 68.98 57 68.98 57 67.24 51.09 67.51 38.9 69.91 33.98Z" fill="#fff" data-connection="6" class="" style="stroke-width: 0.65px; stroke: rgb(78, 94, 97);"></path><!----> <path d="M28.68 33.98C26.11 34.35 22.54 43.14 19.93 51.52 15.92 64.42 3.99 90.28 3.49 91.89 5.9 94.36 7.9 95.46 11.34 96.7 11.28 97.3 29.62 57 29.62 57 31.32 51.12 31.09 38.9 28.68 33.98Z" fill="#fff" data-connection="7" class="" style="stroke-width: 0.65px; stroke: rgb(78, 94, 97);"></path><!----> <path d="M42.05 70.6C42.05 70.6 41.88 71.34 41.65 72.57 41.38 73.84 39.01 88.14 37.7 94.49 36.1 103.05 31.12 131.31 31.12 131.31L31.12 131.31 42.05 70.6 42.05 70.6Z" fill="#fff" data-connection="8" data-fillable="1" class="" style="stroke-width: 0.05px; fill: rgb(78, 94, 97); stroke: rgb(78, 94, 97);"></path><!----> <path d="M57.52 74.85C57.52 74.85 60.59 91.22 61.86 96.6 63.57 105.32 67.91 128.17 68.18 129.37 68.44 130.58 68.61 131.21 68.61 131.21L68.61 131.21 57.52 74.85 57.52 74.85Z" fill="#fff" data-connection="9" data-fillable="1" class="" style="stroke-width: 0.05px; fill: rgb(78, 94, 97); stroke: rgb(78, 94, 97);"></path><!----> <path d="M55.71 80.69C55.71 80.69 55.75 81.29 55.75 82.4 55.78 83.47 58.42 131.08 58.49 131.68 58.62 132.75 58.69 133.35 58.69 133.35L58.69 133.35 55.71 80.69 55.71 80.69Z" fill="#fff" data-connection="10" data-fillable="1" class="" style="stroke-width: 0.05px; fill: rgb(78, 94, 97); stroke: rgb(78, 94, 97);"></path><!----> <path d="M49.43 133.86467192634703 L49.43 130.51 L49.43 120.49 L49.43 117.15 L49.43 110.46 L49.43 103.78 L49.43 97.1 L49.43 90.42 L49.43 83.73 L49.43 77.05 L49.43 70.37 L49.43 60.35 L49.43 50.32 L49.43 43.64 L49.43 36.96 L49.43 30.67241943050479 " fill="none" data-connection="11" class="" style="stroke-width: 0.35px; stroke: rgb(78, 94, 97);"></path><!----> <path d="M41.85 86.24C41.85 86.24 41.85 86.77 41.88 87.68 41.88 88.58 41.91 89.91 41.95 91.45 41.95 94.59 41.98 98.77 42.02 102.95 41.98 107.12 41.95 124.7 41.95 127.84 41.95 129.41 41.91 130.71 41.88 131.61 41.88 132.51 41.85 133.05 41.85 133.05L41.85 133.05 41.85 86.24 41.85 86.24Z" fill="#fff" data-connection="12" data-fillable="1" class="" style="stroke-width: 0.05px; fill: rgb(78, 94, 97); stroke: rgb(78, 94, 97);"></path></g></g></g> </g> </svg>
