<!-- Full Zipper -->
<svg xmlns="http://www.w3.org/2000/svg" xmlns:xlink= "http://www.w3.org/1999/xlink" viewBox="-21.17 0 142.34 142.34"><path d="M70.05 33.95L70.05 33.95 69.9 34.26 69.78 34.55 69.66 34.86 69.54 35.18 69.43 35.51 69.33 35.82 69.15 36.46 68.98 37.13 68.84 37.77 68.71 38.4 68.59 39.08 68.48 39.76 68.34 40.72 68.26 41.4 68.19 42.07 68.11 43.04 68.06 43.71 68.01 44.72 67.97 45.72 67.95 46.41 67.95 47.39 67.95 48.38 67.98 49.41 68.01 50.08 68.05 50.75 68.12 51.71 68.22 52.72 68.3 53.4 68.39 54.07 68.49 54.7 68.61 55.37 68.75 56.01 68.92 56.69 69 57 68.97 57.33 68.91 57.67 68.85 57.99 68.7 58.65 68.54 59.29 68.37 59.93 67.63 62.51 67.37 63.46 67.2 64.11 66.96 65.08 66.82 65.73 66.69 66.39 66.56 67.06 66.4 68.05 66.3 68.7 66.22 69.38 66.12 70.36 66.05 71.35 66.01 72.04 65.98 73.03 65.97 74.02 65.99 74.7 66.02 75.38 66.07 76.03 66.13 76.69 66.2 77.36 66.32 78.34 66.47 79.36 66.63 80.32 66.81 81.33 66.99 82.31 67.18 83.29 67.45 84.62 67.73 85.91 68.01 87.21 68.9 91.13 69.18 92.44 69.53 94.07 69.85 95.71 70.03 96.69 70.19 97.68 70.34 98.67 70.44 99.34 70.56 100.33 70.64 101 70.7 101.66 70.76 102.33 70.82 103.33 70.86 104.3 70.9 105.69 70.94 107.67 70.97 109.66 71 112.04 71.02 114.7 71.04 117.69 71.05 122.34 71.06 127.73 71.05 133.43 71.03 139.4 71.02 142.1 70.94 142.34 28.17 142.34 27.92 142.29 27.88 134.58 27.87 127.19 27.88 120.55 27.91 114.88 27.95 110.18 27.98 108.19 28.01 106.53 28.04 105.18 28.09 103.84 28.12 103.17 28.18 102.17 28.24 101.51 28.33 100.51 28.41 99.84 28.54 98.85 28.63 98.19 28.78 97.19 28.95 96.21 29.12 95.22 29.38 93.91 29.72 92.27 29.93 91.29 30.89 87.04 31.17 85.75 31.45 84.45 31.72 83.12 31.91 82.15 32.09 81.17 32.26 80.18 32.42 79.19 32.52 78.51 32.64 77.54 32.72 76.85 32.78 76.2 32.84 75.55 32.87 74.87 32.89 74.22 32.89 73.86 32.89 73.2 32.86 72.19 32.81 71.2 32.76 70.52 32.66 69.53 32.58 68.88 32.49 68.2 32.33 67.21 32.21 66.56 32.08 65.91 31.94 65.26 31.78 64.58 31.62 63.94 31.37 62.99 31.09 62 30.54 60.08 30.28 59.12 30.13 58.48 30.05 58.15 29.93 57.5 29.87 57.15 29.91 56.85 30.08 56.18 30.22 55.54 30.35 54.87 30.46 54.24 30.56 53.57 30.64 52.9 30.71 52.22 30.78 51.55 30.84 50.59 30.88 49.91 30.91 49.21 30.94 48.22 30.94 47.56 30.94 46.58 30.93 45.89 30.89 44.89 30.84 43.88 30.79 43.21 30.71 42.24 30.64 41.57 30.52 40.56 30.43 39.9 30.33 39.25 30.21 38.57 30.08 37.94 29.93 37.26 29.77 36.63 29.59 35.97 29.39 35.35 29.28 35.03 29.16 34.71 29.04 34.43 28.89 34.1 28.74 33.92 39.99 29.65 40.3 29.54 40.62 29.61 40.95 29.71 40.95 29.71 41.13 29.79 41.8 29.94 42.13 30.02 42.77 30.14 43.1 30.2 43.44 30.25 44.09 30.35 45.07 30.47 46.08 30.56 47.09 30.62 48.09 30.66 48.77 30.67 49.44 30.67 50.08 30.66 50.75 30.64 51.77 30.59 52.77 30.51 53.76 30.4 54.42 30.31 55.08 30.22 55.74 30.1 56.07 30.04 56.72 29.91 57.05 29.84 57.7 29.69 58.02 29.61 58.02 29.61 58.15 29.57 58.47 29.62 70.05 33.95 70.05 33.95Z" id="Bodice_16_" stroke-width="1px" fill="white" stroke="#020202" data-main="1"></path><path d="M49.57 30.68L49.77 142.34" id="center-back-seam" stroke-width="1px" fill="white" stroke="#020202" data-main="1"></path><path d="M47.26 30.63L47.26 142.34 51.94 142.34 51.94 30.63" fill="white" stroke="#010101" data-main="1" stroke-width="1px"></path><path d="M49.53 133.45L50 133.25 50.2 132.95 50 132.65 49.53 132.45 49.06 132.25 48.86 131.95 49.06 131.65 49.53 131.45 50 131.24 50.2 130.94 50 130.64 49.53 130.44 49.06 130.24 48.86 129.94 49.06 129.64 49.53 129.44 50 129.24 50.2 128.94 50 128.64 49.53 128.44 49.06 128.24 48.86 127.94 49.06 127.64 49.53 127.44 50 127.24 50.2 126.93 50 126.63 49.53 126.43 49.06 126.23 48.86 125.93 49.06 125.63 49.53 125.43 50 125.23 50.2 124.93 50 124.63 49.53 124.43 49.06 124.23 48.86 123.93 49.06 123.63 49.53 123.43 50 123.23 50.2 122.93 50 122.62 49.53 122.42 49.06 122.22 48.86 121.92 49.06 121.59 49.53 121.29 50 120.99 50.2 120.65 50 120.35 49.53 120.15 49.06 119.95 48.86 119.65 49.06 119.35 49.53 119.15 50 118.95 50.2 118.65 50 118.35 49.53 118.15 49.06 117.95 48.86 117.65 49.06 117.35 49.53 117.15 50 116.94 50.2 116.64 50 116.34 49.53 116.14 49.06 115.94 48.86 115.64 49.06 115.34 49.53 115.14 50 114.94 50.2 114.64 50 114.34 49.53 114.14 49.06 113.94 48.86 113.64 49.06 113.34 49.53 113.14 50 112.94 50.2 112.63 50 112.33 49.53 112.13 49.06 111.93 48.86 111.63 49.06 111.33 49.53 111.13 50 110.93 50.2 110.63 50 110.33 49.53 110.13 49.06 109.93 48.86 109.63 49.06 109.33 49.53 109.13 50 108.93 50.2 108.63 50 108.32 49.53 108.12 49.06 107.92 48.86 107.62 49.06 107.32 49.53 107.12 50 106.92 50.2 106.62 50 106.32 49.53 106.12 49.06 105.92 48.86 105.62 49.06 105.32 49.53 105.12 50 104.92 50.2 104.62 50 104.32 49.53 104.11 49.06 103.91 48.86 103.61 49.06 103.31 49.53 103.11 50 102.91 50.2 102.61 50 102.31 49.53 102.11 49.06 101.91 48.86 101.61 49.06 101.31 49.53 101.11 50 100.91 50.2 100.61 50 100.31 49.53 100.11 49.06 99.9 48.86 99.6 49.06 99.3 49.53 99.1 50 98.9 50.2 98.6 50 98.3 49.53 98.1 49.06 97.9 48.86 97.6 49.06 97.3 49.53 97.1 50 96.9 50.2 96.6 50 96.3 49.53 96.1 49.06 95.9 48.86 95.59 49.06 95.29 49.53 95.09 50 94.89 50.2 94.59 50 94.29 49.53 94.09 49.06 93.89 48.86 93.59 49.06 93.29 49.53 93.09 50 92.89 50.2 92.59 50 92.29 49.53 92.09 49.06 91.89 48.86 91.59 49.06 91.28 49.53 91.08 50 90.88 50.2 90.58 50 90.28 49.53 90.08 49.06 89.88 48.86 89.58 49.06 89.28 49.53 89.08 50 88.88 50.2 88.58 50 88.28 49.53 88.08 49.06 87.88 48.86 87.58 49.06 87.28 49.53 87.07 50 86.87 50.2 86.57 50 86.27 49.53 86.07 49.06 85.87 48.86 85.57 49.06 85.27 49.53 85.07 50 84.87 50.2 84.57 50 84.3 49.53 84.1 49.06 83.9 48.86 83.6 49.06 83.3 49.53 83.1 50 82.9 50.2 82.6 50 82.3 49.53 82.1 49.06 81.9 48.86 81.6 49.06 81.29 49.53 81.09 50 80.89 50.2 80.59 50 80.29 49.53 80.09 49.06 79.89 48.86 79.59 49.06 79.29 49.53 79.09 50 78.89 50.2 78.59 50 78.32 49.53 78.12 49.06 77.92 48.86 77.62 49.06 77.32 49.53 77.12 50 76.92 50.2 76.62 50 76.32 49.53 76.12 49.06 75.92 48.86 75.61 49.06 75.31 49.53 75.11 50 74.91 50.2 74.61 50 74.31 49.53 74.11 49.06 73.91 48.86 73.61 49.06 73.31 49.53 73.11 50 72.91 50.2 72.61 50 72.34 49.53 72.14 49.06 71.94 48.86 71.64 49.06 71.34 49.53 71.14 50 70.94 50.2 70.64 50 70.34 49.53 70.13 49.06 69.93 48.86 69.63 49.06 69.33 49.53 69.13 50 68.93 50.2 68.63 50 68.36 49.53 68.16 49.06 67.96 48.86 67.66 49.06 67.36 49.53 67.16 50 66.96 50.2 66.66 50 66.36 49.53 66.16 49.06 65.96 48.86 65.66 49.06 65.36 49.53 65.16 50 64.96 50.2 64.66 50 64.39 49.53 64.19 49.06 63.99 48.86 63.69 49.06 63.39 49.53 63.19 50 62.98 50.2 62.68 50 62.38 49.53 62.18 49.06 61.98 48.86 61.68 49.06 61.38 49.53 61.18 50 60.98 50.2 60.68 50 60.41 49.53 60.21 49.06 60.01 48.86 59.71 49.06 59.41 49.53 59.21 50 59.01 50.2 58.71 50 58.44 49.53 58.24 49.06 58.04 48.86 57.74 49.06 57.44 49.53 57.24 50 57.04 50.2 56.74 50 56.47 49.53 56.27 49.06 56.07 48.86 55.77 49.06 55.47 49.53 55.27 50 55.07 50.2 54.77 50 54.46 49.53 54.26 49.06 54.06 48.86 53.76 49.06 53.46 49.53 53.26 50 53.06 50.2 52.76 50 52.46 49.53 52.26 49.06 52.06 48.86 51.76 49.06 51.46 49.53 51.26 50 51.06 50.2 50.76 50 50.49 49.53 50.29 49.06 50.09 48.86 49.79 49.06 49.49 49.53 49.29 50 49.09 50.2 48.78 50 48.48 49.53 48.28 49.06 48.08 48.86 47.78 49.06 47.48 49.53 47.28 50 47.08 50.2 46.78 50 46.51 49.53 46.31 49.06 46.11 48.86 45.81 49.06 45.51 49.53 45.31 50 45.11 50.2 44.81 50 44.54 49.53 44.34 49.06 44.14 48.86 43.84 49.06 43.54 49.53 43.34 50 43.14 50.2 42.84 50 42.54 49.53 42.34 49.06 42.14 48.86 41.84 49.06 41.53 49.53 41.33 50 41.13 50.2 40.83 50 40.57 49.53 40.37 49.06 40.16 48.86 39.86 49.06 39.56 49.53 39.36 50 39.16 50.2 38.86 50 38.59 49.53 38.39 49.06 38.19 48.86 37.89 49.06 37.59 49.53 37.39 50 37.19 50.2 36.89 50 36.62 49.53 36.42 49.06 36.22 48.86 35.92 49.06 35.62 49.53 35.42 50 35.22 50.2 34.92 50 34.65 49.53 34.45 49.06 34.25 48.86 33.95 49.06 33.65 49.53 33.45 50 33.25 50.2 32.95 50 32.68 49.53 32.48 49.06 32.28 48.86 31.98 49.06 31.68 49.53 31.48 50 31.28 50.2 30.98 50.04 30.74" stroke-width="1px" fill="white" stroke="#010101" data-main="1"></path><path d="M49.21 142.26L49.06 142.2 48.86 141.9 49.06 141.6 49.53 141.4 50 141.2 50.2 140.9 50 140.6 49.53 140.4 49.06 140.2 48.86 139.9 49.06 139.6 49.53 139.4 50 139.2 50.2 138.9 50 138.6 49.53 138.39 49.06 138.19 48.86 137.89 49.06 137.59 49.53 137.39 50 137.19 50.2 136.89 50 136.62 49.53 136.42 49.06 136.22 48.86 135.92 49.06 135.62 49.53 135.42 50 135.22 50.2 134.92 50 134.62 49.53 134.42 49.06 134.22 48.86 133.92 49.06 133.62 49.53 133.42 50 133.22 50.2 132.92 50 132.65 49.53 132.45 49.06 132.25 48.86 131.95" stroke-width="1px" fill="white" stroke="#010101" data-main="1"></path></svg>
