<!-- Back Buttoned Zipper 22 -->
<svg xmlns="http://www.w3.org/2000/svg" xmlns:xlink= "http://www.w3.org/1999/xlink" viewBox="-21.17 0 142.34 142.34"><path d="M70.05 33.95L70.05 33.95 69.9 34.26 69.78 34.55 69.66 34.86 69.54 35.18 69.43 35.51 69.33 35.82 69.15 36.46 68.98 37.13 68.84 37.77 68.71 38.4 68.59 39.08 68.48 39.76 68.34 40.72 68.26 41.4 68.19 42.07 68.11 43.04 68.06 43.71 68.01 44.72 67.97 45.72 67.95 46.41 67.95 47.39 67.95 48.38 67.98 49.41 68.01 50.08 68.05 50.75 68.12 51.71 68.22 52.72 68.3 53.4 68.39 54.07 68.49 54.7 68.61 55.37 68.75 56.01 68.92 56.69 69 57 68.97 57.33 68.91 57.67 68.85 57.99 68.7 58.65 68.54 59.29 68.37 59.93 67.63 62.51 67.37 63.46 67.2 64.11 66.96 65.08 66.82 65.73 66.69 66.39 66.56 67.06 66.4 68.05 66.3 68.7 66.22 69.38 66.12 70.36 66.05 71.35 66.01 72.04 65.98 73.03 65.97 74.02 65.99 74.7 66.02 75.38 66.07 76.03 66.13 76.69 66.2 77.36 66.32 78.34 66.47 79.36 66.63 80.32 66.81 81.33 66.99 82.31 67.18 83.29 67.45 84.62 67.73 85.91 68.01 87.21 68.9 91.13 69.18 92.44 69.53 94.07 69.85 95.71 70.03 96.69 70.19 97.68 70.34 98.67 70.44 99.34 70.56 100.33 70.64 101 70.7 101.66 70.76 102.33 70.82 103.33 70.86 104.3 70.9 105.69 70.94 107.67 70.97 109.66 71 112.04 71.02 114.7 71.04 117.69 71.05 122.34 71.06 127.73 71.05 133.43 71.03 139.4 71.02 142.1 70.94 142.34 28.17 142.34 27.92 142.29 27.88 134.58 27.87 127.19 27.88 120.55 27.91 114.88 27.95 110.18 27.98 108.19 28.01 106.53 28.04 105.18 28.09 103.84 28.12 103.17 28.18 102.17 28.24 101.51 28.33 100.51 28.41 99.84 28.54 98.85 28.63 98.19 28.78 97.19 28.95 96.21 29.12 95.22 29.38 93.91 29.72 92.27 29.93 91.29 30.89 87.04 31.17 85.75 31.45 84.45 31.72 83.12 31.91 82.15 32.09 81.17 32.26 80.18 32.42 79.19 32.52 78.51 32.64 77.54 32.72 76.85 32.78 76.2 32.84 75.55 32.87 74.87 32.89 74.22 32.89 73.86 32.89 73.2 32.86 72.19 32.81 71.2 32.76 70.52 32.66 69.53 32.58 68.88 32.49 68.2 32.33 67.21 32.21 66.56 32.08 65.91 31.94 65.26 31.78 64.58 31.62 63.94 31.37 62.99 31.09 62 30.54 60.08 30.28 59.12 30.13 58.48 30.05 58.15 29.93 57.5 29.87 57.15 29.91 56.85 30.08 56.18 30.22 55.54 30.35 54.87 30.46 54.24 30.56 53.57 30.64 52.9 30.71 52.22 30.78 51.55 30.84 50.59 30.88 49.91 30.91 49.21 30.94 48.22 30.94 47.56 30.94 46.58 30.93 45.89 30.89 44.89 30.84 43.88 30.79 43.21 30.71 42.24 30.64 41.57 30.52 40.56 30.43 39.9 30.33 39.25 30.21 38.57 30.08 37.94 29.93 37.26 29.77 36.63 29.59 35.97 29.39 35.35 29.28 35.03 29.16 34.71 29.04 34.43 28.89 34.1 28.74 33.92 39.99 29.65 40.3 29.54 40.62 29.61 40.95 29.71 40.95 29.71 41.13 29.79 41.8 29.94 42.13 30.02 42.77 30.14 43.1 30.2 43.44 30.25 44.09 30.35 45.07 30.47 46.08 30.56 47.09 30.62 48.09 30.66 48.77 30.67 49.44 30.67 50.08 30.66 50.75 30.64 51.77 30.59 52.77 30.51 53.76 30.4 54.42 30.31 55.08 30.22 55.74 30.1 56.07 30.04 56.72 29.91 57.05 29.84 57.7 29.69 58.02 29.61 58.02 29.61 58.15 29.57 58.47 29.62 70.05 33.95 70.05 33.95Z" id="Bodice_16_" stroke-width="1px" data-thin="1" data-main="1"></path><path d="M49.63 142.34L49.57 108.59" id="center-back-seam" stroke-width="1px" data-thin="1" data-main="1"></path><path d="M50.17 142.34L49.73 123.36" stroke-width="1px" fill="white" stroke="#020202" data-main="1"></path><path d="M49.27 142.34L49.7 123.36" stroke-width="1px" fill="white" stroke="#020202" data-main="1"></path><path d="M47.39 108.63L47.39 30.64" id="back-buttons-left" stroke-width="1px" data-thin="1" data-main="1"></path><path d="M47.26 108.59L51.94 108.59" id="back-buttons-bottom" fill="white" stroke="#010101" data-main="1" stroke-width="1px"></path><path d="M48.93 56.3C48.93 55.87 49.3 55.5 49.73 55.5 50.17 55.5 50.54 55.87 50.54 56.3 50.54 56.74 50.17 57.1 49.73 57.1 49.3 57.07 48.93 56.74 48.93 56.3ZM49.97 56.1C49.97 56.04 49.93 56 49.87 56 49.8 56 49.77 56.04 49.77 56.1 49.77 56.17 49.8 56.2 49.87 56.2 49.93 56.2 49.97 56.17 49.97 56.1ZM49.63 56.1C49.63 56.04 49.6 56 49.53 56 49.47 56 49.43 56.04 49.43 56.1 49.43 56.17 49.47 56.2 49.53 56.2 49.6 56.2 49.63 56.17 49.63 56.1ZM49.97 56.47C49.97 56.4 49.93 56.37 49.87 56.37 49.8 56.37 49.77 56.4 49.77 56.47 49.77 56.54 49.8 56.57 49.87 56.57 49.93 56.57 49.97 56.5 49.97 56.47ZM49.63 56.47C49.63 56.4 49.6 56.37 49.53 56.37 49.47 56.37 49.43 56.4 49.43 56.47 49.43 56.54 49.47 56.57 49.53 56.57 49.6 56.57 49.63 56.5 49.63 56.47Z" id="back-button-3" stroke-width="1px" data-thin="1" data-main="1"></path><path d="M48.93 103.08C48.93 102.64 49.3 102.28 49.73 102.28 50.17 102.28 50.54 102.64 50.54 103.08 50.54 103.51 50.17 103.88 49.73 103.88 49.3 103.88 48.93 103.51 48.93 103.08ZM49.97 102.91C49.97 102.84 49.93 102.81 49.87 102.81 49.8 102.81 49.77 102.84 49.77 102.91 49.77 102.98 49.8 103.01 49.87 103.01 49.93 103.01 49.97 102.91 49.97 102.91ZM49.63 102.91C49.63 102.84 49.6 102.81 49.53 102.81 49.47 102.81 49.43 102.84 49.43 102.91 49.43 102.98 49.47 103.01 49.53 103.01 49.6 103.01 49.63 102.91 49.63 102.91ZM49.97 103.25C49.97 103.18 49.93 103.15 49.87 103.15 49.8 103.15 49.77 103.18 49.77 103.25 49.77 103.31 49.8 103.35 49.87 103.35 49.93 103.35 49.97 103.31 49.97 103.25ZM49.63 103.25C49.63 103.18 49.6 103.15 49.53 103.15 49.47 103.15 49.43 103.18 49.43 103.25 49.43 103.31 49.47 103.35 49.53 103.35 49.6 103.35 49.63 103.31 49.63 103.25Z" id="back-button-7" stroke-width="1px" data-thin="1" data-main="1"></path><path d="M48.93 44.57C48.93 44.14 49.3 43.77 49.73 43.77 50.17 43.77 50.54 44.14 50.54 44.57 50.54 45.01 50.17 45.38 49.73 45.38 49.3 45.38 48.93 45.01 48.93 44.57ZM49.97 44.41C49.97 44.34 49.93 44.31 49.87 44.31 49.8 44.31 49.77 44.34 49.77 44.41 49.77 44.47 49.8 44.51 49.87 44.51 49.93 44.51 49.97 44.47 49.97 44.41ZM49.63 44.41C49.63 44.34 49.6 44.31 49.53 44.31 49.47 44.31 49.43 44.34 49.43 44.41 49.43 44.47 49.47 44.51 49.53 44.51 49.6 44.51 49.63 44.47 49.63 44.41ZM49.97 44.78C49.97 44.71 49.93 44.68 49.87 44.68 49.8 44.68 49.77 44.71 49.77 44.78 49.77 44.84 49.8 44.88 49.87 44.88 49.93 44.84 49.97 44.81 49.97 44.78ZM49.63 44.78C49.63 44.71 49.6 44.68 49.53 44.68 49.47 44.68 49.43 44.71 49.43 44.78 49.43 44.84 49.47 44.88 49.53 44.88 49.6 44.84 49.63 44.81 49.63 44.78Z" id="back-button-2" stroke-width="1px" data-thin="1" data-main="1"></path><path d="M48.93 32.81C48.93 32.38 49.3 32.01 49.73 32.01 50.17 32.01 50.54 32.38 50.54 32.81 50.54 33.25 50.17 33.62 49.73 33.62 49.3 33.62 48.93 33.25 48.93 32.81ZM49.97 32.65C49.97 32.58 49.93 32.55 49.87 32.55 49.8 32.55 49.77 32.58 49.77 32.65 49.77 32.71 49.8 32.75 49.87 32.75 49.93 32.75 49.97 32.71 49.97 32.65ZM49.63 32.65C49.63 32.58 49.6 32.55 49.53 32.55 49.47 32.55 49.43 32.58 49.43 32.65 49.43 32.71 49.47 32.75 49.53 32.75 49.6 32.75 49.63 32.71 49.63 32.65ZM49.97 33.01C49.97 32.95 49.93 32.91 49.87 32.91 49.8 32.91 49.77 32.95 49.77 33.01 49.77 33.08 49.8 33.11 49.87 33.11 49.93 33.08 49.97 33.05 49.97 33.01ZM49.63 33.01C49.63 32.95 49.6 32.91 49.53 32.91 49.47 32.91 49.43 32.95 49.43 33.01 49.43 33.08 49.47 33.11 49.53 33.11 49.6 33.08 49.63 33.05 49.63 33.01Z" id="back-button-1" stroke-width="1px" data-thin="1" data-main="1"></path><path d="M48.93 91.38C48.93 90.95 49.3 90.58 49.73 90.58 50.17 90.58 50.54 90.95 50.54 91.38 50.54 91.82 50.17 92.19 49.73 92.19 49.3 92.15 48.93 91.82 48.93 91.38ZM49.97 91.22C49.97 91.15 49.93 91.12 49.87 91.12 49.8 91.12 49.77 91.15 49.77 91.22 49.77 91.28 49.8 91.32 49.87 91.32 49.93 91.28 49.97 91.22 49.97 91.22ZM49.63 91.22C49.63 91.15 49.6 91.12 49.53 91.12 49.47 91.12 49.43 91.15 49.43 91.22 49.43 91.28 49.47 91.32 49.53 91.32 49.6 91.28 49.63 91.22 49.63 91.22ZM49.97 91.55C49.97 91.48 49.93 91.45 49.87 91.45 49.8 91.45 49.77 91.48 49.77 91.55 49.77 91.62 49.8 91.65 49.87 91.65 49.93 91.65 49.97 91.62 49.97 91.55ZM49.63 91.55C49.63 91.48 49.6 91.45 49.53 91.45 49.47 91.45 49.43 91.48 49.43 91.55 49.43 91.62 49.47 91.65 49.53 91.65 49.6 91.65 49.63 91.62 49.63 91.55Z" id="back-button-6" stroke-width="1px" data-thin="1" data-main="1"></path><path d="M48.93 79.69C48.93 79.26 49.3 78.89 49.73 78.89 50.17 78.89 50.54 79.26 50.54 79.69 50.54 80.13 50.17 80.49 49.73 80.49 49.3 80.46 48.93 80.13 48.93 79.69ZM49.97 79.52C49.97 79.46 49.93 79.42 49.87 79.42 49.8 79.42 49.77 79.46 49.77 79.52 49.77 79.59 49.8 79.62 49.87 79.62 49.93 79.59 49.97 79.52 49.97 79.52ZM49.63 79.52C49.63 79.46 49.6 79.42 49.53 79.42 49.47 79.42 49.43 79.46 49.43 79.52 49.43 79.59 49.47 79.62 49.53 79.62 49.6 79.59 49.63 79.52 49.63 79.52ZM49.97 79.86C49.97 79.79 49.93 79.76 49.87 79.76 49.8 79.76 49.77 79.79 49.77 79.86 49.77 79.92 49.8 79.96 49.87 79.96 49.93 79.96 49.97 79.92 49.97 79.86ZM49.63 79.86C49.63 79.79 49.6 79.76 49.53 79.76 49.47 79.76 49.43 79.79 49.43 79.86 49.43 79.92 49.47 79.96 49.53 79.96 49.6 79.96 49.63 79.92 49.63 79.86Z" id="back-button-5" stroke-width="1px" data-thin="1" data-main="1"></path><path d="M48.93 68C48.93 67.56 49.3 67.19 49.73 67.19 50.17 67.19 50.54 67.56 50.54 68 50.54 68.43 50.17 68.8 49.73 68.8 49.3 68.77 48.93 68.43 48.93 68ZM49.97 67.8C49.97 67.73 49.93 67.7 49.87 67.7 49.8 67.7 49.77 67.73 49.77 67.8 49.77 67.86 49.8 67.9 49.87 67.9 49.93 67.9 49.97 67.83 49.97 67.8ZM49.63 67.8C49.63 67.73 49.6 67.7 49.53 67.7 49.47 67.7 49.43 67.73 49.43 67.8 49.43 67.86 49.47 67.9 49.53 67.9 49.6 67.9 49.63 67.83 49.63 67.8ZM49.97 68.16C49.97 68.1 49.93 68.06 49.87 68.06 49.8 68.06 49.77 68.1 49.77 68.16 49.77 68.23 49.8 68.26 49.87 68.26 49.93 68.26 49.97 68.16 49.97 68.16ZM49.63 68.16C49.63 68.1 49.6 68.06 49.53 68.06 49.47 68.06 49.43 68.1 49.43 68.16 49.43 68.23 49.47 68.26 49.53 68.26 49.6 68.26 49.63 68.16 49.63 68.16Z" id="back-button-4" stroke-width="1px" data-thin="1" data-main="1"></path></svg>
