<!-- Keyhole Neck -->
<svg xmlns="http://www.w3.org/2000/svg" xmlns:xlink= "http://www.w3.org/1999/xlink" viewBox="0 0 100 100"><path d="M54.74 34.58C54.71 34.69 54.71 34.79 54.68 34.89 54.24 37.22 54.38 39.63 55.08 41.9L55.98 45.88C57.08 49.39 53.17 53.5 49.17 53.5L48.93 53.5 49.73 53.5 49.53 53.5C45.49 53.5 41.61 49.42 42.72 45.88L43.62 41.9C44.32 39.63 44.45 37.22 44.02 34.89 44.02 34.85 43.99 34.79 43.99 34.75" id="neckline_1_" stroke-width="1px" fill="white" stroke="#020202" data-main="1"></path><path d="M43.99 34.75C43.99 34.72 43.95 34.65 43.95 34.62 43.69 33.45 43.08 32.38 42.25 31.51L40.31 29.54 40.28 29.54 28.68 33.92" id="neckline_3_" stroke-width="1px" fill="white" stroke="#020202" data-main="1"></path><path d="M70.18 33.92L58.39 29.54 56.45 31.51C55.65 32.35 55.05 33.38 54.78 34.48 54.78 34.52 54.74 34.55 54.74 34.58" id="neckline_2_" stroke-width="1px" fill="white" stroke="#020202" data-main="1"></path></svg>
