<!-- Straight bus and waist dart woven -->
<svg xmlns="http://www.w3.org/2000/svg" xmlns:xlink= "http://www.w3.org/1999/xlink" viewBox="-14.319999999999993 0 128.64 128.64"><path d="M28.65 33.95L40.38 29.44 40.38 29.44 40.38 29.44C40.38 34.42 44.42 38.43 49.37 38.43 54.31 38.43 58.35 34.38 58.35 29.44L58.35 29.44 58.35 29.44 70.05 33.95M70.05 33.95C67.64 38.9 67.31 51.16 69.01 57.04 68.31 61.08 66 65.36 65.97 73.74L65.97 73.74C65.94 78.12 67.37 84.44 68.88 91.05 69.85 95.36 70.72 99.87 70.85 103.98 71.18 113.04 71.02 128.64 71.02 128.64L27.92 128.64C27.92 128.64 27.75 113.04 28.08 103.98 28.22 99.87 29.02 95.33 29.99 91.05 31.49 84.44 32.93 78.12 32.89 73.74L32.89 73.74C32.86 65.36 30.22 61.05 29.85 57.04 31.59 51.16 31.26 38.9 28.82 33.95" id="Bodice_16_" stroke-width="1px" fill="white" stroke="#020202" data-main="1"></path><path d="M39.61 91.15C39.61 90.22 40.18 84 40.18 84 42.92 70.87 40.51 62.68 40.51 62.68" stroke-width="1px" fill="white" stroke="#020202" data-main="1"></path><path d="M59.16 62.68C59.16 62.68 57.38 70.07 59.49 84 59.49 84 60.06 90.22 60.06 91.15" stroke-width="1px" fill="white" stroke="#020202" data-main="1"></path><path d="M39.68 56.34L30.19 57.77" stroke-width="1px" fill="white" stroke="#020202" data-main="1"></path><path d="M68.61 57.84L59.12 56.4" stroke-width="1px" fill="white" stroke="#020202" data-main="1"></path></svg>
