<!-- Straight Armhole Princess -->
<svg xmlns="http://www.w3.org/2000/svg" xmlns:xlink= "http://www.w3.org/1999/xlink" viewBox="-14.319999999999993 0 128.64 128.64"><path d="M28.65 33.95L40.38 29.44 40.38 29.44 40.38 29.44C40.38 34.42 44.42 38.43 49.37 38.43 54.31 38.43 58.35 34.38 58.35 29.44L58.35 29.44 58.35 29.44 70.05 33.95M70.05 33.95C67.64 38.9 67.31 51.16 69.01 57.04 68.31 61.08 66 65.36 65.97 73.74L65.97 73.74C65.94 78.12 67.37 84.44 68.88 91.05 69.85 95.36 70.72 99.87 70.85 103.98 71.18 113.04 71.02 128.64 71.02 128.64L27.92 128.64C27.92 128.64 27.75 113.04 28.08 103.98 28.22 99.87 29.02 95.33 29.99 91.05 31.49 84.44 32.93 78.12 32.89 73.74L32.89 73.74C32.86 65.36 30.22 61.05 29.85 57.04 31.59 51.16 31.26 38.9 28.82 33.95" id="Bodice_16_" stroke-width="1px" fill="white" stroke="#020202" data-main="1"></path><path d="M60.64 128.64L59.59 91.15 59.02 84.6 57.92 74.45 67.88 43.81" stroke-width="1px" fill="white" stroke="#020202" data-main="1"></path><path d="M38.22 128.64L39.28 91.15 39.84 84.6 40.95 74.45 30.99 43.81" stroke-width="1px" fill="white" stroke="#020202" data-main="1"></path><path d="M52.07 38.2L52.07 39.33 52.07 41 52.07 42.67 52.07 44.34 52.07 46.01 52.07 47.68 52.07 49.35 52.07 51.02 52.07 52.69 52.07 54.36 52.07 56.04 52.07 57.71 52.07 59.38 52.07 61.05 52.07 62.72 52.07 64.39 52.07 66.06 52.07 67.73 52.07 69.4 52.07 71.07 52.07 72.74 52.07 74.41 52.07 76.08 52.07 77.75 52.07 79.42 52.07 81.09 52.07 82.76 52.07 84.44 52.07 86.11 52.07 87.78 52.07 89.45 52.07 91.12 52.07 92.79 52.07 94.46 52.07 96.13 52.07 97.8 52.07 99.47 52.07 101.14 52.07 102.81 52.07 104.48 52.07 106.15 52.07 107.82 52.07 109.49 52.07 111.16 52.07 112.84 52.07 114.51 52.07 116.18 52.07 117.85 52.07 119.52 52.07 121.19 52.07 122.86 52.07 124.53 52.07 126.2 52.07 127.87 52.07 128.64 47.36 128.64 47.36 127.87 47.36 126.2 47.36 124.53 47.36 122.86 47.36 121.19 47.36 119.52 47.36 117.85 47.36 116.18 47.36 114.51 47.36 112.84 47.36 111.16 47.36 109.49 47.36 107.82 47.36 106.15 47.36 104.48 47.36 102.81 47.36 101.14 47.36 99.47 47.36 97.8 47.36 96.13 47.36 94.46 47.36 92.79 47.36 91.12 47.36 89.45 47.36 87.78 47.36 86.11 47.36 84.44 47.36 82.76 47.36 81.09 47.36 79.42 47.36 77.75 47.36 76.08 47.36 74.41 47.36 72.74 47.36 71.07 47.36 69.4 47.36 67.73 47.36 66.06 47.36 64.39 47.36 62.72 47.36 61.05 47.36 59.38 47.36 57.71 47.36 56.04 47.36 54.36 47.36 52.69 47.36 51.02 47.36 49.35 47.36 47.68 47.36 46.01 47.36 44.34 47.36 42.67 47.36 41 47.36 39.33 47.36 38.2" stroke-width="1px" data-thin="1" fill="none" stroke="#010101" data-main="1"></path><path d="M50.67 126.5C50.67 126 50.27 125.56 49.73 125.56 49.23 125.56 48.8 125.97 48.8 126.5 48.8 127 49.2 127.44 49.73 127.44 50.27 127.44 50.67 127.03 50.67 126.5ZM49.43 126.3C49.43 126.23 49.47 126.2 49.53 126.2 49.6 126.2 49.63 126.23 49.63 126.3 49.63 126.37 49.6 126.4 49.53 126.4 49.5 126.4 49.43 126.37 49.43 126.3ZM49.83 126.3C49.83 126.23 49.87 126.2 49.93 126.2 50 126.2 50.03 126.23 50.03 126.3 50.03 126.37 50 126.4 49.93 126.4 49.87 126.4 49.83 126.37 49.83 126.3ZM49.43 126.73C49.43 126.67 49.47 126.63 49.53 126.63 49.6 126.63 49.63 126.67 49.63 126.73 49.63 126.8 49.6 126.83 49.53 126.83 49.5 126.83 49.43 126.77 49.43 126.73ZM49.83 126.73C49.83 126.67 49.87 126.63 49.93 126.63 50 126.63 50.03 126.67 50.03 126.73 50.03 126.8 50 126.83 49.93 126.83 49.87 126.83 49.83 126.77 49.83 126.73Z" id="front-button-9" stroke-width="1px" data-thin="1" fill="none" stroke="#010101" data-main="1"></path><path d="M50.54 114.77C50.54 114.34 50.17 113.97 49.73 113.97 49.3 113.97 48.93 114.34 48.93 114.77 48.93 115.21 49.3 115.57 49.73 115.57 50.17 115.57 50.54 115.21 50.54 114.77ZM49.5 114.61C49.5 114.54 49.53 114.51 49.6 114.51 49.67 114.51 49.7 114.54 49.7 114.61 49.7 114.67 49.67 114.71 49.6 114.71 49.53 114.71 49.5 114.64 49.5 114.61ZM49.83 114.61C49.83 114.54 49.87 114.51 49.93 114.51 50 114.51 50.03 114.54 50.03 114.61 50.03 114.67 50 114.71 49.93 114.71 49.87 114.71 49.83 114.64 49.83 114.61ZM49.5 114.94C49.5 114.87 49.53 114.84 49.6 114.84 49.67 114.84 49.7 114.87 49.7 114.94 49.7 115.01 49.67 115.04 49.6 115.04 49.53 115.04 49.5 115.01 49.5 114.94ZM49.83 114.94C49.83 114.87 49.87 114.84 49.93 114.84 50 114.84 50.03 114.87 50.03 114.94 50.03 115.01 50 115.04 49.93 115.04 49.87 115.04 49.83 115.01 49.83 114.94Z" id="front-button-8" stroke-width="1px" data-thin="1" fill="none" stroke="#010101" data-main="1"></path><path d="M50.54 56.3C50.54 55.87 50.17 55.5 49.73 55.5 49.3 55.5 48.93 55.87 48.93 56.3 48.93 56.74 49.3 57.1 49.73 57.1 50.17 57.07 50.54 56.74 50.54 56.3ZM49.5 56.1C49.5 56.04 49.53 56 49.6 56 49.67 56 49.7 56.04 49.7 56.1 49.7 56.17 49.67 56.2 49.6 56.2 49.53 56.2 49.5 56.17 49.5 56.1ZM49.83 56.1C49.83 56.04 49.87 56 49.93 56 50 56 50.03 56.04 50.03 56.1 50.03 56.17 50 56.2 49.93 56.2 49.87 56.2 49.83 56.17 49.83 56.1ZM49.5 56.47C49.5 56.4 49.53 56.37 49.6 56.37 49.67 56.37 49.7 56.4 49.7 56.47 49.7 56.54 49.67 56.57 49.6 56.57 49.53 56.57 49.5 56.5 49.5 56.47ZM49.83 56.47C49.83 56.4 49.87 56.37 49.93 56.37 50 56.37 50.03 56.4 50.03 56.47 50.03 56.54 50 56.57 49.93 56.57 49.87 56.57 49.83 56.5 49.83 56.47Z" id="front-button-3" stroke-width="1px" data-thin="1" fill="none" stroke="#010101" data-main="1"></path><path d="M50.54 103.08C50.54 102.64 50.17 102.28 49.73 102.28 49.3 102.28 48.93 102.64 48.93 103.08 48.93 103.51 49.3 103.88 49.73 103.88 50.17 103.88 50.54 103.51 50.54 103.08ZM49.5 102.91C49.5 102.84 49.53 102.81 49.6 102.81 49.67 102.81 49.7 102.84 49.7 102.91 49.7 102.98 49.67 103.01 49.6 103.01 49.53 103.01 49.5 102.91 49.5 102.91ZM49.83 102.91C49.83 102.84 49.87 102.81 49.93 102.81 50 102.81 50.03 102.84 50.03 102.91 50.03 102.98 50 103.01 49.93 103.01 49.87 103.01 49.83 102.91 49.83 102.91ZM49.5 103.25C49.5 103.18 49.53 103.15 49.6 103.15 49.67 103.15 49.7 103.18 49.7 103.25 49.7 103.31 49.67 103.35 49.6 103.35 49.53 103.35 49.5 103.31 49.5 103.25ZM49.83 103.25C49.83 103.18 49.87 103.15 49.93 103.15 50 103.15 50.03 103.18 50.03 103.25 50.03 103.31 50 103.35 49.93 103.35 49.87 103.35 49.83 103.31 49.83 103.25Z" id="front-button-7" stroke-width="1px" data-thin="1" fill="none" stroke="#010101" data-main="1"></path><path d="M50.54 44.57C50.54 44.14 50.17 43.77 49.73 43.77 49.3 43.77 48.93 44.14 48.93 44.57 48.93 45.01 49.3 45.38 49.73 45.38 50.17 45.38 50.54 45.01 50.54 44.57ZM49.5 44.41C49.5 44.34 49.53 44.31 49.6 44.31 49.67 44.31 49.7 44.34 49.7 44.41 49.7 44.47 49.67 44.51 49.6 44.51 49.53 44.51 49.5 44.47 49.5 44.41ZM49.83 44.41C49.83 44.34 49.87 44.31 49.93 44.31 50 44.31 50.03 44.34 50.03 44.41 50.03 44.47 50 44.51 49.93 44.51 49.87 44.51 49.83 44.47 49.83 44.41ZM49.5 44.78C49.5 44.71 49.53 44.68 49.6 44.68 49.67 44.68 49.7 44.71 49.7 44.78 49.7 44.84 49.67 44.88 49.6 44.88 49.53 44.84 49.5 44.81 49.5 44.78ZM49.83 44.78C49.83 44.71 49.87 44.68 49.93 44.68 50 44.68 50.03 44.71 50.03 44.78 50.03 44.84 50 44.88 49.93 44.88 49.87 44.84 49.83 44.81 49.83 44.78Z" id="front-button-2" stroke-width="1px" data-thin="1" fill="none" stroke="#010101" data-main="1"></path><path d="M50.54 79.69C50.54 79.26 50.17 78.89 49.73 78.89 49.3 78.89 48.93 79.26 48.93 79.69 48.93 80.13 49.3 80.49 49.73 80.49 50.17 80.46 50.54 80.13 50.54 79.69ZM49.5 79.52C49.5 79.46 49.53 79.42 49.6 79.42 49.67 79.42 49.7 79.46 49.7 79.52 49.7 79.59 49.67 79.62 49.6 79.62 49.53 79.59 49.5 79.52 49.5 79.52ZM49.83 79.52C49.83 79.46 49.87 79.42 49.93 79.42 50 79.42 50.03 79.46 50.03 79.52 50.03 79.59 50 79.62 49.93 79.62 49.87 79.59 49.83 79.52 49.83 79.52ZM49.5 79.86C49.5 79.79 49.53 79.76 49.6 79.76 49.67 79.76 49.7 79.79 49.7 79.86 49.7 79.92 49.67 79.96 49.6 79.96 49.53 79.96 49.5 79.92 49.5 79.86ZM49.83 79.86C49.83 79.79 49.87 79.76 49.93 79.76 50 79.76 50.03 79.79 50.03 79.86 50.03 79.92 50 79.96 49.93 79.96 49.87 79.96 49.83 79.92 49.83 79.86Z" id="front-button-5" stroke-width="1px" data-thin="1" fill="none" stroke="#010101" data-main="1"></path><path d="M50.54 91.38C50.54 90.95 50.17 90.58 49.73 90.58 49.3 90.58 48.93 90.95 48.93 91.38 48.93 91.82 49.3 92.19 49.73 92.19 50.17 92.15 50.54 91.82 50.54 91.38ZM49.5 91.22C49.5 91.15 49.53 91.12 49.6 91.12 49.67 91.12 49.7 91.15 49.7 91.22 49.7 91.28 49.67 91.32 49.6 91.32 49.53 91.28 49.5 91.22 49.5 91.22ZM49.83 91.22C49.83 91.15 49.87 91.12 49.93 91.12 50 91.12 50.03 91.15 50.03 91.22 50.03 91.28 50 91.32 49.93 91.32 49.87 91.28 49.83 91.22 49.83 91.22ZM49.5 91.55C49.5 91.48 49.53 91.45 49.6 91.45 49.67 91.45 49.7 91.48 49.7 91.55 49.7 91.62 49.67 91.65 49.6 91.65 49.53 91.65 49.5 91.62 49.5 91.55ZM49.83 91.55C49.83 91.48 49.87 91.45 49.93 91.45 50 91.45 50.03 91.48 50.03 91.55 50.03 91.62 50 91.65 49.93 91.65 49.87 91.65 49.83 91.62 49.83 91.55Z" id="front-button-6" stroke-width="1px" data-thin="1" fill="none" stroke="#010101" data-main="1"></path><path d="M50.54 68C50.54 67.56 50.17 67.19 49.73 67.19 49.3 67.19 48.93 67.56 48.93 68 48.93 68.43 49.3 68.8 49.73 68.8 50.17 68.77 50.54 68.43 50.54 68ZM49.5 67.8C49.5 67.73 49.53 67.7 49.6 67.7 49.67 67.7 49.7 67.73 49.7 67.8 49.7 67.86 49.67 67.9 49.6 67.9 49.53 67.9 49.5 67.83 49.5 67.8ZM49.83 67.8C49.83 67.73 49.87 67.7 49.93 67.7 50 67.7 50.03 67.73 50.03 67.8 50.03 67.86 50 67.9 49.93 67.9 49.87 67.9 49.83 67.83 49.83 67.8ZM49.5 68.16C49.5 68.1 49.53 68.06 49.6 68.06 49.67 68.06 49.7 68.1 49.7 68.16 49.7 68.23 49.67 68.26 49.6 68.26 49.53 68.26 49.5 68.16 49.5 68.16ZM49.83 68.16C49.83 68.1 49.87 68.06 49.93 68.06 50 68.06 50.03 68.1 50.03 68.16 50.03 68.23 50 68.26 49.93 68.26 49.87 68.26 49.83 68.16 49.83 68.16Z" id="front-button-4" stroke-width="1px" data-thin="1" fill="none" stroke="#010101" data-main="1"></path></svg>
