<!-- Very Flared Armhole Princess -->
<svg xmlns="http://www.w3.org/2000/svg" xmlns:xlink= "http://www.w3.org/1999/xlink" viewBox="-16.94147223890124 0 133.88294447780248 133.88294447780248"><path d="M28.65 33.95L40.38 29.44 40.38 29.44 40.38 29.44C40.38 34.42 44.42 38.43 49.37 38.43 54.31 38.43 58.35 34.38 58.35 29.44L58.35 29.44 58.35 29.44 70.05 33.95M70.05 33.95C67.64 38.9 67.31 51.16 69.01 57.04 68.31 61.08 65.97 65.39 65.94 73.78 65.94 79.79 70.92 91.45 73.76 99.9 77.2 110.2 85.02 128.17 85.02 128.17 85.02 128.17 82.81 129.57 80.2 128.94 76.43 128 73.22 130.28 73.15 131.24 73.05 132.75 62.9 133.35 62.86 132.28 62.8 131.35 57.95 131.75 57.95 132.88 57.95 133.52 53.84 133.92 50.64 133.88 47.43 133.92 43.12 133.55 43.12 132.92 43.12 131.78 38.37 131.38 38.31 132.31 38.24 133.42 27.92 132.58 28.05 131.28 28.15 130.18 23.2 129.04 20.97 128.97 17.59 128.91 17.62 129.41 17.62 129.41 17.62 129.41 21.57 118.58 26.24 99.9 28.42 91.28 32.86 79.79 32.86 73.74L32.86 73.74C32.83 65.36 30.25 61.05 29.85 57.04 31.59 51.16 31.26 38.9 28.82 33.95" id="Bodice_16_" stroke-width="1px" fill="white" stroke="#020202" data-main="1"></path><path d="M60.73 131.77L59.59 91.15 59.02 84.6 57.92 74.45 67.88 43.81" stroke-width="1px" fill="white" stroke="#020202" data-main="1"></path><path d="M38.11 132.66L39.28 91.15 39.84 84.6 40.95 74.45 30.99 43.81" stroke-width="1px" fill="white" stroke="#020202" data-main="1"></path></svg>
