<!-- Sleeve 2: Full Fitted sleeves -->
<svg xmlns="http://www.w3.org/2000/svg" xmlns:xlink= "http://www.w3.org/1999/xlink" viewBox="0 0 100 100"><path d="M69.91 33.98C72.49 34.35 76.06 43.14 78.67 51.52 82.68 64.42 94.61 90.62 95.11 92.22 93.1 93.12 89.89 94.16 87.25 96.7 87.32 97.3 68.98 57 68.98 57 67.24 51.09 67.51 38.9 69.91 33.98Z" id="Bodice_4_" data-element="sleeve" stroke-width="1px" fill="white" stroke="#020202" data-main="1"></path><path d="M28.68 33.98C26.11 34.35 22.54 43.14 19.93 51.52 15.92 64.42 3.99 90.28 3.49 91.89 5.7 93.02 7.97 94.39 11.34 96.7 11.28 97.3 29.62 57 29.62 57 31.32 51.12 31.09 38.9 28.68 33.98Z" id="Bodice_7_" data-element="sleeve" stroke-width="1px" fill="white" stroke="#020202" data-main="1"></path></svg>
