<!-- Sleeve 3: Bracelet full sleeves -->
<svg xmlns="http://www.w3.org/2000/svg" xmlns:xlink= "http://www.w3.org/1999/xlink" viewBox="-0.15 0 100 100"><path d="M89.76 79.62C87.35 70.37 81.74 61.28 78.7 51.52 76.09 43.14 72.52 34.35 69.95 33.98 67.54 38.9 67.31 51.12 69.01 57 69.01 57 77.73 75.92 81.47 83.83 81.47 83.83 86.29 83.33 89.76 79.62Z" id="Bodice_2_" data-element="sleeve" stroke-width="1px" fill="white" stroke="#020202" data-main="1"></path><path d="M17.16 83.83C20.9 75.92 29.62 57 29.62 57 31.32 51.12 31.09 38.9 28.68 33.98 26.11 34.35 22.54 43.14 19.93 51.52 16.89 61.28 11.18 71.54 8.87 79.62 8.87 79.62 13.55 83.47 17.19 83.83Z" id="Bodice_1_" data-element="sleeve" stroke-width="1px" fill="white" stroke="#020202" data-main="1"></path><path d="M81.47 83.83L81.67 95.26C81.67 95.26 85.78 94.73 87.39 94.29 88.99 93.86 91.43 92.59 91.36 92.42 90.93 91.48 93.7 90.55 94.57 90.25 95.77 89.81 98.78 87.61 98.78 87.61 98.78 87.61 90.46 80.56 89.79 79.62 89.79 79.62 85.78 83.6 81.47 83.83Z" data-element="sleeve" stroke-width="1px" fill="white" stroke="#231F20" data-main="1"></path><path d="M17.16 83.83L16.96 95.26C16.96 95.26 12.85 94.73 11.24 94.29 9.64 93.86 7.2 92.59 7.27 92.42 7.7 91.48 4.93 90.55 4.06 90.25 2.86 89.81-0.15 87.61-0.15 87.61-0.15 87.61 8.17 80.56 8.84 79.62 8.84 79.62 12.81 83.1 17.16 83.83Z" data-element="sleeve" stroke-width="1px" fill="white" stroke="#231F20" data-main="1"></path><path d="M8.14 88.34C8.04 86.47 9.94 82.23 10.27 82.2" data-element="sleeve" stroke-width="1px" fill="white" stroke="#231F20" data-main="1"></path><path d="M91.2 89.48C91.3 87.61 89.39 83.37 89.06 83.33" data-element="sleeve" stroke-width="1px" fill="white" stroke="#231F20" data-main="1"></path><path d="M8.04 91.28C8.27 90.28 10.91 85.91 10.51 85.3" data-element="sleeve" stroke-width="1px" fill="white" stroke="#231F20" data-main="1"></path><path d="M91.3 92.42C91.06 91.42 88.42 87.04 88.82 86.44" data-element="sleeve" stroke-width="1px" fill="white" stroke="#231F20" data-main="1"></path></svg>
